<svg width="38" height="41" viewBox="0 0 38 41" fill="none" xmlns="http://www.w3.org/2000/svg">
<path fill-rule="evenodd" clip-rule="evenodd" d="M19.6659 26.3826H27.9337C28.0826 26.3827 28.2254 26.4419 28.3308 26.5473C28.4361 26.6526 28.4953 26.7954 28.4954 26.9443V32.2282C28.4954 32.3772 28.4362 32.5201 28.3309 32.6254C28.2255 32.7308 28.0827 32.7899 27.9337 32.7899H19.6659C19.5169 32.7899 19.3741 32.7308 19.2687 32.6254C19.1634 32.5201 19.1042 32.3772 19.1042 32.2282V26.9443C19.1043 26.7954 19.1635 26.6526 19.2688 26.5473C19.3742 26.4419 19.517 26.3827 19.6659 26.3826ZM25.5533 20.0366C25.2234 19.6813 25.0537 19.3461 24.5604 19.1187C24.3207 19.014 24.0619 18.9599 23.8002 18.9599C23.5386 18.9599 23.2798 19.014 23.0401 19.1187C22.8028 19.2304 22.5928 19.3926 22.4246 19.5939L17.5714 25.2845V34.2868C17.5729 34.6552 17.72 35.0081 17.9806 35.2686C18.2412 35.5291 18.5941 35.6761 18.9626 35.6775H28.637C29.0055 35.6761 29.3585 35.5291 29.619 35.2686C29.8796 35.0081 30.0267 34.6552 30.0282 34.2868V25.2845L25.5533 20.0366ZM17.2433 36.1179C16.9924 35.8834 16.7924 35.5999 16.6556 35.2849C16.5188 34.9699 16.4481 34.6302 16.448 34.2868V26.602L15.5395 27.6676C15.4421 27.7774 15.3054 27.8445 15.159 27.8546C15.0125 27.8646 14.868 27.8168 14.7564 27.7214C14.6448 27.626 14.5751 27.4907 14.5623 27.3444C14.5495 27.1982 14.5946 27.0528 14.6879 26.9394L21.573 18.8657C21.8263 18.5667 22.1372 18.3218 22.4872 18.1455C22.8371 17.9692 23.219 17.8652 23.61 17.8396C24.001 17.8141 24.3932 17.8675 24.7631 17.9967C25.1331 18.1259 25.4732 18.3282 25.7633 18.5917C26.3609 17.0935 26.706 15.5067 26.7846 13.8956C26.7642 10.3732 25.3507 7.00191 22.8527 4.5183C20.3547 2.0347 16.9754 0.640625 13.4528 0.640625C9.9303 0.640625 6.55093 2.0347 4.05295 4.5183C1.55497 7.00191 0.141423 10.3732 0.121094 13.8956C0.121094 17.5202 3.11029 23.3534 5.40237 27.8239C6.02401 29.0335 6.59325 30.1475 7.00886 31.0209L11.2653 39.1999C11.4736 39.6001 11.7877 39.9355 12.1734 40.1696C12.5591 40.4036 13.0017 40.5274 13.4528 40.5274C13.904 40.5274 14.3465 40.4036 14.7322 40.1696C15.1179 39.9355 15.432 39.6001 15.6403 39.1999L17.2433 36.1179ZM13.4522 6.46971C14.8573 6.46971 16.2309 6.88638 17.3992 7.66703C18.5675 8.44767 19.4781 9.55724 20.0158 10.8554C20.5535 12.1536 20.6942 13.582 20.4201 14.9602C20.146 16.3383 19.4693 17.6042 18.4758 18.5978C17.4822 19.5914 16.2163 20.268 14.8382 20.5421C13.46 20.8162 12.0316 20.6755 10.7334 20.1378C9.43523 19.6001 8.32567 18.6895 7.54502 17.5212C6.76438 16.3529 6.34771 14.9793 6.34771 13.5742C6.34771 11.6899 7.09621 9.8829 8.42855 8.55056C9.7609 7.21821 11.5679 6.46971 13.4522 6.46971Z" fill="#CBD3D6"/>
<path d="M20.2285 30.145H23.239V31.6627H20.2285V30.145Z" fill="#899299"/>
<path d="M24.3624 30.145H27.3729H27.3747V31.6627H24.3624V30.145Z" fill="#899299"/>
<path d="M27.3747 29.0216H24.3642V27.5039H27.3747V29.0216Z" fill="#899299"/>
<path d="M23.239 29.0216H20.2285V27.5039H23.239V29.0216Z" fill="#899299"/>
<path d="M36.7526 15.6501L35.7768 14.6603L33.4347 16.9884V1.89062H32.0407V16.8768L29.8938 14.73L28.918 15.7198L32.7935 19.6092L36.7526 15.6501Z" fill="#899299" stroke="#899299" stroke-width="0.5"/>
</svg>
