<svg width="42" height="47" viewBox="0 0 42 47" fill="none" xmlns="http://www.w3.org/2000/svg">
<path d="M12.832 16.043C8.69184 16.043 5.33594 19.3989 5.33594 23.5391C5.33594 27.6792 8.69184 31.0352 12.832 31.0352C16.9722 31.0352 20.3281 27.6792 20.3281 23.5391C20.3281 19.3989 16.9722 16.043 12.832 16.043ZM10.4895 20.2155L12.832 22.558L15.1746 20.2155L16.1556 21.1965L13.8131 23.5391L16.1556 25.8816L15.1746 26.8626L12.832 24.5201L10.4895 26.8626L9.50845 25.8816L11.851 23.5391L9.50845 21.1965L10.4895 20.2155Z" fill="#899299"/>
<path fill-rule="evenodd" clip-rule="evenodd" d="M12.8315 15.4336C8.30903 15.4336 4.61192 19.0865 4.61192 23.5803C4.61192 26.3519 6.01911 28.806 8.15857 30.2805C3.42925 32.1252 0.078125 36.6888 0.078125 42.0357V45.0567C0.079324 45.3566 0.199583 45.6437 0.412452 45.8549C0.62532 46.0661 0.913366 46.1841 1.21323 46.183H24.4586C24.7569 46.1818 25.0427 46.0627 25.2536 45.8518C25.4646 45.6408 25.5836 45.355 25.5848 45.0567V42.0357C25.5848 36.6896 22.2371 32.1257 17.5088 30.2805C19.6507 28.806 21.0621 26.3519 21.0621 23.5803C21.0621 19.0865 17.3539 15.4336 12.8315 15.4336ZM12.8315 17.695C16.1448 17.695 18.8007 20.3217 18.8007 23.5803C18.8007 26.5925 16.5315 29.0705 13.5713 29.428C13.3264 29.4139 13.0799 29.4058 12.8315 29.4058C12.5838 29.4058 12.3381 29.4139 12.0939 29.428C9.13478 29.0705 6.87329 26.5925 6.87329 23.5803C6.87329 20.3217 9.51816 17.695 12.8315 17.695ZM12.0453 31.696C12.3044 31.7208 12.5661 31.7358 12.8315 31.7358C13.0969 31.7358 13.3607 31.7208 13.6199 31.696C19.0837 32.0892 23.3323 36.5407 23.3323 42.0357V43.9282H2.34172V42.0357C2.34172 36.54 6.58118 32.0883 12.0453 31.696Z" fill="#CBD3D6"/>
<path d="M19.9746 3.68439C19.9746 2.14586 21.2436 0.890625 22.7874 0.890625H38.736C40.2798 0.890627 41.5488 2.14586 41.5488 3.68439V14.3058C41.5488 15.8443 40.2798 17.0945 38.736 17.0945H33.7009L32.4488 18.8266C32.0302 19.4035 31.4066 19.7587 30.7585 19.7587C30.1105 19.7587 29.4932 19.4035 29.0747 18.8266L27.8213 17.0945H22.7874C21.2436 17.0945 19.9746 15.8443 19.9746 14.3058V3.68439Z" fill="#CBD3D6"/>
<path d="M29.7985 12.2454H31.817V14.203H29.7985V12.2454ZM27.3262 7.36848C27.3804 6.08151 27.8297 5.16934 28.6741 4.63197C29.207 4.28878 29.8617 4.11719 30.6384 4.11719C31.659 4.11719 32.5057 4.36103 33.1785 4.84873C33.8558 5.33642 34.1945 6.05893 34.1945 7.01625C34.1945 7.60329 34.0478 8.09776 33.7542 8.49965C33.5826 8.7435 33.253 9.05508 32.7653 9.4344L32.2844 9.80694C32.0225 10.0101 31.8486 10.2472 31.7628 10.5182C31.7086 10.6898 31.6793 10.9562 31.6748 11.3174H29.8459C29.873 10.5543 29.9453 10.0282 30.0627 9.73921C30.1801 9.44569 30.4826 9.10927 30.9703 8.72995L31.4648 8.34386C31.6274 8.22194 31.7583 8.08873 31.8577 7.94422C32.0383 7.69586 32.1286 7.42266 32.1286 7.12463C32.1286 6.78144 32.027 6.46986 31.8238 6.18988C31.6251 5.9054 31.2593 5.76315 30.7265 5.76315C30.2027 5.76315 29.8301 5.93701 29.6088 6.28471C29.3921 6.63242 29.2837 6.99367 29.2837 7.36848H27.3262Z" fill="#899299"/>
</svg>
