<svg width="434" height="440" viewBox="0 0 434 440" fill="none" xmlns="http://www.w3.org/2000/svg">
<path fill-rule="evenodd" clip-rule="evenodd" d="M216.997 7.16295C336.28 7.16295 433.024 103.904 433.024 223.19C433.024 342.472 336.28 439.211 216.997 439.211C97.7147 439.211 0.976074 342.472 0.976074 223.19C0.976074 103.904 97.7147 7.16295 216.997 7.16295Z" fill="#FEDC00"/>
<path d="M25.1829 223.18C25.1829 329.104 111.074 415 216.992 415C322.912 415 408.812 329.104 408.812 223.18C408.812 117.265 322.912 31.368 216.992 31.368C111.074 31.368 25.1829 117.265 25.1829 223.18Z" fill="url(#paint0_linear_16829_7786)"/>
<path fill-rule="evenodd" clip-rule="evenodd" d="M271.613 135.318C279.605 122.645 301.345 137.112 316.916 115.958C325.028 107.29 325.844 86.2078 324.717 71.1638C319.791 67.6611 314.685 64.3998 309.419 61.3865C293.303 79.1318 280.003 124.492 268.543 113.877C261.023 115.649 255.251 92.1758 254.957 87.1264C250.559 75.8691 234.757 66.0691 227.399 69.3318C211.927 65.3238 212.708 46.9398 196.436 60.7158C204.388 77.8184 186.777 79.2824 177.144 62.7344C171.839 60.2131 167.861 65.1091 164.828 68.7318C160.763 73.5958 161.473 74.3251 150.505 75.0731C145.271 73.7051 139.857 79.5718 137.481 79.8624C106.577 83.6118 139.96 155.292 123.304 143.401C116.395 142.082 106.748 122.697 103.275 107.861C89.8546 99.6731 82.092 93.9891 70.0066 102.622C59.3066 117.198 60.1466 121.737 68.9373 124.612C88.3453 130.968 90.9266 158.004 127.489 157.644C129.136 179.814 142.08 209.601 131.931 214.974C124.18 219.065 129.389 243.7 131.065 248.764C133.405 255.834 143.643 269.001 157.103 265.585C158.373 266.057 168.959 262.581 170.203 265.142C176.361 277.709 185.293 296.861 203.863 304.341C213.108 308.061 225.455 309.548 229.164 319.522C232.049 327.265 244.804 378.666 269.009 407.844C276.759 405.668 284.315 403.026 291.64 399.925C325.063 385.802 353.639 362.45 374.216 333.089C396.02 301.966 408.817 264.07 408.817 223.188C408.817 184.636 397.433 148.737 377.851 118.673C377.127 117.554 376.367 116.441 375.62 115.341C366.385 120.754 355.783 127.229 351.533 131.426C320.912 161.594 292.765 163.112 276.904 148.085C274.379 145.693 271.528 141.234 271.613 135.318Z" fill="white"/>
<path fill-rule="evenodd" clip-rule="evenodd" d="M231.733 78.7974C246.523 76.6241 253.727 85.5014 253.272 90.3534C252.284 100.643 258.188 118.959 266.428 125.899C281.233 118.933 292.237 115.109 294.355 112.521C283.113 111.936 283.78 105.617 287.535 102.047C293.209 97.4294 303.765 71.2828 312.42 72.3748C317.98 72.9961 315.093 104.561 314.293 108.503L313.299 113.347C311.435 122.452 301.569 124.723 293.709 126.128C288.931 126.977 283.86 126.749 279.077 127.497C274.035 128.299 271.493 130.084 267.376 131.399L267.353 132.036L270.361 141.773C271.872 136.317 277.725 133.528 283.653 132.976C301.633 130.751 307.819 131.083 320.136 117.387C325.805 111.081 328.817 88.9348 327.931 67.7521C327.713 62.3561 330.737 52.9294 326.484 52.0241C285.516 50.1054 295.837 100.381 270.761 106.436C263.375 108.229 262.673 95.0974 262.379 90.5121C264.024 82.5174 270.452 81.7908 275.753 71.5961C281.107 61.3014 278.065 51.3654 267.043 39.5015C260.316 32.2655 254.641 20.7708 259.28 2.18812C255.365 -1.51321 246.247 2.19478 242.964 12.2081C235.04 42.9628 258.143 48.1574 244.039 66.0454C242.824 65.5241 233.993 65.8401 229.865 66.6481C226.387 67.3214 232.377 76.9748 231.733 78.7974Z" fill="#231F20"/>
<path fill-rule="evenodd" clip-rule="evenodd" d="M157.811 74.8353C151.791 74.7833 143.399 86.0646 139.989 88.102C123.593 97.8966 130.353 104.291 132.239 110.107C138.523 129.643 132.889 137.662 128.913 141.641C125.224 145.35 127.461 151.127 124.195 152.907C92.0747 138.171 108.967 130.429 92.1573 111.61C81.1013 99.2166 72.0453 103.949 62.964 113.166C60.928 118.754 73.6547 124.599 77.9307 128.063C88.204 136.403 95.0693 142.327 107.131 147.549C113.179 150.17 119.075 152.823 123.605 156.139C127.495 158.971 128.228 159.959 129.243 163.39L124.885 166.141C122.993 163.041 119.965 160.385 114.935 158.651C79.0867 151.033 79.5653 134.666 61.3973 124.645C53.1667 120.111 51.0933 115.934 63.516 104.961C75.8573 94.0593 87.912 91.506 100.264 104.466C108.829 113.45 110.913 134.649 123.22 132.594C126.777 121.261 125.56 109.071 115.745 103.491C112.204 101.475 107.903 99.99 102.949 94.786C94.9467 86.39 95.1133 76.002 102.4 61.542C106.853 52.722 110.439 35.9073 98.1573 25.9033C107.828 21.39 116.005 24.8913 119.601 28.5593C130.396 39.5086 123.137 54.082 124.948 67.022C126.219 76.0433 131.508 77.5806 134.852 79.2366C136.208 78.1206 148.441 70.1553 154.959 71.3193C157.129 71.71 157.169 73.942 157.811 74.8353Z" fill="#231F20"/>
<path fill-rule="evenodd" clip-rule="evenodd" d="M236.103 104.13C231.883 103.366 226.392 103.784 220.183 106.646C215.854 108.643 212.438 111.472 211.047 115.478C209.994 118.527 212.067 121.068 214.683 120.143C218.372 118.823 220.126 111.654 235.091 106.507C238.214 105.432 242.359 105.263 236.103 104.13Z" fill="#231F20"/>
<path fill-rule="evenodd" clip-rule="evenodd" d="M128.159 212.586C128.159 212.586 131.108 199.026 129.042 192.293C128.746 191.346 125.058 177.291 122.122 164.953C118.394 149.165 128.504 133.922 146.748 132.358C163.075 130.97 173.214 140.946 179.992 155.825C184.99 166.807 186.68 183.659 185.466 195.498C183.476 193.713 179.498 193.463 179.498 193.463C179.498 193.463 180.418 180.037 175.258 166.27C170.111 152.505 157.811 139.617 142.24 144.887C126.667 150.153 130.742 176.467 134.815 184.965C136.979 189.473 137.068 196.814 135.39 199.781C133.898 202.406 128.159 212.586 128.159 212.586Z" fill="#231F20"/>
<path fill-rule="evenodd" clip-rule="evenodd" d="M277.904 188.164C273.608 198.197 273.092 168.756 274.414 164.484C274.701 163.539 275.937 150.912 273.432 138.643C270.17 122.745 256.918 111.772 239.358 116.969C226.594 120.737 220.373 130.024 218.004 142.129C211.901 148.679 211.101 174.773 220.016 191.672C220.518 190.7 229.669 191.123 226.45 187.875C220.796 182.191 217.757 162.88 217.757 162.88C217.757 162.88 231.71 175.943 226.594 166.239C220.07 153.899 227.168 123.412 247.305 125.621C263.645 127.416 270.613 144.573 269.636 162.696C269.302 168.929 267.905 175.469 269.049 178.852C271.268 185.321 277.904 188.164 277.904 188.164Z" fill="#231F20"/>
<path fill-rule="evenodd" clip-rule="evenodd" d="M144.638 153.471C137.204 158.341 133.076 169.429 137.552 180.469C139.188 179.379 140.188 178.37 141.821 177.275C137.674 169.955 139.521 159.917 144.638 153.471Z" fill="#231F20"/>
<path fill-rule="evenodd" clip-rule="evenodd" d="M172.3 153.921C182.261 163.057 183.253 174.356 182.378 193.797C178.952 193.056 175.224 192.648 171.317 192.648C167.965 192.648 164.748 192.946 161.738 193.498C155.818 189.766 151.845 182.988 151.845 175.246C151.845 163.469 161.01 153.921 172.3 153.921Z" fill="#231F20"/>
<path fill-rule="evenodd" clip-rule="evenodd" d="M259.332 140.65C271.959 139.615 272.193 145.74 272.132 156.778C272.091 164.327 273.241 175.368 272.884 183.266C264.213 181.38 259.12 181.062 252.123 182.348C243.595 177.991 238.868 169.72 238.868 161.975C238.868 150.198 248.04 140.65 259.332 140.65Z" fill="#231F20"/>
<path fill-rule="evenodd" clip-rule="evenodd" d="M147.234 167.867C147.234 167.761 147.082 164.682 149.534 161.797L167.766 172.422L147.234 167.867Z" fill="white"/>
<path fill-rule="evenodd" clip-rule="evenodd" d="M235.96 159.75C235.384 155.187 235.8 156.269 237.616 154.046L254.301 162.141L235.96 159.75Z" fill="white"/>
<path fill-rule="evenodd" clip-rule="evenodd" d="M203.793 196.268C212.728 189.721 226.697 182.371 241.457 180.192C265.249 176.672 290.15 184.397 292.289 214.241C294.141 240.037 274.66 258.321 254.053 257.461C241.261 256.924 229.256 251.24 217.452 253.572C206.674 255.687 198.138 259.367 187.964 264.248C188.318 264.449 180.349 266.637 192.017 257.904C201.157 254.375 208.364 245.324 221.232 247.276C240.301 250.168 283.504 256.039 284.332 216.817C282.808 192.045 263.064 185.184 243.469 187.411C228.232 189.144 212.369 195.779 203.445 202.251C189.497 197.035 175.353 192.879 161.668 194.379C137.798 197.004 127.51 217.459 131.666 239.177C134.528 254.149 147.121 265.779 157.758 264.979C157.994 265.111 158.233 265.247 158.477 265.367C160.113 266.189 161.961 266.836 163.94 267.288C148.614 275.935 127.894 264.045 122.338 240.667C117.66 220.933 130.597 192.121 157.917 189.08C173.578 187.341 187.821 190.248 203.793 196.268Z" fill="#231F20"/>
<path fill-rule="evenodd" clip-rule="evenodd" d="M191.639 256.748C191.639 256.748 180.872 261.049 173.124 255.601C165.376 250.146 162.048 243.88 151.779 246.142C141.507 248.393 145.403 259.752 153.199 262.989C160.99 266.229 180.203 265.188 191.639 256.748ZM202.428 252.648C202.428 252.648 188.014 258.257 179.38 253.373C171.696 249.032 168.068 238.481 154.007 239.081C133.858 239.941 134.179 261.857 150.371 267.358C162.966 271.645 187.614 269.037 202.428 252.648Z" fill="#231F20"/>
<path fill-rule="evenodd" clip-rule="evenodd" d="M173.294 264.732C190.856 268.591 204.13 262.768 213.191 264.519C228.64 267.51 256.751 252.523 252.899 256.375C247.551 261.758 236.247 271.063 210.526 270.89C194.655 270.787 179.754 273.57 173.294 264.732Z" fill="#231F20"/>
<path fill-rule="evenodd" clip-rule="evenodd" d="M153.829 267.096C159.71 274.887 164.002 265.348 169.249 273.935C185 304.305 196.762 310.664 212.501 310.187C228.244 309.712 241.124 302.552 246.998 283.316C252.893 264.077 257.66 249.287 264.973 248.173C271.476 247.185 252.352 251.215 251.961 251.563C249.662 253.659 252.428 255.153 250.345 260.579C245.58 272.984 234.598 296.991 214.09 298.741C193.58 300.489 178.484 285.225 172.121 268.056C170.84 263.6 166.078 264.712 166.078 264.712L153.829 267.096Z" fill="#231F20"/>
<path fill-rule="evenodd" clip-rule="evenodd" d="M251.777 257.881C243.187 266.945 236.351 275.532 212.817 277.439C189.289 279.345 181.655 270.603 173.703 267.104C165.756 263.605 168.775 267.581 168.775 267.581C168.775 267.581 173.703 270.444 185.781 277.916C197.875 285.384 218.861 288.412 236.033 277.28C253.208 266.147 252.732 260.423 252.732 260.423L251.777 257.881Z" fill="#231F20"/>
<path fill-rule="evenodd" clip-rule="evenodd" d="M265.824 209.164C265.208 206.715 251.863 205.136 243.647 208.866C235.424 212.584 233.006 217.772 235.27 223.188C237.311 227.479 243.395 226.248 247.891 224.051C253.496 221.19 257.05 213.568 257.05 213.568C257.567 211.234 267.474 212.135 265.824 209.164Z" fill="#231F20"/>
<path fill-rule="evenodd" clip-rule="evenodd" d="M191.762 418.169C196.942 411.921 194.933 408.64 193.122 402C188.98 386.748 173.765 370.332 178.392 373.257C191.802 382.044 200.292 399.9 200.685 401.109C201.089 402.318 201.625 402.546 202.345 402.725C209.693 397.53 223.902 386.972 214.269 372.453C204.65 357.941 184.069 370.066 178.337 371.374C172.618 372.677 167.538 370.469 160.768 372.157C172.101 376.753 190.926 406.084 191.762 418.169ZM229.376 359.829L232.625 364.984C233.965 367.108 233.286 369.98 231.101 371.358L224.546 375.502C225.725 384.558 220.796 393.721 214.845 399.864C205.424 409.549 200.878 411.134 196.46 423.356C193.697 430.988 191.253 432.557 189.125 433.782C189.042 433.848 188.953 433.914 188.856 433.98C188.698 434.073 188.537 434.158 188.373 434.228C188.266 434.285 188.177 434.34 188.082 434.4C188.082 434.4 188.04 434.376 187.964 434.345C182.614 435.644 170.554 424.194 160.065 407.6C156.05 401.254 152.825 395.026 150.56 389.506C149.746 388.788 149.088 387.848 148.702 386.748C148.312 385.669 148.225 384.558 148.377 383.506C147.116 379.401 146.581 375.969 146.894 373.562C146.997 371.768 147.456 370.185 148.501 369.126C152.82 364.722 171.472 367.778 174.928 366.638C177.942 365.641 203.129 352.229 216.94 362.268L222.954 358.465C225.133 357.085 228.025 357.698 229.376 359.829ZM226.204 363.966C226.617 364.63 227.037 365.286 227.461 365.95C227.974 366.769 227.692 367.85 226.834 368.393C225.978 368.934 224.088 370.081 223.264 370.616C222.954 369.849 222.605 369.084 222.189 368.328C221.622 367.293 220.99 366.356 220.32 365.513C221.025 365.046 222.914 363.929 223.706 363.422C224.552 362.885 225.685 363.141 226.204 363.966ZM160.984 382.37C160.996 382.428 161.01 382.477 161.03 382.526C161.3 382.84 161.824 382.897 162.204 382.682L163.91 381.761L163.945 381.738C163.733 381.509 163.233 380.309 163.028 380.084L160.754 380.586C160.314 380.674 160.866 381.649 160.852 382.061C160.901 382.164 160.941 382.266 160.984 382.37ZM158.104 382.213C157.134 380.686 155.044 380.266 153.441 381.288C152.604 381.813 152.061 382.624 151.868 383.497C152.156 383.089 152.538 382.725 152.981 382.442C154.752 381.324 157.034 381.788 158.104 383.461C158.305 383.788 158.449 384.132 158.532 384.489C158.676 383.716 158.544 382.914 158.104 382.213ZM162.162 384.808C161.874 388.69 159.677 389.737 157.06 390.81C153.302 392.358 179.897 433.721 185.885 429.934C189.358 427.742 186.3 416.47 179.056 403.346C175.016 396.021 171.574 390.352 166.078 384.044L162.162 384.808ZM159.213 382.5C160.041 384.808 158.869 387.333 156.602 388.136C154.341 388.937 151.84 387.724 151.017 385.418C150.201 383.116 151.37 380.594 153.633 379.784C155.893 378.978 158.394 380.197 159.213 382.5ZM184.96 419.933C189.733 437.421 172.944 419.312 171.305 414.27C174.436 416.74 183.089 428.282 184.96 419.933Z" fill="#231F20"/>
<path fill-rule="evenodd" clip-rule="evenodd" d="M290.996 155.576C312.436 170.789 316.213 219.395 311.039 266.603C306.433 308.639 272.469 358.749 249.005 370.563C243.865 373.156 236.443 371.525 231.101 369.588C225.34 367.503 224.438 378.595 224.438 378.595C224.438 378.595 250.368 393.133 268.709 382.016C326 347.287 347.492 239.927 308.393 165.403C296.641 150.816 290.996 155.576 290.996 155.576ZM247.533 377.864C255.267 376.024 260.075 372.891 273.165 359.361C286.269 345.829 300.219 323.78 308.751 300.692C316.869 278.725 319.94 233.125 318.629 224.932C328.628 264.515 315.092 305.904 301.793 332.128C293.169 349.121 271.641 384.129 247.533 377.864Z" fill="#231F20"/>
<path fill-rule="evenodd" clip-rule="evenodd" d="M228.193 321.108C220.042 331.803 214.191 354.468 218.262 362.607C222.335 370.757 215.457 363.12 215.457 363.12C215.457 363.12 207.059 361.083 207.059 359.552C207.059 351.108 197.223 324.44 216.391 304.756C217.419 303.697 219.458 307.215 222.081 308.125C222.081 308.125 211.791 321.956 210.621 329.511C208.333 344.276 212.662 353.188 213.174 352.167C214.41 330.845 226.967 310.385 227.174 312.199L228.193 321.108Z" fill="#231F20"/>
<path fill-rule="evenodd" clip-rule="evenodd" d="M277.121 148.65C288.3 153.12 307.089 160.282 321.4 152.23C335.716 144.174 357.629 124.495 368.37 115.106C369.806 113.844 371.36 112.663 373.004 111.582C374.665 113.911 376.286 116.276 377.85 118.674C372.796 120.08 368.864 122.294 366.126 125.392C359.417 132.994 335.716 162.07 319.612 164.306C303.518 166.546 284.28 168.334 277.121 148.65Z" fill="#231F20"/>
<path fill-rule="evenodd" clip-rule="evenodd" d="M220.544 307.53C221.022 308.356 213.412 311.041 213.412 314.786C213.412 319.3 221.003 325.012 221.539 326.125C222.307 327.724 225.128 316.597 225.835 318.282C230.923 330.332 234.655 344.374 236.771 354.557C239.576 367.993 257.498 402.704 267.008 407.745C267.284 407.89 267.543 408.037 267.784 408.188C271.292 407.226 274.747 406.162 278.174 405.016C263.202 392.557 247.172 371.725 240.134 342.241C231.176 304.73 227.812 307.53 220.544 307.53Z" fill="#231F20"/>
<path fill-rule="evenodd" clip-rule="evenodd" d="M219.51 329.495L212.765 320.789L210.816 325.145L217.776 334.5L219.51 329.495Z" fill="#231F20"/>
<path fill-rule="evenodd" clip-rule="evenodd" d="M158.138 382.111C157.169 380.581 155.085 380.168 153.47 381.183C152.633 381.705 152.089 382.523 151.902 383.393C152.198 382.991 152.569 382.623 153.015 382.339C154.786 381.22 157.069 381.683 158.138 383.361C158.339 383.689 158.477 384.028 158.566 384.391C158.705 383.617 158.573 382.808 158.138 382.111Z" fill="#FFCB04"/>
<path fill-rule="evenodd" clip-rule="evenodd" d="M226.237 363.864C226.652 364.525 227.07 365.186 227.49 365.85C228.008 366.666 227.72 367.75 226.881 368.281C226.013 368.834 224.121 369.981 223.3 370.51C223 369.736 222.638 368.981 222.224 368.225C221.657 367.196 221.025 366.261 220.352 365.413C221.058 364.946 222.948 363.818 223.736 363.314C224.581 362.785 225.718 363.041 226.237 363.864ZM161.01 382.268C161.03 382.32 161.05 382.378 161.058 382.426C161.329 382.733 161.852 382.782 162.24 382.578L163.945 381.656L163.988 381.638C163.778 381.41 163.266 380.208 163.062 379.98L160.789 380.482C160.348 380.58 160.901 381.55 160.892 381.954C160.934 382.061 160.976 382.165 161.01 382.268ZM159.241 382.397C160.065 384.704 158.902 387.222 156.637 388.029C154.376 388.837 151.874 387.617 151.052 385.318C150.233 383.012 151.405 380.489 153.662 379.684C155.928 378.88 158.428 380.094 159.241 382.397ZM191.796 418.07C196.977 411.822 194.961 408.538 193.16 401.897C189.014 386.644 173.8 370.222 178.425 373.158C191.84 381.944 200.321 399.802 200.72 401.009C201.12 402.212 201.666 402.446 202.378 402.618C209.733 397.43 223.942 386.87 214.304 372.353C204.681 357.84 184.109 369.964 178.376 371.269C172.653 372.582 167.573 370.361 160.804 372.052C172.141 376.645 190.954 405.977 191.796 418.07Z" fill="#FEDC00"/>
<path fill-rule="evenodd" clip-rule="evenodd" d="M162.191 384.7C161.91 388.581 159.71 389.633 157.101 390.715C153.325 392.256 179.926 433.619 185.921 429.833C189.393 427.639 186.334 416.367 179.095 403.243C175.051 395.919 171.611 390.249 166.102 383.948L162.191 384.7Z" fill="#FEDC00"/>
<path fill-rule="evenodd" clip-rule="evenodd" d="M247.625 377.907C255.36 376.07 260.172 372.934 273.269 359.404C286.368 345.88 300.321 323.826 308.849 300.735C316.968 278.774 320.032 233.174 318.726 224.978C328.725 264.558 315.19 305.947 301.897 332.175C293.266 349.17 271.746 384.171 247.625 377.907Z" fill="#FEDC00"/>
<path fill-rule="evenodd" clip-rule="evenodd" d="M191.544 256.749C191.544 256.749 180.789 261.053 173.036 255.603C165.285 250.148 161.964 243.881 151.686 246.141C141.412 248.4 145.31 259.753 153.101 262.988C160.901 266.231 180.108 265.189 191.544 256.749Z" fill="#F7AAAC"/>
<path fill-rule="evenodd" clip-rule="evenodd" d="M255.969 153.646C251.318 153.646 247.534 157.421 247.534 162.076C247.534 166.729 251.318 170.508 255.969 170.508C260.62 170.508 264.392 166.729 264.392 162.076C264.392 157.421 260.62 153.646 255.969 153.646Z" fill="#231F20"/>
<path fill-rule="evenodd" clip-rule="evenodd" d="M169.221 165.779C165.63 165.779 162.703 168.7 162.703 172.305C162.703 175.904 165.63 178.828 169.221 178.828C172.819 178.828 175.749 175.904 175.749 172.305C175.749 168.7 172.819 165.779 169.221 165.779Z" fill="#231F20"/>
<path fill-rule="evenodd" clip-rule="evenodd" d="M308.078 326.734C344.444 315.577 339.62 352.72 347.912 363.352C354.645 357.066 360.917 350.302 366.684 343.117C366.524 339.61 366.036 335.942 365.317 332.274C361.538 313.053 355.192 301.242 337.977 292.538C330.916 288.973 324.413 286.426 324.758 286.426C324.758 286.426 317.282 312.344 308.078 326.734Z" fill="#231F20"/>
<path fill-rule="evenodd" clip-rule="evenodd" d="M278.173 269.144C272.998 274.906 272.993 288.728 277.03 298.511C281.054 308.304 296.194 318.539 296.194 318.539L312.108 279.507C317.432 266.442 291.398 248.764 278.173 269.144Z" fill="#231F20"/>
<path fill-rule="evenodd" clip-rule="evenodd" d="M363.016 142.909C377.626 134.273 378.833 177.953 377.885 194.283C377.034 208.764 396.192 218.179 408.6 232.176C407.966 245.639 405.96 258.733 402.712 271.336C402.361 270.495 402.01 269.617 401.654 268.707C399.25 262.543 395.473 256.943 389.54 254.777C373.716 249.017 336.649 240.367 339.045 218.768C341.442 197.157 342.392 188.036 339.045 181.8C330.6 166.095 349.786 150.74 363.016 142.909Z" fill="#231F20"/>
<path fill-rule="evenodd" clip-rule="evenodd" d="M180.832 265.86C193.785 262.2 205 253.138 219.829 252.846C234.667 252.558 242.543 256.422 249.109 256.812C244.549 259.268 224.667 266.448 214.851 265.59C204.587 264.69 195.493 267.438 180.832 265.86Z" fill="#808184"/>
<path fill-rule="evenodd" clip-rule="evenodd" d="M155.436 224.333C155.369 221.806 167.78 216.666 176.706 218.014C185.621 219.359 189.368 223.691 188.654 229.515C183.517 236.786 170.45 232.327 167.384 226.569C166.257 224.459 154.657 227.637 155.436 224.333Z" fill="#231F20"/>
<path fill-rule="evenodd" clip-rule="evenodd" d="M174.962 50.7557C171.702 49.5143 169.531 47.1943 165.167 45.921C161.79 44.949 156.686 43.953 152.327 44.4423L151.288 44.5623C150.491 44.649 149.678 45.653 149.767 46.4343L150.071 49.125C150.804 55.7263 155.096 62.641 159.394 67.6277C152.06 68.4557 139.187 76.2503 139.762 81.3077C140.196 85.1477 155.695 90.0783 161.907 89.3823L164.699 89.2183L172.446 87.1717C172.51 89.3477 171.135 91.0343 171.49 94.093L171.638 95.4423C171.75 96.477 172.799 96.6757 173.85 96.5543L175.568 96.3623C179.256 95.949 184.282 92.1103 185.63 89.7823C187.41 86.7023 188.26 85.165 188.335 82.0997C188.855 82.0597 189.118 81.6437 189.663 81.577C189.894 81.5543 190.076 81.4877 190.256 81.4077C192.555 89.3357 198.567 93.7783 207.542 92.769C208.595 92.6477 209.566 92.2223 209.448 91.1903L209.146 88.4917C208.979 87.045 207.034 84.7277 206.482 83.3423C209.123 83.0437 211.038 83.8543 213.47 83.5783L217.254 83.149C223.627 82.437 237.823 74.197 237.386 70.325C236.822 65.2903 223.035 60.1997 215.652 61.033C219.579 53.6223 220.852 47.1223 219.89 38.5437C219.815 37.845 218.69 36.9743 218.318 37.017C206.044 38.397 202.842 42.9077 196.279 48.3583C195.684 43.077 194.206 39.053 191.948 35.6663C190.822 33.9637 185.139 27.461 183.503 27.6397C180.79 27.9517 177.382 34.697 176.543 36.945C174.954 41.2077 174.283 44.7223 174.962 50.7557Z" fill="#FEDC00"/>
<path fill-rule="evenodd" clip-rule="evenodd" d="M188.096 81.2072C188.335 85.2365 187.718 87.2325 185.155 91.7485C183.355 94.9485 177.6 98.8152 173.927 99.2352L172.122 99.4365C170.652 99.5965 169.022 99.1939 168.835 97.4699L168.668 96.0205C168.363 93.3032 169.154 92.0565 169.574 89.6272L162.494 91.5245L159.488 91.6912C156.004 92.0739 151.066 90.9299 147.736 89.9312C144.712 89.0325 135.636 85.9565 135.208 82.1872C134.679 77.4499 142.378 72.3779 145.886 70.4432C148.57 68.9592 151.943 67.4645 155.104 66.8152C150.79 61.4285 146.748 54.3899 145.994 47.6059L145.664 44.7059C145.512 43.3939 146.714 41.8899 148.027 41.7472L149.111 41.6232C153.539 41.1232 158.754 42.0112 162.99 43.2765C166.334 44.2765 168.367 45.8405 171.292 47.4992C171.543 47.6459 171.816 47.7872 172.075 47.9272C171.66 42.9512 172.11 39.1112 173.903 34.1819C174.944 31.3085 178.584 24.0059 181.928 23.6259C184.31 23.3619 190.374 30.6965 191.659 32.6645C194.159 36.4859 195.514 40.6539 196.178 45.1045C198.144 43.3712 200.056 41.5659 202.128 39.9699C207.206 36.0459 212.294 34.5165 218.632 33.8005C219.706 33.6779 221.126 35.2005 221.236 36.2072C222.224 44.9299 221.134 51.8379 217.418 59.5219C220.596 59.4579 224.138 60.2085 227.036 61.1085C230.888 62.3072 239.226 65.7165 239.76 70.4232C240.18 74.2432 231.808 79.2952 229.019 80.8445C225.939 82.5605 221.347 84.7259 217.811 85.1245L213.83 85.5712C211.736 85.8099 209.767 85.2752 207.718 85.2459C208.595 86.7379 209.871 88.3165 210.051 89.9032L210.374 92.7979C210.568 94.5139 209.078 95.2699 207.599 95.4392C196.894 96.6445 190.279 90.6445 188.096 81.2072ZM194.484 68.7192C199.44 63.8659 206.43 60.6059 212.963 59.7459C215.704 52.5912 215.58 48.5259 214.775 41.1432C202.255 43.0485 190.787 55.7819 190.008 68.5712C192.147 63.2645 198.018 58.5472 202.708 56.8792L204.898 56.1072L203.738 58.1219C203.178 59.1045 200.691 61.3845 199.808 62.2672C198.744 63.3432 197.475 64.5392 196.528 65.7205C195.804 66.6365 195.126 67.7005 194.484 68.7192ZM189.974 74.6725L189.422 75.1379L189.24 73.5392C189.23 73.4645 189.227 73.3819 189.227 73.3099L188.128 73.4299L188.034 72.5712C187.447 67.3779 187.438 63.1152 188.835 58.0392C189.367 56.1259 190.342 54.2925 191.142 52.4752C191.791 50.9805 193.136 49.2672 194.036 47.7779C193.263 42.6925 186.999 35.1579 182.511 32.5472C180.187 34.4192 177.874 38.6272 176.778 41.1432C175.663 43.6925 174.511 47.1912 174.755 50.0285C175.223 50.6005 176.128 51.4379 176.618 51.9232C177.295 52.5939 178.13 53.3525 178.734 54.0712C180.104 55.6832 181.094 57.3459 182.114 59.2005C184.811 64.1672 185.527 67.5019 186.168 73.1539L186.26 74.0139L185.172 74.1352L185.339 75.6032L184 74.9072L185.064 76.1725L182.812 75.8312C182.154 75.7352 178.262 73.7032 177.459 73.3232C176.071 72.6712 174.456 71.8605 173.012 71.3859C169.704 70.3019 164.968 69.8045 161.495 70.1992C159.212 70.4459 156.931 71.0205 154.766 71.7939C150.327 73.3672 143.994 76.8339 141.43 81.1099C144.292 83.9899 150.568 85.7285 154.286 86.3419C156.986 86.7872 159.886 86.9765 162.618 86.6659L166.236 86.2632C168.827 85.9725 173.214 84.0325 175.568 82.8219C176.618 82.2725 177.744 81.3965 178.676 80.6485C179.662 79.8752 181.922 77.8605 182.986 77.4379L184.523 76.8405L184.138 78.4379C183.476 81.1805 176.72 86.5819 173.427 87.7925C173.392 88.1699 173.346 88.5459 173.283 88.9232C173.012 90.4499 172.814 91.3725 172.992 92.9672L173.102 93.9245L173.696 93.8592C175.715 93.6285 181.039 89.3685 182.051 87.6259C183.048 85.8952 183.816 84.7632 184.518 82.8565C185.01 81.4885 185.36 78.1045 186.343 77.2059L187.35 76.2792L187.206 75.0405L189.014 77.1019C190.195 78.4499 190.846 80.9765 192.01 82.5605C192.998 83.8979 194.435 85.5685 195.752 86.5885C198.047 88.3765 202.255 90.2565 205.452 90.5205L205.276 88.9685C205.072 87.1752 204.503 85.6205 203.034 84.4979C201.636 83.4259 199.611 82.8565 197.978 82.2419C195.7 81.3819 193.746 80.3579 192.142 78.4632L190.663 76.7139L192.923 77.0592C194.568 77.3032 197.287 78.6512 198.938 79.2805C199.932 79.6539 200.956 80.0112 201.991 80.2405C205.995 81.1205 208.394 81.5165 212.584 81.0459L214.042 80.8899C216.846 80.5685 219.732 79.6752 222.336 78.5765C225.691 77.1739 231.348 74.0859 233.458 70.7592C230.503 67.7179 224.535 65.7205 220.616 64.9672C217.883 64.4299 214.959 64.1792 212.191 64.4925C207.05 65.0645 204.083 66.1779 199.676 68.6445C198.398 69.3712 196.948 70.6645 195.85 71.6512C195.126 72.3125 191.632 75.7619 190.968 76.0179L188.842 76.8485L189.904 74.8219L189.974 74.6725ZM183.459 70.0965C179.982 57.4432 165.34 47.3752 152.431 48.3205C153.248 55.3939 154.203 60.1205 158.908 65.8259C165.259 65.2192 173.012 66.7139 178.799 70.3512C177.943 69.4779 177.04 68.5752 176.106 67.8392C174.544 66.5965 168.054 63.1792 167.467 61.9845L166.756 60.5632L168.33 60.7485C171.244 61.0885 175.78 62.7339 178.067 64.5525C179.45 65.6459 180.832 66.7659 181.942 68.1405C182.468 68.7899 182.951 69.4432 183.459 70.0965Z" fill="#231F20"/>
<path fill-rule="evenodd" clip-rule="evenodd" d="M148.861 118.362C152.328 116.537 157.169 115.513 163.172 116.681C167.364 117.494 170.96 119.349 173.076 122.865C174.684 125.538 173.481 128.525 171.024 128.301C167.53 127.985 164.368 121.507 150.29 120.391C147.342 120.162 143.733 121.07 148.861 118.362Z" fill="#231F20"/>
<path fill-rule="evenodd" clip-rule="evenodd" d="M211.797 326.034L217.109 333.163C215.264 338.962 213.796 345.464 213.412 352.054C212.909 353.074 208.572 344.168 210.865 329.399C211.029 328.372 211.349 327.235 211.797 326.034ZM218.84 328.2L213.761 321.644C214.241 320.706 214.746 319.766 215.272 318.843C216.75 321.016 218.924 323.072 220.346 324.455C219.844 325.643 219.332 326.895 218.84 328.2Z" fill="#FFCB04"/>
<defs>
<linearGradient id="paint0_linear_16829_7786" x1="368.727" y1="427.694" x2="64.9675" y2="18.2782" gradientUnits="userSpaceOnUse">
<stop stop-color="#04522C"/>
<stop offset="0.00360417" stop-color="#04522C"/>
<stop offset="0.3" stop-color="#056936"/>
<stop offset="0.304633" stop-color="#056936"/>
<stop offset="0.63" stop-color="#3B9143"/>
<stop offset="0.633344" stop-color="#3B9143"/>
<stop offset="1" stop-color="#A4CD39"/>
</linearGradient>
</defs>
</svg>
