      <svg width="100%" height="100%" viewBox="0 0 946 820" fill="none" xmlns="http://www.w3.org/2000/svg">
          <rect width="100%" height="100%" fill="white"/>
          <path fillRule="evenodd" clipRule="evenodd" d="M749.655 476.6C737.247 504.443 724.643 529.808 716.623 558.298C710.535 579.94 715.657 598.284 729.899 603.059C729.991 566.779 745.233 534.707 763.309 494.906C766.675 487.487 757.128 477.886 749.655 476.6ZM607.528 479.772C594.46 506.996 577.349 541.24 571.777 570.518C569.104 584.571 577.48 595.194 587.065 599.862C587.888 587.828 591.187 577.439 596.047 568.788C600.071 580.239 609.071 597.255 621.195 600.212C627.773 601.816 633.552 598.583 636.191 593.612C636.191 593.612 618.339 583.296 609.892 551.683C619.373 543.408 630.499 538.772 640.613 538.032C639.628 529.302 633.683 525.502 628.405 525.418C618.355 525.28 605.016 538.482 594.679 554.462C600.945 532.631 621.069 502.572 620.063 492.375C619.505 488.096 614.457 481.775 607.528 479.772ZM550.435 530.792C527.688 539.126 511.452 571.836 523.497 575.326C530.535 577.358 545.22 548.826 550.435 530.792ZM554.971 528.764C563.704 524.524 563.152 524.744 557.116 520.396C550.52 515.574 537.452 519.211 527.224 526.134C514.441 534.794 493.753 557.43 496.06 572.858C498.077 586.272 508.491 595.002 517.028 594.334C524.567 593.739 531.759 587.043 539.228 574.883C539.516 584.472 545.932 599.675 555.535 600.628C555.983 584.551 559.127 567.874 563.497 551.306C566.764 538.939 560.133 534.695 554.971 528.764ZM441.161 518.191C433.929 533.951 426.851 549.288 424.063 563.751C421.796 575.492 423.792 584.675 432.839 591.758C443.031 600.174 455.553 591.792 466.863 571.26C453.315 613.607 431.732 622.571 423.812 622.196C423.804 626.696 429.76 635.696 437.177 634.923C458.055 632.736 472.383 603.615 480.127 585.103C490.533 560.192 498.917 529.15 476.893 523.69C472.975 540.515 459.736 573.215 442.617 581.898C443.065 567.81 449.177 556.619 453.627 542.411C457.183 531.059 451.373 521.227 441.161 518.191ZM270.144 549.107C279.703 538.211 267.32 522.276 253.28 522.276C239.883 522.276 228.896 533.479 229.476 545.454C229.884 553.912 235.387 560.364 240.109 565.71C251.132 578.175 250.172 582.268 246.432 584.946C242.688 587.619 235.519 585.888 223.376 569.222C216.352 573.394 215.821 580.018 220.113 587.176C221.912 590.196 224.172 592.971 225.856 594.54C233.349 601.53 242.245 601.619 249.772 599.184C259.815 595.935 266.016 587.083 264.552 578.027C263.379 570.771 257.833 563.858 254.047 556.478C244.512 537.918 262.729 538.287 270.144 549.107ZM184.717 479.772C171.643 506.996 154.539 541.24 148.957 570.518C146.284 584.571 154.664 595.194 164.247 599.862C165.068 587.828 168.377 577.439 173.224 568.788C177.259 580.239 186.244 597.255 198.379 600.212C204.955 601.816 210.732 598.583 213.371 593.612C213.371 593.612 195.519 583.296 187.072 551.683C196.556 543.408 207.679 538.772 217.804 538.032C216.816 529.302 210.865 525.502 205.6 525.418C195.547 525.28 182.191 538.482 171.868 554.462C178.137 532.631 198.253 502.572 197.247 492.375C196.685 488.096 191.647 481.775 184.717 479.772ZM402.857 530.792C380.117 539.126 363.867 571.836 375.92 575.326C382.959 577.358 397.643 548.826 402.857 530.792ZM407.388 528.764C416.111 524.524 415.572 524.744 409.536 520.396C402.929 515.574 389.875 519.211 379.647 526.134C366.859 534.794 346.168 557.43 348.483 572.858C350.495 586.272 360.905 595.002 369.449 594.334C376.984 593.739 384.171 587.043 391.643 574.883C391.933 584.472 398.356 599.675 407.957 600.628C408.403 584.551 411.545 567.874 415.917 551.306C419.179 538.939 412.548 534.695 407.388 528.764ZM91.6601 555.376C101.92 541.16 112.316 524.939 123.924 511.832C123.041 524.311 122.081 540.8 120.664 555.612C110.651 555.195 101.14 555.138 91.6601 555.376ZM124.573 481.424C104.579 505.156 84.7655 530.571 67.9655 556.443C65.1881 556.619 62.3561 556.786 59.4988 557.024C52.5708 557.618 55.2295 561.231 60.0855 569.368C56.6241 575.306 53.8002 580.491 50.7935 586.436C47.8615 592.243 51.7082 599.003 63.1642 599.876C69.0775 590.154 75.5548 580.464 81.6948 570.895C94.1268 570.863 106.431 571.196 119.295 570.771C118.668 578.091 117.916 584.548 117.82 590.114C117.748 595.028 125.021 600.336 135.173 600.628C138.832 578.764 144.981 543.319 147.037 512.447C147.741 502.015 147.16 495.903 142.064 490.632C138.301 486.746 132.019 482.41 124.573 481.424ZM311.823 473.996C299.585 499.663 286.352 527.448 278.544 555.214C272.616 576.303 278.392 588.404 292.412 594.474C293.185 576.184 302.189 551.568 315.767 539.16C321.973 533.479 325.703 537.556 323.708 547.198C321.624 557.211 312.087 570.8 312.857 580.198C313.645 589.82 319.205 596.366 331.568 600.628C330.504 591.106 333.631 575.938 341.279 559.406C346.905 547.236 349.135 534.295 340.14 524.642C328.564 512.194 314.393 523.58 301.801 542.182C307.175 523.816 319.797 506.539 325.317 489.903C327.833 482.312 319.111 475.255 311.823 473.996ZM882.22 537.238C859.479 545.566 843.241 578.278 855.283 581.764C862.32 583.803 877.011 555.271 882.22 537.238ZM886.756 535.204C895.477 530.972 894.943 531.183 888.905 526.836C882.299 522.012 869.248 525.648 859.015 532.572C846.227 541.232 825.533 563.87 827.849 579.302C829.857 592.712 840.269 601.44 848.82 600.774C856.351 600.182 863.539 593.486 871.008 581.328C871.307 590.912 877.723 606.112 887.331 607.072C887.768 590.994 890.907 574.314 895.283 557.746C898.543 545.378 891.919 541.138 886.756 535.204ZM694.532 536.09C671.793 544.423 655.556 577.134 667.596 580.622C674.632 582.656 689.324 554.124 694.532 536.09ZM699.069 534.055C707.792 529.823 707.256 530.038 701.208 525.694C694.619 520.864 681.556 524.504 671.327 531.432C658.533 540.082 637.847 562.722 640.157 578.151C642.171 591.571 652.589 600.291 661.132 599.624C668.671 599.034 675.857 592.336 683.321 580.182C683.62 589.766 690.036 604.97 699.644 605.924C700.087 589.851 703.221 573.164 707.601 556.604C710.861 544.238 704.227 539.988 699.069 534.055ZM766.513 520.628C763.449 538.123 725.949 624.407 759.601 636.93C760.953 623.384 763.007 609.092 765.927 597.056C780.772 598.939 793.531 592.988 803.283 584.406C816.288 572.967 830.029 553.9 820.209 534.936C812.165 519.422 795.037 518.047 777.259 548.147C780.973 537.035 785.844 524.559 766.513 520.628ZM768.536 585.506C770.164 577.459 780.041 554.576 790.632 545.072C800.596 536.144 802.781 545.918 800.079 554.52C795.721 568.38 782.647 580.856 768.536 585.506Z" fill="black"/>
          <path fillRule="evenodd" clipRule="evenodd" d="M407.023 724.235C396.642 727.146 390.751 733.251 391.445 741.591C392.129 749.928 402.079 757.124 413.307 754.996C424.517 752.864 438.397 750.09 440.461 754.659C442.519 759.234 434.003 762.414 434.003 762.414L434.93 765.047C434.93 765.047 452.511 759.258 450.634 743.914C448.751 728.574 424.758 732.492 416.194 734.646C407.635 736.804 401.127 737.308 399.981 733.955C399.213 731.718 402.414 729.047 407.429 727.3C411.437 725.908 414.647 725.87 418.735 725.87C437.178 725.87 445.138 714.828 446.05 702.116C446.901 690.128 441.099 681.87 432.322 677.971C429.165 669.698 430.318 658.151 441.243 659.178C438.598 660.636 436.402 664.183 436.338 667.776C436.286 670.476 437.977 675.422 443.523 675.556C448.527 675.688 451.63 671.554 451.463 667.027C451.223 660.5 445.526 656.763 439.702 656.659C433.866 656.556 427.901 660.075 427.138 668.047C426.83 671.215 427.339 673.943 428.182 676.511C425.606 675.818 422.853 675.447 420.001 675.422C403.169 675.231 392.687 686.764 392.273 699.722C391.982 708.731 396.677 718.934 407.023 724.235ZM419.379 678.33C413.307 678.33 410.545 688.298 410.545 700.582C410.545 712.879 412.867 722.842 419.379 722.842C425.883 722.842 428.205 712.879 428.205 700.582C428.205 688.298 425.449 678.33 419.379 678.33ZM389.053 683.69C388.958 688.447 385.505 693.448 380.325 693.448C375.483 693.448 371.953 689.166 371.953 684.554C371.953 680.372 374.357 676.143 377.602 674.26C368.178 673.87 363.329 682.424 360.367 692.279L360.387 726.11C355.006 725.908 348.275 726.116 342.383 726.738L342.389 674.834C350.167 674.648 355.931 673.43 360.354 671.772L360.367 685.314V685.304V685.296C364.405 674.306 372.301 671.756 376.838 671.79C383.91 671.847 389.173 677.359 389.053 683.69ZM360.367 692.291V692.296C360.379 724.578 360.367 706.388 360.367 692.291ZM298.135 655.308C317.433 655.308 331.85 669.154 331.85 691.339C331.85 713.518 317.55 727.37 298.135 727.37C278.711 727.37 264.429 713.982 264.429 691.339C264.429 668.696 278.834 655.308 298.135 655.308ZM298.135 657.502C304.791 657.502 309.771 670.496 309.771 691.339C309.771 712.179 304.834 725.175 298.135 725.175C291.438 725.175 286.507 712.607 286.507 691.339C286.507 670.068 291.478 657.502 298.135 657.502ZM673.259 693.04C671.69 694.858 669.367 695.922 666.434 695.85C659.869 695.668 657.551 689.482 657.626 686.1C657.694 681.604 660.293 677.158 663.41 675.346C648.167 671.847 642.965 685.518 642.965 698.57C642.965 711.991 649.91 722.678 663.553 722.522C670.097 722.447 676.473 718.584 679.83 713.743L680.003 713.492C680.493 714.039 681.021 714.568 681.573 715.068C675.743 722.675 665.59 727.755 653.669 727.651C634.857 727.476 622.966 716.63 622.966 699.879C622.966 683.323 636.662 672.179 654.861 672.244C659.317 672.264 664.307 673.072 668.274 675.044C675.185 678.48 678.342 687.199 673.259 693.04ZM489.983 706.438L490.057 681.328C490.069 676.867 488.067 673.651 485.009 673.318C481.841 672.966 472.831 674.254 471.891 696.519C470.945 718.782 478.023 718.975 480.691 719.03C483.353 719.084 489.954 714.999 489.983 706.438ZM517.271 713.803L518.921 714.666C515.989 722.602 509.957 727.666 502.017 727.651C493.455 727.631 489.954 721.775 489.954 714.36C486.963 721.14 481.382 726.81 472.595 726.794C458.337 726.774 450.69 715.326 451.409 700.938C452.23 684.454 463.671 671.436 479.197 670.544C485.09 670.216 490.426 671.802 493.398 674.776C501.005 674.152 504.99 672.6 507.825 671.896L507.818 713.998C507.818 716.356 507.731 719.475 510.423 720.102C511.613 720.386 512.97 719.986 513.998 719.219C515.253 718.274 516.557 716.583 517.271 713.803ZM620.202 713.803L621.869 714.666C618.925 722.602 612.842 727.666 604.855 727.651C601.445 727.646 598.077 726.636 595.805 724.235C592.913 721.192 592.487 716.608 592.487 712.883L592.47 675.162C600.243 674.992 606.119 673.627 610.57 671.856L610.495 714.343C610.485 716.319 610.773 717.623 611.249 718.496C612.491 720.743 615.17 720.512 616.918 719.219C618.177 718.274 619.489 716.583 620.202 713.803ZM601.554 650.183C607.459 650.183 612.255 654.558 612.255 659.951C612.255 665.354 607.459 669.726 601.554 669.726C595.65 669.726 590.861 665.354 590.861 659.951C590.861 654.558 595.65 650.183 601.554 650.183ZM586.669 712.888L588.33 713.743C585.393 721.691 579.303 726.746 571.323 726.738C567.914 726.728 564.539 725.71 562.267 723.322C559.375 720.276 558.961 715.698 558.961 711.966L558.95 687.734C558.95 677.862 549.147 675.766 541.126 690.563L541.143 725.739C535.134 725.563 528.477 725.927 522.693 726.482L522.717 673.48C530.49 673.318 536.675 671.996 541.114 670.228L541.126 687.176C545.703 678.27 553.143 670.054 563.002 670.339C572.703 670.62 577.147 677.578 577.165 686.518L577.239 713.286C577.246 715.547 577.067 718.391 579.598 719.136C580.838 719.51 582.293 719.104 583.385 718.291C584.645 717.347 586.101 714.904 586.669 712.888Z" fill="black"/>
          <path fillRule="evenodd" clipRule="evenodd" d="M473.004 61.3192C592.286 61.3192 689.03 158.061 689.03 277.346C689.03 396.629 592.286 493.367 473.004 493.367C353.721 493.367 256.982 396.629 256.982 277.346C256.982 158.061 353.721 61.3192 473.004 61.3192Z" fill="#FEDC00"/>
          <path d="M281.189 277.344C281.189 383.268 367.08 469.164 472.999 469.164C578.919 469.164 664.818 383.268 664.818 277.344C664.818 171.429 578.919 85.5321 472.999 85.5321C367.08 85.5321 281.189 171.429 281.189 277.344Z" fill="url(#paint0_linear_16829_7503)"/>
          <path fillRule="evenodd" clipRule="evenodd" d="M527.62 189.482C535.612 176.809 557.352 191.276 572.922 170.122C581.034 161.454 581.85 140.372 580.724 125.328C575.797 121.825 570.692 118.564 565.425 115.551C549.309 133.296 536.009 178.656 524.549 168.041C517.029 169.813 511.257 146.34 510.964 141.291C506.565 130.033 490.764 120.233 483.405 123.496C467.933 119.488 468.714 101.104 452.442 114.88C460.394 131.982 442.784 133.446 433.15 116.898C427.845 114.377 423.868 119.273 420.834 122.896C416.769 127.76 417.48 128.489 406.512 129.237C401.277 127.869 395.864 133.736 393.488 134.027C362.584 137.776 395.966 209.456 379.31 197.565C372.401 196.246 362.754 176.861 359.281 162.025C345.861 153.837 338.098 148.153 326.013 156.786C315.313 171.362 316.153 175.901 324.944 178.776C344.352 185.132 346.933 212.168 383.496 211.808C385.142 233.979 398.086 263.765 387.937 269.139C380.186 273.229 385.396 297.864 387.072 302.928C389.412 309.998 399.649 323.165 413.109 319.749C414.38 320.221 424.965 316.745 426.209 319.306C432.368 331.873 441.3 351.025 459.869 358.505C469.114 362.225 481.461 363.712 485.17 373.686C488.056 381.429 500.81 432.83 525.016 462.008C532.765 459.832 540.321 457.19 547.646 454.089C581.069 439.966 609.645 416.614 630.222 387.253C652.026 356.13 664.824 318.234 664.824 277.352C664.824 238.8 653.44 202.901 633.857 172.837C633.133 171.719 632.373 170.605 631.626 169.505C622.392 174.918 611.789 181.393 607.54 185.59C576.918 215.758 548.772 217.276 532.91 202.249C530.385 199.857 527.534 195.398 527.62 189.482Z" fill="white"/>
          <path fillRule="evenodd" clipRule="evenodd" d="M487.74 132.962C502.529 130.788 509.733 139.666 509.278 144.518C508.29 154.807 514.194 173.123 522.434 180.063C537.24 173.098 548.244 169.274 550.361 166.686C539.12 166.1 539.786 159.782 543.541 156.211C549.216 151.594 559.772 125.447 568.426 126.539C573.986 127.16 571.1 158.726 570.3 162.667L569.305 167.511C567.441 176.616 557.576 178.887 549.716 180.292C544.937 181.142 539.866 180.914 535.084 181.662C530.041 182.463 527.5 184.248 523.382 185.563L523.36 186.2L526.368 195.938C527.878 190.482 533.732 187.692 539.66 187.14C557.64 184.915 563.825 185.247 576.142 171.551C581.812 165.246 584.824 143.099 583.937 121.916C583.72 116.52 586.744 107.094 582.49 106.188C541.522 104.27 551.844 154.546 526.768 160.6C519.381 162.394 518.68 149.262 518.385 144.676C520.03 136.682 526.458 135.955 531.76 125.76C537.113 115.466 534.072 105.53 523.049 93.6655C516.322 86.4295 510.648 74.9348 515.286 56.3522C511.372 52.6508 502.253 56.3588 498.97 66.3722C491.046 97.1268 514.149 102.322 500.045 120.21C498.83 119.688 490 120.004 485.872 120.812C482.393 121.486 488.384 131.139 487.74 132.962Z" fill="#231F20"/>
          <path fillRule="evenodd" clipRule="evenodd" d="M413.817 128.999C407.797 128.947 399.405 140.229 395.996 142.266C379.6 152.061 386.36 158.455 388.245 164.271C394.529 183.807 388.896 191.826 384.92 195.805C381.23 199.514 383.468 205.291 380.201 207.071C348.081 192.335 364.973 184.593 348.164 165.774C337.108 153.381 328.052 158.113 318.97 167.33C316.934 172.918 329.661 178.763 333.937 182.227C344.21 190.567 351.076 196.491 363.137 201.713C369.185 204.334 375.081 206.987 379.612 210.303C383.501 213.135 384.234 214.123 385.249 217.554L380.892 220.305C379 217.205 375.972 214.549 370.941 212.815C335.093 205.197 335.572 188.83 317.404 178.809C309.173 174.275 307.1 170.098 319.522 159.125C331.864 148.223 343.918 145.67 356.27 158.63C364.836 167.614 366.92 188.813 379.226 186.758C382.784 175.425 381.566 163.235 371.752 157.655C368.21 155.639 363.909 154.154 358.956 148.95C350.953 140.554 351.12 130.166 358.406 115.706C362.86 106.886 366.445 90.0714 354.164 80.0674C363.834 75.554 372.012 79.0554 375.608 82.7234C386.402 93.6727 379.144 108.246 380.954 121.186C382.225 130.207 387.514 131.745 390.858 133.401C392.214 132.285 404.448 124.319 410.965 125.483C413.136 125.874 413.176 128.106 413.817 128.999Z" fill="#231F20"/>
          <path fillRule="evenodd" clipRule="evenodd" d="M492.109 158.294C487.889 157.53 482.399 157.948 476.189 160.81C471.86 162.807 468.444 165.636 467.053 169.642C466 172.691 468.073 175.232 470.689 174.307C474.379 172.987 476.132 165.818 491.097 160.671C494.22 159.596 498.365 159.427 492.109 158.294Z" fill="#231F20"/>
          <path fillRule="evenodd" clipRule="evenodd" d="M384.165 266.75C384.165 266.75 387.115 253.19 385.048 246.457C384.752 245.51 381.064 231.455 378.128 219.117C374.4 203.329 384.511 188.086 402.755 186.522C419.081 185.134 429.22 195.11 435.999 209.989C440.996 220.971 442.687 237.823 441.472 249.662C439.483 247.877 435.504 247.627 435.504 247.627C435.504 247.627 436.424 234.201 431.264 220.434C426.117 206.669 413.817 193.781 398.247 199.051C382.673 204.317 386.748 230.631 390.821 239.129C392.985 243.637 393.075 250.978 391.396 253.945C389.904 256.57 384.165 266.75 384.165 266.75Z" fill="#231F20"/>
          <path fillRule="evenodd" clipRule="evenodd" d="M533.91 242.328C529.614 252.361 529.098 222.92 530.421 218.648C530.708 217.703 531.944 205.076 529.438 192.807C526.177 176.909 512.925 165.936 495.365 171.133C482.601 174.901 476.38 184.188 474.01 196.293C467.908 202.843 467.108 228.937 476.022 245.836C476.525 244.864 485.676 245.287 482.457 242.039C476.802 236.355 473.764 217.044 473.764 217.044C473.764 217.044 487.717 230.107 482.601 220.403C476.077 208.063 483.174 177.576 503.312 179.785C519.652 181.58 526.62 198.737 525.642 216.86C525.309 223.093 523.912 229.633 525.056 233.016C527.274 239.485 533.91 242.328 533.91 242.328Z" fill="#231F20"/>
          <path fillRule="evenodd" clipRule="evenodd" d="M400.645 207.635C393.21 212.505 389.082 223.593 393.558 234.633C395.194 233.543 396.194 232.534 397.827 231.439C393.681 224.119 395.527 214.081 400.645 207.635Z" fill="#231F20"/>
          <path fillRule="evenodd" clipRule="evenodd" d="M428.306 208.085C438.267 217.221 439.259 228.52 438.385 247.961C434.958 247.22 431.23 246.812 427.323 246.812C423.971 246.812 420.754 247.11 417.745 247.662C411.825 243.93 407.851 237.152 407.851 229.41C407.851 217.633 417.017 208.085 428.306 208.085Z" fill="#231F20"/>
          <path fillRule="evenodd" clipRule="evenodd" d="M515.339 194.814C527.965 193.779 528.2 199.904 528.139 210.942C528.097 218.491 529.248 229.532 528.891 237.43C520.22 235.544 515.127 235.226 508.129 236.512C499.601 232.155 494.875 223.884 494.875 216.139C494.875 204.362 504.047 194.814 515.339 194.814Z" fill="#231F20"/>
          <path fillRule="evenodd" clipRule="evenodd" d="M403.24 222.031C403.24 221.925 403.088 218.846 405.54 215.961L423.772 226.586L403.24 222.031Z" fill="white"/>
          <path fillRule="evenodd" clipRule="evenodd" d="M491.966 213.914C491.39 209.351 491.806 210.433 493.622 208.21L510.307 216.305L491.966 213.914Z" fill="white"/>
          <path fillRule="evenodd" clipRule="evenodd" d="M459.799 250.432C468.734 243.885 482.703 236.535 497.463 234.356C521.255 230.836 546.157 238.561 548.295 268.405C550.147 294.201 530.666 312.485 510.059 311.625C497.267 311.088 485.262 305.404 473.458 307.736C462.681 309.851 454.145 313.531 443.97 318.412C444.325 318.613 436.355 320.801 448.023 312.068C457.163 308.539 464.37 299.488 477.238 301.44C496.307 304.332 539.51 310.203 540.338 270.981C538.814 246.209 519.07 239.348 499.475 241.575C484.238 243.308 468.375 249.943 459.451 256.415C445.503 251.199 431.359 247.043 417.674 248.543C393.805 251.168 383.517 271.623 387.673 293.341C390.534 308.313 403.127 319.943 413.765 319.143C414.001 319.275 414.239 319.411 414.483 319.531C416.119 320.353 417.967 321 419.946 321.452C404.621 330.099 383.901 318.209 378.345 294.831C373.666 275.097 386.603 246.285 413.923 243.244C429.585 241.505 443.827 244.412 459.799 250.432Z" fill="#231F20"/>
          <path fillRule="evenodd" clipRule="evenodd" d="M447.645 310.912C447.645 310.912 436.879 315.213 429.131 309.765C421.383 304.31 418.055 298.044 407.785 300.306C397.513 302.557 401.409 313.916 409.205 317.153C416.996 320.393 436.209 319.352 447.645 310.912ZM458.435 306.812C458.435 306.812 444.02 312.421 435.387 307.537C427.703 303.196 424.075 292.645 410.013 293.245C389.864 294.105 390.185 316.021 406.377 321.522C418.972 325.809 443.62 323.201 458.435 306.812Z" fill="#231F20"/>
          <path fillRule="evenodd" clipRule="evenodd" d="M429.3 318.896C446.863 322.755 460.136 316.932 469.197 318.683C484.647 321.674 512.757 306.687 508.905 310.539C503.557 315.922 492.253 325.227 466.532 325.054C450.661 324.951 435.76 327.734 429.3 318.896Z" fill="#231F20"/>
          <path fillRule="evenodd" clipRule="evenodd" d="M409.835 321.26C415.717 329.051 420.009 319.512 425.255 328.099C441.006 358.469 452.769 364.828 468.507 364.351C484.25 363.876 497.13 356.716 503.005 337.48C508.899 318.241 513.666 303.451 520.979 302.337C527.482 301.349 508.358 305.379 507.967 305.727C505.669 307.823 508.434 309.317 506.351 314.743C501.586 327.148 490.605 351.155 470.097 352.905C449.586 354.653 434.49 339.389 428.127 322.22C426.846 317.764 422.085 318.876 422.085 318.876L409.835 321.26Z" fill="#231F20"/>
          <path fillRule="evenodd" clipRule="evenodd" d="M507.784 312.045C499.193 321.109 492.357 329.696 468.824 331.603C445.296 333.509 437.661 324.767 429.709 321.268C421.762 317.769 424.781 321.745 424.781 321.745C424.781 321.745 429.709 324.608 441.788 332.08C453.881 339.548 474.868 342.576 492.04 331.444C509.214 320.311 508.738 314.587 508.738 314.587L507.784 312.045Z" fill="#231F20"/>
          <path fillRule="evenodd" clipRule="evenodd" d="M521.831 263.328C521.215 260.879 507.869 259.3 499.653 263.03C491.431 266.748 489.012 271.936 491.276 277.352C493.317 281.643 499.401 280.412 503.897 278.215C509.503 275.354 513.056 267.732 513.056 267.732C513.573 265.398 523.48 266.299 521.831 263.328Z" fill="#231F20"/>
          <path fillRule="evenodd" clipRule="evenodd" d="M447.769 472.333C452.949 466.085 450.939 462.804 449.129 456.164C444.986 440.912 429.771 424.496 434.398 427.421C447.809 436.208 456.298 454.064 456.691 455.273C457.095 456.482 457.631 456.71 458.351 456.889C465.699 451.694 479.909 441.136 470.275 426.617C460.657 412.105 440.075 424.23 434.343 425.538C428.625 426.841 423.545 424.633 416.774 426.321C428.107 430.917 446.933 460.248 447.769 472.333ZM485.382 413.993L488.631 419.148C489.971 421.272 489.293 424.144 487.107 425.522L480.553 429.666C481.731 438.722 476.802 447.885 470.851 454.028C461.43 463.713 456.885 465.298 452.466 477.52C449.703 485.152 447.259 486.721 445.131 487.946C445.049 488.012 444.959 488.078 444.862 488.144C444.705 488.237 444.543 488.322 444.379 488.392C444.273 488.449 444.183 488.504 444.089 488.564C444.089 488.564 444.046 488.54 443.97 488.509C438.621 489.808 426.561 478.358 416.071 461.764C412.057 455.418 408.831 449.19 406.566 443.67C405.753 442.952 405.094 442.012 404.709 440.912C404.318 439.833 404.231 438.722 404.383 437.67C403.122 433.565 402.587 430.133 402.901 427.726C403.003 425.932 403.462 424.349 404.507 423.29C408.826 418.886 427.478 421.942 430.934 420.802C433.949 419.805 459.135 406.393 472.946 416.432L478.961 412.629C481.139 411.249 484.031 411.862 485.382 413.993ZM482.21 418.13C482.623 418.794 483.043 419.45 483.467 420.114C483.981 420.933 483.698 422.014 482.841 422.557C481.985 423.098 480.094 424.245 479.27 424.78C478.961 424.013 478.611 423.248 478.195 422.492C477.629 421.457 476.997 420.52 476.326 419.677C477.031 419.21 478.921 418.093 479.713 417.586C480.558 417.049 481.691 417.305 482.21 418.13ZM416.99 436.534C417.002 436.592 417.017 436.641 417.037 436.69C417.306 437.004 417.83 437.061 418.21 436.846L419.917 435.925L419.951 435.902C419.739 435.673 419.239 434.473 419.034 434.248L416.761 434.75C416.321 434.838 416.873 435.813 416.858 436.225C416.907 436.328 416.947 436.43 416.99 436.534ZM414.11 436.377C413.141 434.85 411.05 434.43 409.447 435.452C408.61 435.977 408.067 436.788 407.874 437.661C408.162 437.253 408.545 436.889 408.987 436.606C410.758 435.488 413.041 435.952 414.11 437.625C414.311 437.952 414.455 438.296 414.538 438.653C414.682 437.88 414.55 437.078 414.11 436.377ZM418.169 438.972C417.881 442.854 415.683 443.901 413.066 444.974C409.309 446.522 435.903 487.885 441.891 484.098C445.365 481.906 442.306 470.634 435.062 457.51C431.022 450.185 427.581 444.516 422.085 438.208L418.169 438.972ZM415.219 436.664C416.047 438.972 414.875 441.497 412.609 442.3C410.347 443.101 407.846 441.888 407.023 439.582C406.207 437.28 407.377 434.758 409.639 433.948C411.899 433.142 414.401 434.361 415.219 436.664ZM440.966 474.097C445.739 491.585 428.95 473.476 427.311 468.434C430.442 470.904 439.095 482.446 440.966 474.097Z" fill="#231F20"/>
          <path fillRule="evenodd" clipRule="evenodd" d="M547.003 209.74C568.443 224.953 572.22 273.559 567.045 320.767C562.44 362.803 528.476 412.913 505.012 424.727C499.872 427.32 492.449 425.689 487.108 423.752C481.347 421.667 480.444 432.759 480.444 432.759C480.444 432.759 506.375 447.297 524.716 436.18C582.007 401.451 603.499 294.091 564.4 219.567C552.648 204.98 547.003 209.74 547.003 209.74ZM503.54 432.028C511.273 430.188 516.081 427.055 529.172 413.525C542.276 399.993 556.225 377.944 564.757 354.856C572.876 332.889 575.947 287.289 574.636 279.096C584.635 318.679 571.099 360.068 557.8 386.292C549.176 403.285 527.648 438.293 503.54 432.028Z" fill="#231F20"/>
          <path fillRule="evenodd" clipRule="evenodd" d="M484.199 375.272C476.048 385.967 470.198 408.632 474.268 416.771C478.342 424.921 471.463 417.284 471.463 417.284C471.463 417.284 463.066 415.247 463.066 413.716C463.066 405.272 453.23 378.604 472.398 358.92C473.426 357.861 475.464 361.379 478.087 362.289C478.087 362.289 467.798 376.12 466.627 383.675C464.339 398.44 468.668 407.352 469.18 406.331C470.416 385.009 482.974 364.549 483.18 366.363L484.199 375.272Z" fill="#231F20"/>
          <path fillRule="evenodd" clipRule="evenodd" d="M533.127 202.814C544.306 207.284 563.095 214.446 577.406 206.394C591.722 198.338 613.635 178.659 624.377 169.27C625.813 168.008 627.366 166.827 629.01 165.746C630.671 168.075 632.293 170.44 633.857 172.838C628.802 174.244 624.87 176.458 622.133 179.556C615.423 187.158 591.722 216.234 575.618 218.47C559.525 220.71 540.286 222.498 533.127 202.814Z" fill="#231F20"/>
          <path fillRule="evenodd" clipRule="evenodd" d="M476.551 361.694C477.028 362.52 469.419 365.205 469.419 368.95C469.419 373.464 477.009 379.176 477.545 380.289C478.313 381.888 481.135 370.761 481.841 372.446C486.929 384.496 490.661 398.538 492.777 408.721C495.583 422.157 513.504 456.868 523.015 461.909C523.291 462.054 523.549 462.201 523.791 462.352C527.299 461.39 530.753 460.326 534.18 459.18C519.208 446.721 503.179 425.889 496.14 396.405C487.183 358.894 483.819 361.694 476.551 361.694Z" fill="#231F20"/>
          <path fillRule="evenodd" clipRule="evenodd" d="M475.517 383.659L468.772 374.953L466.822 379.309L473.782 388.664L475.517 383.659Z" fill="#231F20"/>
          <path fillRule="evenodd" clipRule="evenodd" d="M414.144 436.275C413.175 434.745 411.091 434.332 409.476 435.347C408.639 435.869 408.095 436.687 407.908 437.557C408.204 437.155 408.575 436.787 409.022 436.503C410.792 435.384 413.075 435.847 414.144 437.525C414.346 437.853 414.483 438.192 414.572 438.555C414.711 437.781 414.579 436.972 414.144 436.275Z" fill="#FFCB04"/>
          <path fillRule="evenodd" clipRule="evenodd" d="M482.243 418.028C482.658 418.689 483.077 419.35 483.497 420.014C484.014 420.83 483.726 421.914 482.887 422.445C482.019 422.998 480.127 424.145 479.306 424.674C479.006 423.9 478.645 423.145 478.23 422.389C477.663 421.36 477.031 420.425 476.358 419.577C477.065 419.11 478.954 417.982 479.742 417.478C480.587 416.949 481.725 417.205 482.243 418.028ZM417.017 436.432C417.037 436.484 417.057 436.542 417.065 436.59C417.335 436.897 417.858 436.946 418.246 436.742L419.951 435.82L419.994 435.802C419.785 435.574 419.273 434.372 419.069 434.144L416.795 434.646C416.354 434.744 416.907 435.714 416.898 436.118C416.941 436.225 416.982 436.329 417.017 436.432ZM415.247 436.561C416.071 438.868 414.909 441.386 412.643 442.193C410.382 443.001 407.881 441.781 407.058 439.482C406.239 437.176 407.411 434.653 409.669 433.848C411.934 433.044 414.434 434.258 415.247 436.561ZM447.802 472.234C452.983 465.986 450.967 462.702 449.166 456.061C445.021 440.808 429.806 424.386 434.431 427.322C447.846 436.108 456.327 453.966 456.726 455.173C457.126 456.376 457.673 456.61 458.385 456.782C465.739 451.594 479.949 441.034 470.31 426.517C460.687 412.004 440.115 424.128 434.382 425.433C428.659 426.746 423.579 424.525 416.81 426.216C428.147 430.809 446.961 460.141 447.802 472.234Z" fill="#FEDC00"/>
          <path fillRule="evenodd" clipRule="evenodd" d="M418.198 438.864C417.916 442.746 415.716 443.797 413.107 444.879C409.331 446.42 435.932 487.783 441.927 483.997C445.399 481.803 442.34 470.531 435.102 457.407C431.058 450.083 427.618 444.413 422.108 438.112L418.198 438.864Z" fill="#FEDC00"/>
          <path fillRule="evenodd" clipRule="evenodd" d="M503.631 432.071C511.366 430.234 516.178 427.098 529.275 413.568C542.374 400.044 556.327 377.99 564.855 354.899C572.974 332.938 576.038 287.338 574.733 279.142C584.731 318.722 571.197 360.111 557.903 386.339C549.273 403.334 527.753 438.335 503.631 432.071Z" fill="#FEDC00"/>
          <path fillRule="evenodd" clipRule="evenodd" d="M447.55 310.913C447.55 310.913 436.795 315.217 429.042 309.767C421.291 304.312 417.97 298.045 407.693 300.305C397.418 302.564 401.317 313.917 409.107 317.152C416.907 320.395 436.114 319.353 447.55 310.913Z" fill="#F7AAAC"/>
          <path fillRule="evenodd" clipRule="evenodd" d="M511.975 207.811C507.325 207.811 503.541 211.585 503.541 216.24C503.541 220.893 507.325 224.672 511.975 224.672C516.626 224.672 520.398 220.893 520.398 216.24C520.398 211.585 516.626 207.811 511.975 207.811Z" fill="#231F20"/>
          <path fillRule="evenodd" clipRule="evenodd" d="M425.227 219.943C421.636 219.943 418.71 222.864 418.71 226.47C418.71 230.068 421.636 232.992 425.227 232.992C428.826 232.992 431.755 230.068 431.755 226.47C431.755 222.864 428.826 219.943 425.227 219.943Z" fill="#231F20"/>
          <path fillRule="evenodd" clipRule="evenodd" d="M564.084 380.898C600.45 369.741 595.626 406.884 603.918 417.516C610.651 411.23 616.923 404.466 622.69 397.281C622.53 393.774 622.042 390.106 621.323 386.438C617.544 367.217 611.198 355.406 593.983 346.702C586.922 343.137 580.419 340.59 580.764 340.59C580.764 340.59 573.288 366.508 564.084 380.898Z" fill="#231F20"/>
          <path fillRule="evenodd" clipRule="evenodd" d="M534.179 323.308C529.005 329.07 528.999 342.892 533.037 352.675C537.061 362.468 552.201 372.703 552.201 372.703L568.114 333.671C573.438 320.606 547.405 302.928 534.179 323.308Z" fill="#231F20"/>
          <path fillRule="evenodd" clipRule="evenodd" d="M619.022 197.073C633.633 188.437 634.839 232.117 633.891 248.447C633.041 262.928 652.198 272.343 664.606 286.34C663.973 299.803 661.966 312.897 658.718 325.5C658.367 324.659 658.017 323.781 657.661 322.871C655.257 316.707 651.479 311.107 645.546 308.941C629.722 303.181 592.655 294.531 595.051 272.932C597.449 251.321 598.398 242.2 595.051 235.964C586.606 220.259 605.793 204.904 619.022 197.073Z" fill="#231F20"/>
          <path fillRule="evenodd" clipRule="evenodd" d="M436.838 320.024C449.792 316.364 461.006 307.302 475.836 307.01C490.673 306.722 498.549 310.586 505.116 310.976C500.556 313.432 480.673 320.612 470.857 319.754C460.593 318.854 451.5 321.602 436.838 320.024Z" fill="#808184"/>
          <path fillRule="evenodd" clipRule="evenodd" d="M411.442 278.497C411.375 275.97 423.786 270.83 432.712 272.178C441.627 273.523 445.374 277.855 444.66 283.679C439.523 290.95 426.456 286.491 423.39 280.733C422.263 278.623 410.663 281.801 411.442 278.497Z" fill="#231F20"/>
          <path fillRule="evenodd" clipRule="evenodd" d="M430.968 104.92C427.708 103.678 425.537 101.358 421.173 100.085C417.796 99.1131 412.692 98.1171 408.333 98.6064L407.295 98.7264C406.497 98.8131 405.684 99.8171 405.773 100.598L406.077 103.289C406.811 109.89 411.103 116.805 415.4 121.792C408.067 122.62 395.193 130.414 395.768 135.472C396.203 139.312 411.701 144.242 417.913 143.546L420.705 143.382L428.452 141.336C428.516 143.512 427.141 145.198 427.496 148.257L427.644 149.606C427.756 150.641 428.805 150.84 429.856 150.718L431.575 150.526C435.263 150.113 440.288 146.274 441.636 143.946C443.416 140.866 444.267 139.329 444.341 136.264C444.861 136.224 445.124 135.808 445.669 135.741C445.9 135.718 446.083 135.652 446.263 135.572C448.561 143.5 454.573 147.942 463.548 146.933C464.601 146.812 465.572 146.386 465.455 145.354L465.152 142.656C464.985 141.209 463.04 138.892 462.488 137.506C465.129 137.208 467.044 138.018 469.476 137.742L473.26 137.313C479.633 136.601 493.829 128.361 493.392 124.489C492.828 119.454 479.041 114.364 471.659 115.197C475.585 107.786 476.859 101.286 475.896 92.7077C475.821 92.0091 474.696 91.1384 474.324 91.1811C462.051 92.5611 458.848 97.0717 452.285 102.522C451.691 97.2411 450.212 93.2171 447.955 89.8304C446.828 88.1277 441.145 81.6251 439.509 81.8037C436.796 82.1157 433.388 88.8611 432.549 91.1091C430.96 95.3717 430.289 98.8864 430.968 104.92Z" fill="#FEDC00"/>
          <path fillRule="evenodd" clipRule="evenodd" d="M444.103 135.371C444.341 139.401 443.724 141.397 441.161 145.913C439.361 149.113 433.607 152.979 429.933 153.399L428.128 153.601C426.659 153.761 425.028 153.358 424.841 151.634L424.675 150.185C424.369 147.467 425.16 146.221 425.58 143.791L418.5 145.689L415.495 145.855C412.011 146.238 407.072 145.094 403.743 144.095C400.719 143.197 391.643 140.121 391.215 136.351C390.685 131.614 398.384 126.542 401.892 124.607C404.576 123.123 407.949 121.629 411.111 120.979C406.796 115.593 402.755 108.554 402 101.77L401.671 98.8699C401.519 97.5579 402.72 96.0539 404.033 95.9113L405.117 95.7873C409.545 95.2873 414.76 96.1753 418.996 97.4406C422.34 98.4406 424.373 100.005 427.299 101.663C427.549 101.81 427.823 101.951 428.081 102.091C427.667 97.1153 428.116 93.2753 429.909 88.3459C430.951 85.4726 434.591 78.1699 437.935 77.7899C440.316 77.5259 446.38 84.8606 447.665 86.8286C450.165 90.6499 451.52 94.8179 452.184 99.2686C454.151 97.5353 456.063 95.7299 458.135 94.1339C463.212 90.2099 468.3 88.6806 474.639 87.9646C475.712 87.8419 477.132 89.3646 477.243 90.3713C478.231 99.0939 477.14 106.002 473.424 113.686C476.603 113.622 480.144 114.373 483.043 115.273C486.895 116.471 495.232 119.881 495.767 124.587C496.187 128.407 487.815 133.459 485.025 135.009C481.945 136.725 477.353 138.89 473.817 139.289L469.836 139.735C467.743 139.974 465.773 139.439 463.724 139.41C464.601 140.902 465.877 142.481 466.057 144.067L466.38 146.962C466.575 148.678 465.084 149.434 463.605 149.603C452.9 150.809 446.285 144.809 444.103 135.371ZM450.491 122.883C455.447 118.03 462.436 114.77 468.969 113.91C471.711 106.755 471.587 102.69 470.781 95.3073C458.261 97.2126 446.793 109.946 446.015 122.735C448.153 117.429 454.024 112.711 458.715 111.043L460.904 110.271L459.744 112.286C459.184 113.269 456.697 115.549 455.815 116.431C454.751 117.507 453.481 118.703 452.535 119.885C451.811 120.801 451.132 121.865 450.491 122.883ZM445.98 128.837L445.428 129.302L445.247 127.703C445.236 127.629 445.233 127.546 445.233 127.474L444.135 127.594L444.04 126.735C443.453 121.542 443.444 117.279 444.841 112.203C445.373 110.29 446.348 108.457 447.148 106.639C447.797 105.145 449.143 103.431 450.043 101.942C449.269 96.8566 443.005 89.3219 438.517 86.7113C436.193 88.5833 433.88 92.7913 432.784 95.3073C431.669 97.8566 430.517 101.355 430.761 104.193C431.229 104.765 432.135 105.602 432.624 106.087C433.301 106.758 434.136 107.517 434.74 108.235C436.111 109.847 437.1 111.51 438.12 113.365C440.817 118.331 441.533 121.666 442.175 127.318L442.267 128.178L441.179 128.299L441.345 129.767L440.007 129.071L441.071 130.337L438.819 129.995C438.16 129.899 434.268 127.867 433.465 127.487C432.077 126.835 430.463 126.025 429.019 125.55C425.711 124.466 420.975 123.969 417.501 124.363C415.219 124.61 412.937 125.185 410.772 125.958C406.333 127.531 400 130.998 397.436 135.274C400.299 138.154 406.575 139.893 410.292 140.506C412.992 140.951 415.892 141.141 418.624 140.83L422.243 140.427C424.833 140.137 429.22 138.197 431.575 136.986C432.624 136.437 433.751 135.561 434.683 134.813C435.668 134.039 437.928 132.025 438.992 131.602L440.529 131.005L440.144 132.602C439.483 135.345 432.727 140.746 429.433 141.957C429.399 142.334 429.352 142.71 429.289 143.087C429.019 144.614 428.82 145.537 428.999 147.131L429.108 148.089L429.703 148.023C431.721 147.793 437.045 143.533 438.057 141.79C439.055 140.059 439.823 138.927 440.524 137.021C441.016 135.653 441.367 132.269 442.349 131.37L443.356 130.443L443.212 129.205L445.02 131.266C446.201 132.614 446.852 135.141 448.016 136.725C449.004 138.062 450.441 139.733 451.759 140.753C454.053 142.541 458.261 144.421 461.459 144.685L461.283 143.133C461.079 141.339 460.509 139.785 459.04 138.662C457.643 137.59 455.617 137.021 453.984 136.406C451.707 135.546 449.752 134.522 448.148 132.627L446.669 130.878L448.929 131.223C450.575 131.467 453.293 132.815 454.944 133.445C455.939 133.818 456.963 134.175 457.997 134.405C462.001 135.285 464.4 135.681 468.591 135.21L470.048 135.054C472.852 134.733 475.739 133.839 478.343 132.741C481.697 131.338 487.355 128.25 489.464 124.923C486.509 121.882 480.541 119.885 476.623 119.131C473.889 118.594 470.965 118.343 468.197 118.657C463.056 119.229 460.089 120.342 455.683 122.809C454.404 123.535 452.955 124.829 451.856 125.815C451.132 126.477 447.639 129.926 446.975 130.182L444.848 131.013L445.911 128.986L445.98 128.837ZM439.465 124.261C435.988 111.607 421.347 101.539 408.437 102.485C409.255 109.558 410.209 114.285 414.915 119.99C421.265 119.383 429.019 120.878 434.805 124.515C433.949 123.642 433.047 122.739 432.112 122.003C430.551 120.761 424.06 117.343 423.473 116.149L422.763 114.727L424.336 114.913C427.251 115.253 431.787 116.898 434.073 118.717C435.456 119.81 436.839 120.93 437.948 122.305C438.475 122.954 438.957 123.607 439.465 124.261Z" fill="#231F20"/>
          <path fillRule="evenodd" clipRule="evenodd" d="M404.867 172.526C408.334 170.701 413.175 169.677 419.178 170.845C423.37 171.658 426.966 173.513 429.082 177.029C430.69 179.702 429.487 182.689 427.03 182.465C423.537 182.149 420.374 175.671 406.297 174.555C403.349 174.326 399.739 175.234 404.867 172.526Z" fill="#231F20"/>
          <path fillRule="evenodd" clipRule="evenodd" d="M467.803 380.198L473.115 387.327C471.27 393.126 469.802 399.628 469.418 406.218C468.915 407.238 464.578 398.332 466.871 383.563C467.035 382.536 467.355 381.399 467.803 380.198ZM474.846 382.364L469.767 375.808C470.247 374.87 470.753 373.93 471.278 373.007C472.757 375.18 474.93 377.236 476.353 378.619C475.85 379.807 475.338 381.059 474.846 382.364Z" fill="#FFCB04"/>
          <defs>
              <linearGradient id="paint0_linear_16829_7503" x1="624.733" y1="481.859" x2="320.974" y2="72.4423" gradientUnits="userSpaceOnUse">
              <stop stopColor="#04522C"/>
              <stop offset="0.00360417" stopColor="#04522C"/>
              <stop offset="0.3" stopColor="#056936"/>
              <stop offset="0.304633" stopColor="#056936"/>
              <stop offset="0.63" stopColor="#3B9143"/>
              <stop offset="0.633344" stopColor="#3B9143"/>
              <stop offset="1" stopColor="#A4CD39"/>
              </linearGradient>
            </defs>
        </svg>