<svg width="1324" height="440" viewBox="0 0 1324 440" fill="none" xmlns="http://www.w3.org/2000/svg">
<path fill-rule="evenodd" clip-rule="evenodd" d="M1177.09 141.132C1164.68 168.974 1152.08 194.34 1144.06 222.829C1137.97 244.472 1143.09 262.816 1157.33 267.59C1157.43 231.31 1172.67 199.238 1190.74 159.437C1194.11 152.018 1184.56 142.417 1177.09 141.132ZM1034.96 144.304C1021.89 171.528 1004.78 205.772 999.212 235.049C996.538 249.102 1004.91 259.725 1014.5 264.393C1015.32 252.36 1018.62 241.97 1023.48 233.32C1027.51 244.77 1036.51 261.786 1048.63 264.744C1055.21 266.348 1060.99 263.114 1063.63 258.144C1063.63 258.144 1045.77 247.828 1037.33 216.214C1046.81 207.94 1057.93 203.304 1068.05 202.564C1067.06 193.833 1061.12 190.033 1055.84 189.949C1045.79 189.812 1032.45 203.013 1022.11 218.993C1028.38 197.162 1048.5 167.104 1047.5 156.906C1046.94 152.628 1041.89 146.306 1034.96 144.304ZM977.869 195.324C955.122 203.657 938.886 236.368 950.932 239.857C957.969 241.889 972.654 213.357 977.869 195.324ZM982.405 193.296C991.138 189.056 990.586 189.276 984.55 184.928C977.954 180.105 964.886 183.742 954.658 190.665C941.876 199.325 921.188 221.961 923.494 237.389C925.512 250.804 935.925 259.533 944.462 258.865C952.001 258.27 959.193 251.574 966.662 239.414C966.95 249.004 973.366 264.206 982.969 265.16C983.417 249.082 986.561 232.405 990.932 215.837C994.198 203.47 987.568 199.226 982.405 193.296ZM868.596 182.722C861.364 198.482 854.285 213.82 851.497 228.282C849.23 240.024 851.226 249.206 860.273 256.289C870.465 264.705 882.988 256.324 894.297 235.792C880.749 278.138 859.166 287.102 851.246 286.728C851.238 291.228 857.194 300.228 864.612 299.454C885.489 297.268 899.817 268.146 907.561 249.634C917.968 224.724 926.352 193.681 904.328 188.221C900.409 205.046 887.17 237.746 870.052 246.429C870.5 232.341 876.612 221.15 881.061 206.942C884.617 195.59 878.808 185.758 868.596 182.722ZM697.578 213.638C707.137 202.742 694.754 186.808 680.714 186.808C667.317 186.808 656.33 198.01 656.91 209.985C657.318 218.444 662.821 224.896 667.544 230.241C678.566 242.706 677.606 246.8 673.866 249.477C670.122 252.15 662.953 250.42 650.81 233.753C643.786 237.925 643.256 244.549 647.548 251.708C649.346 254.728 651.606 257.502 653.29 259.072C660.784 266.061 669.68 266.15 677.206 263.716C687.249 260.466 693.45 251.614 691.986 242.558C690.813 235.302 685.268 228.389 681.481 221.009C671.946 202.449 690.164 202.818 697.578 213.638ZM612.152 144.304C599.077 171.528 581.973 205.772 576.392 235.049C573.718 249.102 582.098 259.725 591.681 264.393C592.502 252.36 595.812 241.97 600.658 233.32C604.693 244.77 613.678 261.786 625.813 264.744C632.389 266.348 638.166 263.114 640.805 258.144C640.805 258.144 622.953 247.828 614.506 216.214C623.99 207.94 635.113 203.304 645.238 202.564C644.25 193.833 638.3 190.033 633.034 189.949C622.981 189.812 609.625 203.013 599.302 218.993C605.572 197.162 625.688 167.104 624.681 156.906C624.12 152.628 619.081 146.306 612.152 144.304ZM830.292 195.324C807.552 203.657 791.301 236.368 803.354 239.857C810.393 241.889 825.077 213.357 830.292 195.324ZM834.822 193.296C843.545 189.056 843.006 189.276 836.97 184.928C830.364 180.105 817.309 183.742 807.081 190.665C794.293 199.325 773.602 221.961 775.917 237.389C777.929 250.804 788.34 259.533 796.884 258.865C804.418 258.27 811.605 251.574 819.077 239.414C819.368 249.004 825.79 264.206 835.392 265.16C835.837 249.082 838.98 232.405 843.352 215.837C846.613 203.47 839.982 199.226 834.822 193.296ZM519.094 219.908C529.354 205.692 539.75 189.47 551.358 176.364C550.476 188.842 549.516 205.332 548.098 220.144C538.085 219.726 528.574 219.669 519.094 219.908ZM552.008 145.956C532.013 169.688 512.2 195.102 495.4 220.974C492.622 221.15 489.79 221.317 486.933 221.556C480.005 222.149 482.664 225.762 487.52 233.9C484.058 239.837 481.234 245.022 478.228 250.968C475.296 256.774 479.142 263.534 490.598 264.408C496.512 254.685 502.989 244.996 509.129 235.426C521.561 235.394 533.865 235.728 546.729 235.302C546.102 242.622 545.35 249.08 545.254 254.645C545.182 259.56 552.456 264.868 562.608 265.16C566.266 243.296 572.416 207.85 574.472 176.978C575.176 166.546 574.594 160.434 569.498 155.164C565.736 151.277 559.453 146.941 552.008 145.956ZM739.257 138.528C727.02 164.194 713.786 191.98 705.978 219.745C700.05 240.834 705.826 252.936 719.846 259.005C720.62 240.716 729.624 216.1 743.201 203.692C749.408 198.01 753.137 202.088 751.142 211.729C749.058 221.742 739.521 235.332 740.292 244.729C741.08 254.352 746.64 260.897 759.002 265.16C757.938 255.637 761.065 240.469 768.713 223.937C774.34 211.768 776.569 198.826 767.574 189.173C755.998 176.725 741.828 188.112 729.236 206.713C734.609 188.348 747.232 171.07 752.752 154.434C755.268 146.844 746.545 139.786 739.257 138.528ZM1309.65 201.769C1286.91 210.097 1270.68 242.809 1282.72 246.296C1289.75 248.334 1304.45 219.802 1309.65 201.769ZM1314.19 199.736C1322.91 195.504 1322.38 195.714 1316.34 191.368C1309.73 186.544 1296.68 190.18 1286.45 197.104C1273.66 205.764 1252.97 228.401 1255.28 243.833C1257.29 257.244 1267.7 265.972 1276.25 265.305C1283.79 264.713 1290.97 258.017 1298.44 245.86C1298.74 255.444 1305.16 270.644 1314.77 271.604C1315.2 255.525 1318.34 238.845 1322.72 222.277C1325.98 209.909 1319.35 205.669 1314.19 199.736ZM1121.97 200.621C1099.23 208.954 1082.99 241.665 1095.03 245.153C1102.07 247.188 1116.76 218.656 1121.97 200.621ZM1126.5 198.586C1135.23 194.354 1134.69 194.569 1128.64 190.225C1122.05 185.396 1108.99 189.036 1098.76 195.964C1085.97 204.613 1065.28 227.253 1067.59 242.682C1069.61 256.102 1080.02 264.822 1088.57 264.156C1096.11 263.565 1103.29 256.868 1110.76 244.713C1111.05 254.297 1117.47 269.501 1127.08 270.456C1127.52 254.382 1130.66 237.696 1135.04 221.136C1138.3 208.769 1131.66 204.52 1126.5 198.586ZM1193.95 185.16C1190.88 202.654 1153.38 288.938 1187.04 301.461C1188.39 287.916 1190.44 273.624 1193.36 261.588C1208.21 263.47 1220.97 257.52 1230.72 248.937C1243.72 237.498 1257.46 218.432 1247.64 199.468C1239.6 183.953 1222.47 182.578 1204.69 212.678C1208.41 201.566 1213.28 189.09 1193.95 185.16ZM1195.97 250.037C1197.6 241.99 1207.48 219.108 1218.07 209.604C1228.03 200.676 1230.22 210.449 1227.51 219.052C1223.16 232.912 1210.08 245.388 1195.97 250.037Z" fill="black"/>
<path fill-rule="evenodd" clip-rule="evenodd" d="M216.438 7.16295C335.721 7.16295 432.465 103.904 432.465 223.19C432.465 342.472 335.721 439.211 216.438 439.211C97.1554 439.211 0.416748 342.472 0.416748 223.19C0.416748 103.904 97.1554 7.16295 216.438 7.16295Z" fill="#FEDC00"/>
<path d="M24.6235 223.18C24.6235 329.104 110.514 415 216.433 415C322.353 415 408.253 329.104 408.253 223.18C408.253 117.265 322.353 31.368 216.433 31.368C110.514 31.368 24.6235 117.265 24.6235 223.18Z" fill="url(#paint0_linear_16832_8435)"/>
<path fill-rule="evenodd" clip-rule="evenodd" d="M271.054 135.318C279.046 122.645 300.786 137.112 316.357 115.958C324.469 107.29 325.285 86.2078 324.158 71.1638C319.231 67.6611 314.126 64.3998 308.859 61.3865C292.743 79.1318 279.443 124.492 267.983 113.877C260.463 115.649 254.691 92.1758 254.398 87.1264C249.999 75.8691 234.198 66.0691 226.839 69.3318C211.367 65.3238 212.149 46.9398 195.877 60.7158C203.829 77.8184 186.218 79.2824 176.585 62.7344C171.279 60.2131 167.302 65.1091 164.269 68.7318C160.203 73.5958 160.914 74.3251 149.946 75.0731C144.711 73.7051 139.298 79.5718 136.922 79.8624C106.018 83.6118 139.401 155.292 122.745 143.401C115.835 142.082 106.189 122.697 102.715 107.861C89.2954 99.6731 81.5328 93.9891 69.4474 102.622C58.7474 117.198 59.5874 121.737 68.3781 124.612C87.7861 130.968 90.3674 158.004 126.93 157.644C128.577 179.814 141.521 209.601 131.371 214.974C123.621 219.065 128.83 243.7 130.506 248.764C132.846 255.834 143.083 269.001 156.543 265.585C157.814 266.057 168.399 262.581 169.643 265.142C175.802 277.709 184.734 296.861 203.303 304.341C212.549 308.061 224.895 309.548 228.605 319.522C231.49 327.265 244.245 378.666 268.45 407.844C276.199 405.668 283.755 403.026 291.081 399.925C324.503 385.802 353.079 362.45 373.657 333.089C395.461 301.966 408.258 264.07 408.258 223.188C408.258 184.636 396.874 148.737 377.291 118.673C376.567 117.554 375.807 116.441 375.061 115.341C365.826 120.754 355.223 127.229 350.974 131.426C320.353 161.594 292.206 163.112 276.345 148.085C273.819 145.693 270.969 141.234 271.054 135.318Z" fill="white"/>
<path fill-rule="evenodd" clip-rule="evenodd" d="M231.174 78.7974C245.963 76.6241 253.167 85.5014 252.713 90.3534C251.725 100.643 257.629 118.959 265.869 125.899C280.674 118.933 291.678 115.109 293.795 112.521C282.554 111.936 283.221 105.617 286.975 102.047C292.65 97.4294 303.206 71.2828 311.861 72.3748C317.421 72.9961 314.534 104.561 313.734 108.503L312.739 113.347C310.875 122.452 301.01 124.723 293.15 126.128C288.371 126.977 283.301 126.749 278.518 127.497C273.475 128.299 270.934 130.084 266.817 131.399L266.794 132.036L269.802 141.773C271.313 136.317 277.166 133.528 283.094 132.976C301.074 130.751 307.259 131.083 319.577 117.387C325.246 111.081 328.258 88.9348 327.371 67.7521C327.154 62.3561 330.178 52.9294 325.925 52.0241C284.957 50.1054 295.278 100.381 270.202 106.436C262.815 108.229 262.114 95.0974 261.819 90.5121C263.465 82.5174 269.893 81.7908 275.194 71.5961C280.547 61.3014 277.506 51.3654 266.483 39.5015C259.757 32.2655 254.082 20.7708 258.721 2.18812C254.806 -1.51321 245.687 2.19478 242.405 12.2081C234.481 42.9628 257.583 48.1574 243.479 66.0454C242.265 65.5241 233.434 65.8401 229.306 66.6481C225.827 67.3214 231.818 76.9748 231.174 78.7974Z" fill="#231F20"/>
<path fill-rule="evenodd" clip-rule="evenodd" d="M157.251 74.8353C151.231 74.7833 142.839 86.0646 139.43 88.102C123.034 97.8966 129.794 104.291 131.679 110.107C137.963 129.643 132.33 137.662 128.354 141.641C124.665 145.35 126.902 151.127 123.635 152.907C91.5153 138.171 108.407 130.429 91.598 111.61C80.542 99.2166 71.486 103.949 62.4047 113.166C60.3687 118.754 73.0954 124.599 77.3714 128.063C87.6447 136.403 94.51 142.327 106.571 147.549C112.619 150.17 118.515 152.823 123.046 156.139C126.935 158.971 127.669 159.959 128.683 163.39L124.326 166.141C122.434 163.041 119.406 160.385 114.375 158.651C78.5273 151.033 79.006 134.666 60.838 124.645C52.6074 120.111 50.534 115.934 62.9567 104.961C75.298 94.0593 87.3527 91.506 99.7047 104.466C108.27 113.45 110.354 134.649 122.661 132.594C126.218 121.261 125.001 109.071 115.186 103.491C111.645 101.475 107.343 99.99 102.39 94.786C94.3874 86.39 94.554 76.002 101.841 61.542C106.294 52.722 109.879 35.9073 97.598 25.9033C107.269 21.39 115.446 24.8913 119.042 28.5593C129.837 39.5086 122.578 54.082 124.389 67.022C125.659 76.0433 130.949 77.5806 134.293 79.2366C135.649 78.1206 147.882 70.1553 154.399 71.3193C156.57 71.71 156.61 73.942 157.251 74.8353Z" fill="#231F20"/>
<path fill-rule="evenodd" clip-rule="evenodd" d="M235.544 104.13C231.324 103.366 225.833 103.784 219.624 106.646C215.294 108.643 211.878 111.472 210.488 115.478C209.434 118.527 211.508 121.068 214.124 120.143C217.813 118.823 219.566 111.654 234.532 106.507C237.654 105.432 241.8 105.263 235.544 104.13Z" fill="#231F20"/>
<path fill-rule="evenodd" clip-rule="evenodd" d="M127.6 212.586C127.6 212.586 130.549 199.026 128.482 192.293C128.186 191.346 124.498 177.291 121.562 164.953C117.834 149.165 127.945 133.922 146.189 132.358C162.516 130.97 172.654 140.946 179.433 155.825C184.43 166.807 186.121 183.659 184.906 195.498C182.917 193.713 178.938 193.463 178.938 193.463C178.938 193.463 179.858 180.037 174.698 166.27C169.552 152.505 157.252 139.617 141.681 144.887C126.108 150.153 130.182 176.467 134.256 184.965C136.42 189.473 136.509 196.814 134.83 199.781C133.338 202.406 127.6 212.586 127.6 212.586Z" fill="#231F20"/>
<path fill-rule="evenodd" clip-rule="evenodd" d="M277.344 188.164C273.048 198.197 272.532 168.756 273.855 164.484C274.142 163.539 275.378 150.912 272.872 138.643C269.611 122.745 256.359 111.772 238.799 116.969C226.035 120.737 219.814 130.024 217.444 142.129C211.342 148.679 210.542 174.773 219.456 191.672C219.959 190.7 229.11 191.123 225.891 187.875C220.236 182.191 217.198 162.88 217.198 162.88C217.198 162.88 231.151 175.943 226.035 166.239C219.511 153.899 226.608 123.412 246.746 125.621C263.086 127.416 270.054 144.573 269.076 162.696C268.743 168.929 267.346 175.469 268.49 178.852C270.708 185.321 277.344 188.164 277.344 188.164Z" fill="#231F20"/>
<path fill-rule="evenodd" clip-rule="evenodd" d="M144.079 153.471C136.644 158.341 132.516 169.429 136.992 180.469C138.628 179.379 139.628 178.37 141.262 177.275C137.115 169.955 138.962 159.917 144.079 153.471Z" fill="#231F20"/>
<path fill-rule="evenodd" clip-rule="evenodd" d="M171.74 153.921C181.702 163.057 182.694 174.356 181.819 193.797C178.392 193.056 174.664 192.648 170.758 192.648C167.406 192.648 164.188 192.946 161.179 193.498C155.259 189.766 151.286 182.988 151.286 175.246C151.286 163.469 160.451 153.921 171.74 153.921Z" fill="#231F20"/>
<path fill-rule="evenodd" clip-rule="evenodd" d="M258.773 140.65C271.399 139.615 271.634 145.74 271.573 156.778C271.531 164.327 272.682 175.368 272.325 183.266C263.654 181.38 258.561 181.062 251.563 182.348C243.035 177.991 238.309 169.72 238.309 161.975C238.309 150.198 247.481 140.65 258.773 140.65Z" fill="#231F20"/>
<path fill-rule="evenodd" clip-rule="evenodd" d="M146.675 167.867C146.675 167.761 146.523 164.682 148.975 161.797L167.207 172.422L146.675 167.867Z" fill="white"/>
<path fill-rule="evenodd" clip-rule="evenodd" d="M235.4 159.75C234.824 155.187 235.24 156.269 237.056 154.046L253.742 162.141L235.4 159.75Z" fill="white"/>
<path fill-rule="evenodd" clip-rule="evenodd" d="M203.234 196.268C212.168 189.721 226.138 182.371 240.898 180.192C264.69 176.672 289.591 184.397 291.73 214.241C293.582 240.037 274.1 258.321 253.494 257.461C240.702 256.924 228.696 251.24 216.892 253.572C206.115 255.687 197.579 259.367 187.404 264.248C187.759 264.449 179.79 266.637 191.458 257.904C200.598 254.375 207.804 245.324 220.672 247.276C239.742 250.168 282.944 256.039 283.772 216.817C282.248 192.045 262.504 185.184 242.91 187.411C227.672 189.144 211.81 195.779 202.886 202.251C188.938 197.035 174.794 192.879 161.108 194.379C137.239 197.004 126.951 217.459 131.107 239.177C133.968 254.149 146.562 265.779 157.199 264.979C157.435 265.111 157.674 265.247 157.918 265.367C159.554 266.189 161.402 266.836 163.38 267.288C148.055 275.935 127.335 264.045 121.779 240.667C117.1 220.933 130.038 192.121 157.358 189.08C173.019 187.341 187.262 190.248 203.234 196.268Z" fill="#231F20"/>
<path fill-rule="evenodd" clip-rule="evenodd" d="M191.08 256.748C191.08 256.748 180.313 261.049 172.565 255.601C164.817 250.146 161.489 243.88 151.22 246.142C140.948 248.393 144.844 259.752 152.64 262.989C160.43 266.229 179.644 265.188 191.08 256.748ZM201.869 252.648C201.869 252.648 187.454 258.257 178.821 253.373C171.137 249.032 167.509 238.481 153.448 239.081C133.298 239.941 133.62 261.857 149.812 267.358C162.406 271.645 187.054 269.037 201.869 252.648Z" fill="#231F20"/>
<path fill-rule="evenodd" clip-rule="evenodd" d="M172.734 264.732C190.297 268.591 203.57 262.768 212.632 264.519C228.081 267.51 256.192 252.523 252.34 256.375C246.992 261.758 235.688 271.063 209.966 270.89C194.096 270.787 179.194 273.57 172.734 264.732Z" fill="#231F20"/>
<path fill-rule="evenodd" clip-rule="evenodd" d="M153.27 267.096C159.151 274.887 163.443 265.348 168.69 273.935C184.44 304.305 196.203 310.664 211.942 310.187C227.684 309.712 240.564 302.552 246.439 283.316C252.334 264.077 257.1 249.287 264.414 248.173C270.916 247.185 251.792 251.215 251.402 251.563C249.103 253.659 251.868 255.153 249.786 260.579C245.02 272.984 234.039 296.991 213.531 298.741C193.02 300.489 177.924 285.225 171.562 268.056C170.28 263.6 165.519 264.712 165.519 264.712L153.27 267.096Z" fill="#231F20"/>
<path fill-rule="evenodd" clip-rule="evenodd" d="M251.218 257.881C242.627 266.945 235.791 275.532 212.258 277.439C188.73 279.345 181.095 270.603 173.143 267.104C165.197 263.605 168.215 267.581 168.215 267.581C168.215 267.581 173.143 270.444 185.222 277.916C197.315 285.384 218.302 288.412 235.474 277.28C252.649 266.147 252.173 260.423 252.173 260.423L251.218 257.881Z" fill="#231F20"/>
<path fill-rule="evenodd" clip-rule="evenodd" d="M265.265 209.164C264.649 206.715 251.304 205.136 243.088 208.866C234.865 212.584 232.446 217.772 234.71 223.188C236.752 227.479 242.836 226.248 247.332 224.051C252.937 221.19 256.49 213.568 256.49 213.568C257.008 211.234 266.914 212.135 265.265 209.164Z" fill="#231F20"/>
<path fill-rule="evenodd" clip-rule="evenodd" d="M191.203 418.169C196.383 411.921 194.374 408.64 192.563 402C188.421 386.748 173.206 370.332 177.833 373.257C191.243 382.044 199.733 399.9 200.126 401.109C200.53 402.318 201.066 402.546 201.786 402.725C209.134 397.53 223.343 386.972 213.71 372.453C204.091 357.941 183.51 370.066 177.778 371.374C172.059 372.677 166.979 370.469 160.209 372.157C171.542 376.753 190.367 406.084 191.203 418.169ZM228.816 359.829L232.066 364.984C233.406 367.108 232.727 369.98 230.542 371.358L223.987 375.502C225.166 384.558 220.236 393.721 214.286 399.864C204.865 409.549 200.319 411.134 195.901 423.356C193.138 430.988 190.694 432.557 188.566 433.782C188.483 433.848 188.394 433.914 188.297 433.98C188.139 434.073 187.978 434.158 187.814 434.228C187.707 434.285 187.618 434.34 187.523 434.4C187.523 434.4 187.481 434.376 187.405 434.345C182.055 435.644 169.995 424.194 159.506 407.6C155.491 401.254 152.266 395.026 150.001 389.506C149.187 388.788 148.529 387.848 148.143 386.748C147.753 385.669 147.666 384.558 147.818 383.506C146.557 379.401 146.022 375.969 146.335 373.562C146.438 371.768 146.897 370.185 147.942 369.126C152.261 364.722 170.913 367.778 174.369 366.638C177.383 365.641 202.57 352.229 216.38 362.268L222.395 358.465C224.574 357.085 227.466 357.698 228.816 359.829ZM225.645 363.966C226.058 364.63 226.478 365.286 226.902 365.95C227.415 366.769 227.133 367.85 226.275 368.393C225.419 368.934 223.528 370.081 222.704 370.616C222.395 369.849 222.046 369.084 221.63 368.328C221.063 367.293 220.431 366.356 219.76 365.513C220.466 365.046 222.355 363.929 223.147 363.422C223.992 362.885 225.126 363.141 225.645 363.966ZM160.425 382.37C160.437 382.428 160.451 382.477 160.471 382.526C160.741 382.84 161.265 382.897 161.645 382.682L163.351 381.761L163.386 381.738C163.174 381.509 162.674 380.309 162.469 380.084L160.195 380.586C159.755 380.674 160.307 381.649 160.293 382.061C160.342 382.164 160.382 382.266 160.425 382.37ZM157.545 382.213C156.575 380.686 154.485 380.266 152.882 381.288C152.045 381.813 151.502 382.624 151.309 383.497C151.597 383.089 151.979 382.725 152.422 382.442C154.193 381.324 156.475 381.788 157.545 383.461C157.746 383.788 157.89 384.132 157.973 384.489C158.117 383.716 157.985 382.914 157.545 382.213ZM161.603 384.808C161.315 388.69 159.118 389.737 156.501 390.81C152.743 392.358 179.338 433.721 185.326 429.934C188.799 427.742 185.741 416.47 178.497 403.346C174.457 396.021 171.015 390.352 165.519 384.044L161.603 384.808ZM158.654 382.5C159.482 384.808 158.31 387.333 156.043 388.136C153.782 388.937 151.281 387.724 150.458 385.418C149.642 383.116 150.811 380.594 153.074 379.784C155.334 378.978 157.835 380.197 158.654 382.5ZM184.401 419.933C189.174 437.421 172.385 419.312 170.746 414.27C173.877 416.74 182.53 428.282 184.401 419.933Z" fill="#231F20"/>
<path fill-rule="evenodd" clip-rule="evenodd" d="M290.437 155.576C311.877 170.789 315.654 219.395 310.479 266.603C305.874 308.639 271.91 358.749 248.446 370.563C243.306 373.156 235.884 371.525 230.542 369.588C224.781 367.503 223.878 378.595 223.878 378.595C223.878 378.595 249.809 393.133 268.15 382.016C325.441 347.287 346.933 239.927 307.834 165.403C296.082 150.816 290.437 155.576 290.437 155.576ZM246.974 377.864C254.708 376.024 259.516 372.891 272.606 359.361C285.71 345.829 299.66 323.78 308.192 300.692C316.31 278.725 319.381 233.125 318.07 224.932C328.069 264.515 314.533 305.904 301.234 332.128C292.61 349.121 271.082 384.129 246.974 377.864Z" fill="#231F20"/>
<path fill-rule="evenodd" clip-rule="evenodd" d="M227.633 321.108C219.483 331.803 213.632 354.468 217.703 362.607C221.776 370.757 214.897 363.12 214.897 363.12C214.897 363.12 206.5 361.083 206.5 359.552C206.5 351.108 196.664 324.44 215.832 304.756C216.86 303.697 218.899 307.215 221.521 308.125C221.521 308.125 211.232 321.956 210.061 329.511C207.773 344.276 212.103 353.188 212.615 352.167C213.851 330.845 226.408 310.385 226.615 312.199L227.633 321.108Z" fill="#231F20"/>
<path fill-rule="evenodd" clip-rule="evenodd" d="M276.562 148.65C287.74 153.12 306.53 160.282 320.84 152.23C335.156 144.174 357.07 124.495 367.811 115.106C369.247 113.844 370.8 112.663 372.444 111.582C374.106 113.911 375.727 116.276 377.291 118.674C372.236 120.08 368.304 122.294 365.567 125.392C358.858 132.994 335.156 162.07 319.052 164.306C302.959 166.546 283.72 168.334 276.562 148.65Z" fill="#231F20"/>
<path fill-rule="evenodd" clip-rule="evenodd" d="M219.985 307.53C220.462 308.356 212.853 311.041 212.853 314.786C212.853 319.3 220.444 325.012 220.98 326.125C221.748 327.724 224.569 316.597 225.276 318.282C230.364 330.332 234.096 344.374 236.212 354.557C239.017 367.993 256.938 402.704 266.449 407.745C266.725 407.89 266.984 408.037 267.225 408.188C270.733 407.226 274.188 406.162 277.614 405.016C262.642 392.557 246.613 371.725 239.574 342.241C230.617 304.73 227.253 307.53 219.985 307.53Z" fill="#231F20"/>
<path fill-rule="evenodd" clip-rule="evenodd" d="M218.951 329.495L212.206 320.789L210.256 325.145L217.216 334.5L218.951 329.495Z" fill="#231F20"/>
<path fill-rule="evenodd" clip-rule="evenodd" d="M157.579 382.111C156.609 380.581 154.525 380.168 152.911 381.183C152.073 381.705 151.529 382.523 151.343 383.393C151.639 382.991 152.009 382.623 152.456 382.339C154.227 381.22 156.509 381.683 157.579 383.361C157.78 383.689 157.917 384.028 158.007 384.391C158.145 383.617 158.013 382.808 157.579 382.111Z" fill="#FFCB04"/>
<path fill-rule="evenodd" clip-rule="evenodd" d="M225.678 363.864C226.092 364.525 226.511 365.186 226.931 365.85C227.448 366.666 227.16 367.75 226.322 368.281C225.454 368.834 223.562 369.981 222.74 370.51C222.44 369.736 222.079 368.981 221.664 368.225C221.098 367.196 220.466 366.261 219.792 365.413C220.499 364.946 222.388 363.818 223.176 363.314C224.022 362.785 225.159 363.041 225.678 363.864ZM160.451 382.268C160.471 382.32 160.491 382.378 160.499 382.426C160.77 382.733 161.292 382.782 161.68 382.578L163.386 381.656L163.428 381.638C163.219 381.41 162.707 380.208 162.503 379.98L160.23 380.482C159.788 380.58 160.342 381.55 160.332 381.954C160.375 382.061 160.416 382.165 160.451 382.268ZM158.682 382.397C159.506 384.704 158.343 387.222 156.078 388.029C153.816 388.837 151.315 387.617 150.492 385.318C149.674 383.012 150.846 380.489 153.103 379.684C155.368 378.88 157.868 380.094 158.682 382.397ZM191.236 418.07C196.418 411.822 194.402 408.538 192.6 401.897C188.455 386.644 173.24 370.222 177.866 373.158C191.28 381.944 199.762 399.802 200.16 401.009C200.56 402.212 201.107 402.446 201.819 402.618C209.174 397.43 223.383 386.87 213.744 372.353C204.122 357.84 183.55 369.964 177.816 371.269C172.094 372.582 167.014 370.361 160.244 372.052C171.582 376.645 190.395 405.977 191.236 418.07Z" fill="#FEDC00"/>
<path fill-rule="evenodd" clip-rule="evenodd" d="M161.632 384.7C161.351 388.581 159.151 389.633 156.542 390.715C152.766 392.256 179.367 433.619 185.362 429.833C188.834 427.639 185.775 416.367 178.536 403.243C174.492 395.919 171.052 390.249 165.543 383.948L161.632 384.7Z" fill="#FEDC00"/>
<path fill-rule="evenodd" clip-rule="evenodd" d="M247.066 377.907C254.8 376.07 259.612 372.934 272.71 359.404C285.808 345.88 299.762 323.826 308.29 300.735C316.408 278.774 319.472 233.174 318.167 224.978C328.166 264.558 314.631 305.947 301.338 332.175C292.707 349.17 271.187 384.171 247.066 377.907Z" fill="#FEDC00"/>
<path fill-rule="evenodd" clip-rule="evenodd" d="M190.984 256.749C190.984 256.749 180.23 261.053 172.476 255.603C164.726 250.148 161.404 243.881 151.127 246.141C140.852 248.4 144.751 259.753 152.542 262.988C160.342 266.231 179.548 265.189 190.984 256.749Z" fill="#F7AAAC"/>
<path fill-rule="evenodd" clip-rule="evenodd" d="M255.41 153.646C250.759 153.646 246.975 157.421 246.975 162.076C246.975 166.729 250.759 170.508 255.41 170.508C260.06 170.508 263.832 166.729 263.832 162.076C263.832 157.421 260.06 153.646 255.41 153.646Z" fill="#231F20"/>
<path fill-rule="evenodd" clip-rule="evenodd" d="M168.661 165.779C165.071 165.779 162.144 168.7 162.144 172.305C162.144 175.904 165.071 178.828 168.661 178.828C172.26 178.828 175.189 175.904 175.189 172.305C175.189 168.7 172.26 165.779 168.661 165.779Z" fill="#231F20"/>
<path fill-rule="evenodd" clip-rule="evenodd" d="M307.519 326.734C343.884 315.577 339.06 352.72 347.352 363.352C354.086 357.066 360.358 350.302 366.124 343.117C365.964 339.61 365.476 335.942 364.758 332.274C360.979 313.053 354.632 301.242 337.418 292.538C330.356 288.973 323.854 286.426 324.199 286.426C324.199 286.426 316.723 312.344 307.519 326.734Z" fill="#231F20"/>
<path fill-rule="evenodd" clip-rule="evenodd" d="M277.614 269.144C272.439 274.906 272.434 288.728 276.471 298.511C280.495 308.304 295.635 318.539 295.635 318.539L311.548 279.507C316.872 266.442 290.839 248.764 277.614 269.144Z" fill="#231F20"/>
<path fill-rule="evenodd" clip-rule="evenodd" d="M362.456 142.909C377.067 134.273 378.274 177.953 377.326 194.283C376.475 208.764 395.632 218.179 408.04 232.176C407.407 245.639 405.4 258.733 402.152 271.336C401.802 270.495 401.451 269.617 401.095 268.707C398.691 262.543 394.914 256.943 388.98 254.777C373.156 249.017 336.09 240.367 338.486 218.768C340.883 197.157 341.832 188.036 338.486 181.8C330.04 166.095 349.227 150.74 362.456 142.909Z" fill="#231F20"/>
<path fill-rule="evenodd" clip-rule="evenodd" d="M180.273 265.86C193.226 262.2 204.441 253.138 219.27 252.846C234.107 252.558 241.983 256.422 248.55 256.812C243.99 259.268 224.107 266.448 214.291 265.59C204.027 264.69 194.934 267.438 180.273 265.86Z" fill="#808184"/>
<path fill-rule="evenodd" clip-rule="evenodd" d="M154.876 224.333C154.81 221.806 167.22 216.666 176.147 218.014C185.062 219.359 188.808 223.691 188.095 229.515C182.958 236.786 169.891 232.327 166.824 226.569C165.698 224.459 154.098 227.637 154.876 224.333Z" fill="#231F20"/>
<path fill-rule="evenodd" clip-rule="evenodd" d="M174.402 50.7557C171.142 49.5143 168.972 47.1943 164.608 45.921C161.23 44.949 156.126 43.953 151.768 44.4423L150.729 44.5623C149.932 44.649 149.118 45.653 149.208 46.4343L149.512 49.125C150.245 55.7263 154.537 62.641 158.834 67.6277C151.501 68.4557 138.628 76.2503 139.202 81.3077C139.637 85.1477 155.136 90.0783 161.348 89.3823L164.14 89.2183L171.886 87.1717C171.95 89.3477 170.576 91.0343 170.93 94.093L171.078 95.4423C171.19 96.477 172.24 96.6757 173.29 96.5543L175.009 96.3623C178.697 95.949 183.722 92.1103 185.07 89.7823C186.85 86.7023 187.701 85.165 187.776 82.0997C188.296 82.0597 188.558 81.6437 189.104 81.577C189.334 81.5543 189.517 81.4877 189.697 81.4077C191.996 89.3357 198.008 93.7783 206.982 92.769C208.036 92.6477 209.006 92.2223 208.889 91.1903L208.586 88.4917C208.42 87.045 206.474 84.7277 205.922 83.3423C208.564 83.0437 210.478 83.8543 212.91 83.5783L216.694 83.149C223.068 82.437 237.264 74.197 236.826 70.325C236.262 65.2903 222.476 60.1997 215.093 61.033C219.02 53.6223 220.293 47.1223 219.33 38.5437C219.256 37.845 218.13 36.9743 217.758 37.017C205.485 38.397 202.282 42.9077 195.72 48.3583C195.125 43.077 193.646 39.053 191.389 35.6663C190.262 33.9637 184.58 27.461 182.944 27.6397C180.23 27.9517 176.822 34.697 175.984 36.945C174.394 41.2077 173.724 44.7223 174.402 50.7557Z" fill="#FEDC00"/>
<path fill-rule="evenodd" clip-rule="evenodd" d="M187.537 81.2072C187.776 85.2365 187.158 87.2325 184.596 91.7485C182.796 94.9485 177.041 98.8152 173.368 99.2352L171.562 99.4365C170.093 99.5965 168.462 99.1939 168.276 97.4699L168.109 96.0205C167.804 93.3032 168.594 92.0565 169.014 89.6272L161.934 91.5245L158.929 91.6912C155.445 92.0739 150.506 90.9299 147.177 89.9312C144.153 89.0325 135.077 85.9565 134.649 82.1872C134.12 77.4499 141.818 72.3779 145.326 70.4432C148.01 68.9592 151.384 67.4645 154.545 66.8152C150.23 61.4285 146.189 54.3899 145.434 47.6059L145.105 44.7059C144.953 43.3939 146.154 41.8899 147.468 41.7472L148.552 41.6232C152.98 41.1232 158.194 42.0112 162.43 43.2765C165.774 44.2765 167.808 45.8405 170.733 47.4992C170.984 47.6459 171.257 47.7872 171.516 47.9272C171.101 42.9512 171.55 39.1112 173.344 34.1819C174.385 31.3085 178.025 24.0059 181.369 23.6259C183.75 23.3619 189.814 30.6965 191.1 32.6645C193.6 36.4859 194.954 40.6539 195.618 45.1045C197.585 43.3712 199.497 41.5659 201.569 39.9699C206.646 36.0459 211.734 34.5165 218.073 33.8005C219.146 33.6779 220.566 35.2005 220.677 36.2072C221.665 44.9299 220.574 51.8379 216.858 59.5219C220.037 59.4579 223.578 60.2085 226.477 61.1085C230.329 62.3072 238.666 65.7165 239.201 70.4232C239.621 74.2432 231.249 79.2952 228.46 80.8445C225.38 82.5605 220.788 84.7259 217.252 85.1245L213.27 85.5712C211.177 85.8099 209.208 85.2752 207.158 85.2459C208.036 86.7379 209.312 88.3165 209.492 89.9032L209.814 92.7979C210.009 94.5139 208.518 95.2699 207.04 95.4392C196.334 96.6445 189.72 90.6445 187.537 81.2072ZM193.925 68.7192C198.881 63.8659 205.87 60.6059 212.404 59.7459C215.145 52.5912 215.021 48.5259 214.216 41.1432C201.696 43.0485 190.228 55.7819 189.449 68.5712C191.588 63.2645 197.458 58.5472 202.149 56.8792L204.338 56.1072L203.178 58.1219C202.618 59.1045 200.132 61.3845 199.249 62.2672C198.185 63.3432 196.916 64.5392 195.969 65.7205C195.245 66.6365 194.566 67.7005 193.925 68.7192ZM189.414 74.6725L188.862 75.1379L188.681 73.5392C188.67 73.4645 188.668 73.3819 188.668 73.3099L187.569 73.4299L187.474 72.5712C186.888 67.3779 186.878 63.1152 188.276 58.0392C188.808 56.1259 189.782 54.2925 190.582 52.4752C191.232 50.9805 192.577 49.2672 193.477 47.7779C192.704 42.6925 186.44 35.1579 181.952 32.5472C179.628 34.4192 177.314 38.6272 176.218 41.1432C175.104 43.6925 173.952 47.1912 174.196 50.0285C174.664 50.6005 175.569 51.4379 176.058 51.9232C176.736 52.5939 177.57 53.3525 178.174 54.0712C179.545 55.6832 180.534 57.3459 181.554 59.2005C184.252 64.1672 184.968 67.5019 185.609 73.1539L185.701 74.0139L184.613 74.1352L184.78 75.6032L183.441 74.9072L184.505 76.1725L182.253 75.8312C181.594 75.7352 177.702 73.7032 176.9 73.3232C175.512 72.6712 173.897 71.8605 172.453 71.3859C169.145 70.3019 164.409 69.8045 160.936 70.1992C158.653 70.4459 156.372 71.0205 154.206 71.7939C149.768 73.3672 143.434 76.8339 140.87 81.1099C143.733 83.9899 150.009 85.7285 153.726 86.3419C156.426 86.7872 159.326 86.9765 162.058 86.6659L165.677 86.2632C168.268 85.9725 172.654 84.0325 175.009 82.8219C176.058 82.2725 177.185 81.3965 178.117 80.6485C179.102 79.8752 181.362 77.8605 182.426 77.4379L183.964 76.8405L183.578 78.4379C182.917 81.1805 176.161 86.5819 172.868 87.7925C172.833 88.1699 172.786 88.5459 172.724 88.9232C172.453 90.4499 172.254 91.3725 172.433 92.9672L172.542 93.9245L173.137 93.8592C175.156 93.6285 180.48 89.3685 181.492 87.6259C182.489 85.8952 183.257 84.7632 183.958 82.8565C184.45 81.4885 184.801 78.1045 185.784 77.2059L186.79 76.2792L186.646 75.0405L188.454 77.1019C189.636 78.4499 190.286 80.9765 191.45 82.5605C192.438 83.8979 193.876 85.5685 195.193 86.5885C197.488 88.3765 201.696 90.2565 204.893 90.5205L204.717 88.9685C204.513 87.1752 203.944 85.6205 202.474 84.4979C201.077 83.4259 199.052 82.8565 197.418 82.2419C195.141 81.3819 193.186 80.3579 191.582 78.4632L190.104 76.7139L192.364 77.0592C194.009 77.3032 196.728 78.6512 198.378 79.2805C199.373 79.6539 200.397 80.0112 201.432 80.2405C205.436 81.1205 207.834 81.5165 212.025 81.0459L213.482 80.8899C216.286 80.5685 219.173 79.6752 221.777 78.5765C225.132 77.1739 230.789 74.0859 232.898 70.7592C229.944 67.7179 223.976 65.7205 220.057 64.9672C217.324 64.4299 214.4 64.1792 211.632 64.4925C206.49 65.0645 203.524 66.1779 199.117 68.6445C197.838 69.3712 196.389 70.6645 195.29 71.6512C194.566 72.3125 191.073 75.7619 190.409 76.0179L188.282 76.8485L189.345 74.8219L189.414 74.6725ZM182.9 70.0965C179.422 57.4432 164.781 47.3752 151.872 48.3205C152.689 55.3939 153.644 60.1205 158.349 65.8259C164.7 65.2192 172.453 66.7139 178.24 70.3512C177.384 69.4779 176.481 68.5752 175.546 67.8392C173.985 66.5965 167.494 63.1792 166.908 61.9845L166.197 60.5632L167.77 60.7485C170.685 61.0885 175.221 62.7339 177.508 64.5525C178.89 65.6459 180.273 66.7659 181.382 68.1405C181.909 68.7899 182.392 69.4432 182.9 70.0965Z" fill="#231F20"/>
<path fill-rule="evenodd" clip-rule="evenodd" d="M148.302 118.362C151.768 116.537 156.61 115.513 162.612 116.681C166.804 117.494 170.4 119.349 172.516 122.865C174.124 125.538 172.922 128.525 170.464 128.301C166.971 127.985 163.808 121.507 149.731 120.391C146.783 120.162 143.174 121.07 148.302 118.362Z" fill="#231F20"/>
<path fill-rule="evenodd" clip-rule="evenodd" d="M211.238 326.034L216.55 333.163C214.704 338.962 213.236 345.464 212.852 352.054C212.35 353.074 208.012 344.168 210.306 329.399C210.47 328.372 210.79 327.235 211.238 326.034ZM218.28 328.2L213.202 321.644C213.682 320.706 214.187 319.766 214.712 318.843C216.191 321.016 218.364 323.072 219.787 324.455C219.284 325.643 218.772 326.895 218.28 328.2Z" fill="#FFCB04"/>
<defs>
<linearGradient id="paint0_linear_16832_8435" x1="368.168" y1="427.694" x2="64.4081" y2="18.2782" gradientUnits="userSpaceOnUse">
<stop stop-color="#04522C"/>
<stop offset="0.00360417" stop-color="#04522C"/>
<stop offset="0.3" stop-color="#056936"/>
<stop offset="0.304633" stop-color="#056936"/>
<stop offset="0.63" stop-color="#3B9143"/>
<stop offset="0.633344" stop-color="#3B9143"/>
<stop offset="1" stop-color="#A4CD39"/>
</linearGradient>
</defs>
</svg>
