<svg width="24" height="24" viewBox="0 0 24 24" fill="none" xmlns="http://www.w3.org/2000/svg">
<circle cx="12" cy="12" r="12" fill="#A4A3EA"/>
<g clip-path="url(#clip0_816_4793)">
<path d="M17.1169 11.3749C16.9099 11.3749 16.7419 11.2069 16.7419 10.9999C16.7419 9.5639 16.183 8.21442 15.168 7.19891C15.0215 7.05243 15.0215 6.81494 15.168 6.66846C15.3145 6.52197 15.5519 6.52197 15.6985 6.66846C16.855 7.82541 17.4919 9.36395 17.4919 10.9999C17.4919 11.2069 17.3239 11.3749 17.1169 11.3749Z" fill="white"/>
<path d="M6.86719 11.3749C6.66019 11.3749 6.49219 11.2069 6.49219 10.9999C6.49219 9.36398 7.12921 7.82544 8.28616 6.66895C8.43265 6.52246 8.67023 6.52246 8.81671 6.66895C8.9632 6.81543 8.9632 7.05301 8.81671 7.19949C7.80121 8.21445 7.24219 9.56393 7.24219 10.9999C7.24219 11.2069 7.07419 11.3749 6.86719 11.3749Z" fill="white"/>
<path d="M11.9922 18C10.9582 18 10.1172 17.159 10.1172 16.125C10.1172 15.918 10.2852 15.75 10.4922 15.75C10.6992 15.75 10.8672 15.918 10.8672 16.125C10.8672 16.7455 11.3716 17.25 11.9922 17.25C12.6126 17.25 13.1172 16.7455 13.1172 16.125C13.1172 15.918 13.2852 15.75 13.4922 15.75C13.6992 15.75 13.8672 15.918 13.8672 16.125C13.8672 17.159 13.0262 18 11.9922 18Z" fill="white"/>
<path d="M16.1172 16.5H7.86725C7.38467 16.5 6.99219 16.1075 6.99219 15.625C6.99219 15.369 7.1037 15.1265 7.29825 14.96C8.05869 14.3175 8.49219 13.3835 8.49219 12.394V11C8.49219 9.07004 10.0622 7.5 11.9922 7.5C13.9222 7.5 15.4922 9.07004 15.4922 11V12.394C15.4922 13.3835 15.9257 14.3175 16.6812 14.9565C16.8807 15.1265 16.9922 15.369 16.9922 15.625C16.9922 16.1075 16.5997 16.5 16.1172 16.5ZM11.9922 8.25C10.4757 8.25 9.24219 9.48349 9.24219 11V12.394C9.24219 13.6045 8.71173 14.7475 7.78723 15.529C7.76974 15.544 7.74219 15.575 7.74219 15.625C7.74219 15.693 7.79922 15.75 7.86725 15.75H16.1172C16.1852 15.75 16.2422 15.693 16.2422 15.625C16.2422 15.575 16.2148 15.544 16.1982 15.53C15.2727 14.7475 14.7422 13.6045 14.7422 12.394V11C14.7422 9.48349 13.5087 8.25 11.9922 8.25Z" fill="white"/>
<path d="M11.9922 8.25C11.7852 8.25 11.6172 8.082 11.6172 7.875V6.375C11.6172 6.168 11.7852 6 11.9922 6C12.1992 6 12.3672 6.168 12.3672 6.375V7.875C12.3672 8.082 12.1992 8.25 11.9922 8.25Z" fill="white"/>
</g>
<defs>
<clipPath id="clip0_816_4793">
<rect width="12" height="12" fill="white" transform="translate(6 6)"/>
</clipPath>
</defs>
</svg>
