<svg width="17" height="17" viewBox="0 0 17 17" fill="none" xmlns="http://www.w3.org/2000/svg">
<path d="M9.94424 0.129395H3.69873C3.09443 0.132715 2.60635 0.620801 2.60303 1.2251V15.7747C2.60303 16.379 3.09443 16.8671 3.69541 16.8671H14.6657C15.27 16.8671 15.7581 16.3757 15.7614 15.7747L15.7315 4.96709L9.94424 0.129395Z" fill="#EAEAEA"/>
<path d="M14.6658 17H3.69883C3.02148 17 2.47363 16.4521 2.47363 15.7748V1.2252C2.47363 0.547852 3.02148 0 3.69883 0H9.99414L15.8645 4.90742L15.8943 15.7748C15.891 16.4521 15.3432 17 14.6658 17ZM3.69883 0.262305C3.16758 0.262305 2.73594 0.693945 2.73594 1.2252V15.7748C2.73594 16.3061 3.16758 16.7377 3.69883 16.7377H14.6691C15.2004 16.7377 15.632 16.3061 15.632 15.7748L15.6021 5.03027L9.89785 0.262305H3.69883Z" fill="#FD5454"/>
<path d="M9.94434 0.129395L9.92773 4.8542C9.92773 4.8542 9.94434 4.96709 10.0439 4.96709H15.7316L9.94434 0.129395Z" fill="#FD5454"/>
<path d="M1.56045 8.19775H12.5839C12.8329 8.19775 13.0354 8.40029 13.0354 8.64932V13.5634C13.0354 13.8124 12.8329 14.0149 12.5839 14.0149H1.56045C1.31143 14.0149 1.10889 13.8124 1.10889 13.5634V8.64932C1.10889 8.39697 1.31143 8.19775 1.56045 8.19775Z" fill="#FD5454"/>
<path d="M3.02158 11.91H2.20811L2.09521 12.2918H1.36475L2.23467 9.97754H3.01494L3.88486 12.2918H3.13447L3.02158 11.91ZM2.87217 11.4086L2.6165 10.5785L2.36416 11.4086H2.87217Z" fill="white"/>
<path d="M5.5085 9.97754H6.22236V11.3555C6.22236 11.4883 6.20244 11.6178 6.15928 11.7439C6.11943 11.8635 6.04971 11.973 5.96006 12.0627C5.88037 12.1457 5.78076 12.2121 5.67451 12.2553C5.51182 12.3117 5.34248 12.335 5.17314 12.3316C5.05029 12.3316 4.92744 12.3217 4.80459 12.3084C4.68838 12.2984 4.57549 12.2652 4.46924 12.2154C4.37627 12.1656 4.29326 12.0992 4.22354 12.0162C4.15381 11.9398 4.104 11.8502 4.0708 11.7506C4.03096 11.6244 4.00771 11.4916 4.00439 11.3588V9.98086H4.71826V11.3887C4.71826 11.5148 4.75479 11.6145 4.82451 11.6842C4.89424 11.7539 4.99053 11.7904 5.1167 11.7904C5.23955 11.7904 5.33584 11.7539 5.40557 11.6842C5.47529 11.6145 5.51182 11.5148 5.51182 11.3854L5.5085 9.97754Z" fill="white"/>
<path d="M6.704 9.97754H7.7665C7.97568 9.97754 8.14502 10.0074 8.27451 10.0639C8.40068 10.117 8.51025 10.2033 8.59326 10.3096C8.67959 10.4191 8.74268 10.5453 8.77588 10.6814C8.81572 10.8275 8.83232 10.977 8.83232 11.1297C8.83232 11.3754 8.80244 11.568 8.746 11.7041C8.69287 11.8336 8.61318 11.9498 8.51025 12.0461C8.4206 12.1324 8.30771 12.1955 8.18818 12.2287C8.04873 12.2686 7.90596 12.2885 7.76318 12.2918H6.70068L6.704 9.97754ZM7.42119 10.5021V11.7672H7.59717C7.74658 11.7672 7.85283 11.7506 7.91592 11.7174C7.98564 11.6775 8.03545 11.6178 8.06533 11.5447C8.10186 11.4617 8.11846 11.3289 8.11846 11.143C8.11846 10.8973 8.07861 10.7312 7.99893 10.6383C7.91924 10.5486 7.78643 10.5021 7.60049 10.5021H7.42119Z" fill="white"/>
<path d="M9.2373 9.97754H9.95449V12.2918H9.2373V9.97754Z" fill="white"/>
<path d="M10.3794 11.1361C10.3794 10.7576 10.4856 10.4654 10.6948 10.2529C10.904 10.0404 11.1995 9.9375 11.5747 9.9375C11.9599 9.9375 12.2554 10.0404 12.4646 10.2463C12.6737 10.4521 12.7767 10.7443 12.7767 11.1162C12.7767 11.3852 12.7302 11.6076 12.6405 11.7803C12.5509 11.9496 12.4147 12.0924 12.2454 12.1854C12.0728 12.2816 11.8603 12.3314 11.6013 12.3314C11.339 12.3314 11.1231 12.2883 10.9538 12.2053C10.7778 12.1189 10.6351 11.9828 10.5388 11.8102C10.4325 11.6309 10.3794 11.4084 10.3794 11.1361ZM11.0933 11.1395C11.0933 11.3719 11.1364 11.5412 11.2228 11.6441C11.3124 11.7471 11.4419 11.8035 11.578 11.7969C11.7308 11.7969 11.8503 11.7471 11.9366 11.6475C12.0196 11.5479 12.0628 11.3686 12.0628 11.1096C12.0628 10.8904 12.0196 10.7311 11.93 10.6314C11.8403 10.5318 11.7208 10.482 11.5714 10.482C11.4386 10.4754 11.3091 10.5318 11.2228 10.6348C11.1364 10.7344 11.0933 10.9037 11.0933 11.1395Z" fill="white"/>
</svg>
