<svg width="24" height="24" viewBox="0 0 24 24" fill="none" xmlns="http://www.w3.org/2000/svg">
<circle cx="12" cy="12" r="12" fill="#A4A3EA"/>
<g clip-path="url(#clip0_818_6051)">
<path d="M16.8947 9.03898L14.9416 7.08582C14.8867 7.03086 14.8121 7 14.7345 7H10.2422C9.75756 7 9.36328 7.39428 9.36328 7.87891V11.7429C8.04676 11.8891 7.01953 13.0084 7.01953 14.3633C7.01953 15.8172 8.20236 17 9.65625 17H16.1016C16.5862 17 16.9805 16.6057 16.9805 16.1211V9.24615C16.9805 9.16844 16.9496 9.09395 16.8947 9.03898ZM15.0273 8.00025L15.6639 8.6368L15.9802 8.95312H15.0273V8.00025ZM7.60547 14.3633C7.60547 13.2325 8.52545 12.3125 9.65625 12.3125C10.7871 12.3125 11.707 13.2325 11.707 14.3633C11.707 15.4941 10.7871 16.4141 9.65625 16.4141C8.52545 16.4141 7.60547 15.4941 7.60547 14.3633ZM16.1016 16.4141H11.3115C11.8381 15.9882 12.198 15.3641 12.2766 14.6562H15.3203C15.4821 14.6562 15.6133 14.5251 15.6133 14.3633C15.6133 14.2015 15.4821 14.0703 15.3203 14.0703H12.2766C12.2288 13.6402 12.0773 13.241 11.8475 12.8984H15.3203C15.4821 12.8984 15.6133 12.7673 15.6133 12.6055C15.6133 12.4437 15.4821 12.3125 15.3203 12.3125H11.3115C10.9302 12.0042 10.4617 11.7998 9.94922 11.7429V7.87891C9.94922 7.71736 10.0806 7.58594 10.2422 7.58594H14.4414V9.24609C14.4414 9.40789 14.5726 9.53906 14.7344 9.53906H16.3945V16.1211C16.3945 16.2826 16.2631 16.4141 16.1016 16.4141Z" fill="white"/>
<path d="M15.3203 10.5547H11.0234C10.8616 10.5547 10.7305 10.6859 10.7305 10.8477C10.7305 11.0095 10.8616 11.1406 11.0234 11.1406H15.3203C15.4821 11.1406 15.6133 11.0095 15.6133 10.8477C15.6133 10.6859 15.4821 10.5547 15.3203 10.5547Z" fill="white"/>
<path d="M10.8204 13.6288C10.706 13.5144 10.5205 13.5144 10.4061 13.6288L9.2461 14.7888L8.86731 14.41C8.75292 14.2956 8.56741 14.2956 8.453 14.41C8.33858 14.5244 8.33858 14.7099 8.453 14.8243L9.03894 15.4102C9.09614 15.4675 9.17112 15.4961 9.2461 15.4961C9.32108 15.4961 9.39606 15.4675 9.45325 15.4102L10.8204 14.0431C10.9349 13.9287 10.9349 13.7432 10.8204 13.6288Z" fill="white"/>
</g>
<defs>
<clipPath id="clip0_818_6051">
<rect width="10" height="10" fill="white" transform="translate(7 7)"/>
</clipPath>
</defs>
</svg>
