<svg width="20" height="20" viewBox="0 0 20 20" fill="none" xmlns="http://www.w3.org/2000/svg">
<rect width="20" height="20" rx="2" fill="#343434"/>
<path d="M10.1673 7.33333C9.8579 7.33333 9.56115 7.21042 9.34236 6.99162C9.12357 6.77283 9.00065 6.47609 9.00065 6.16667C9.00065 5.85725 9.12357 5.5605 9.34236 5.34171C9.56115 5.12292 9.8579 5 10.1673 5C10.4767 5 10.7735 5.12292 10.9923 5.34171C11.2111 5.5605 11.334 5.85725 11.334 6.16667C11.334 6.47609 11.2111 6.77283 10.9923 6.99162C10.7735 7.21042 10.4767 7.33333 10.1673 7.33333ZM10.1673 11.4167C9.8579 11.4167 9.56115 11.2937 9.34236 11.075C9.12357 10.8562 9.00065 10.5594 9.00065 10.25C9.00065 9.94058 9.12357 9.64383 9.34236 9.42504C9.56115 9.20625 9.8579 9.08333 10.1673 9.08333C10.4767 9.08333 10.7735 9.20625 10.9923 9.42504C11.2111 9.64383 11.334 9.94058 11.334 10.25C11.334 10.5594 11.2111 10.8562 10.9923 11.075C10.7735 11.2937 10.4767 11.4167 10.1673 11.4167ZM10.1673 15.5C9.8579 15.5 9.56115 15.3771 9.34236 15.1583C9.12357 14.9395 9.00065 14.6428 9.00065 14.3333C9.00065 14.0239 9.12357 13.7272 9.34236 13.5084C9.56115 13.2896 9.8579 13.1667 10.1673 13.1667C10.4767 13.1667 10.7735 13.2896 10.9923 13.5084C11.2111 13.7272 11.334 14.0239 11.334 14.3333C11.334 14.6428 11.2111 14.9395 10.9923 15.1583C10.7735 15.3771 10.4767 15.5 10.1673 15.5Z" fill="white"/>
</svg>
