<svg width="20" height="20" viewBox="0 0 20 20" fill="none" xmlns="http://www.w3.org/2000/svg">
<rect width="20" height="20" rx="2" fill="#3C78B9"/>
<path d="M9.57523 11.8067C10.374 11.8067 11.0216 11.1592 11.0216 10.3604C11.0216 9.5616 10.374 8.91406 9.57523 8.91406C8.77645 8.91406 8.12891 9.5616 8.12891 10.3604C8.12891 11.1592 8.77645 11.8067 9.57523 11.8067Z" fill="white"/>
<path d="M14.9779 10.2334C14.5526 9.1333 13.8144 8.18197 12.8543 7.49695C11.8942 6.81192 10.7545 6.42323 9.5759 6.37891C8.39734 6.42323 7.25759 6.81192 6.29752 7.49695C5.33746 8.18197 4.59916 9.1333 4.17388 10.2334C4.14516 10.3128 4.14516 10.3998 4.17388 10.4792C4.59916 11.5793 5.33746 12.5306 6.29752 13.2156C7.25759 13.9007 8.39734 14.2894 9.5759 14.3337C10.7545 14.2894 11.8942 13.9007 12.8543 13.2156C13.8144 12.5306 14.5526 11.5793 14.9779 10.4792C15.0066 10.3998 15.0066 10.3128 14.9779 10.2334ZM9.5759 12.7066C9.11106 12.7066 8.65666 12.5687 8.27016 12.3105C7.88366 12.0522 7.58242 11.6852 7.40453 11.2557C7.22665 10.8263 7.1801 10.3537 7.27079 9.89778C7.36147 9.44187 7.58532 9.02309 7.91401 8.6944C8.2427 8.36571 8.66148 8.14187 9.11739 8.05118C9.5733 7.96049 10.0459 8.00704 10.4753 8.18492C10.9048 8.36281 11.2718 8.66405 11.5301 9.05055C11.7883 9.43705 11.9262 9.89146 11.9262 10.3563C11.9252 10.9793 11.6773 11.5766 11.2367 12.0171C10.7962 12.4577 10.1989 12.7056 9.5759 12.7066Z" fill="white"/>
</svg>
