<svg width="24" height="24" viewBox="0 0 24 24" fill="none" xmlns="http://www.w3.org/2000/svg">
<circle cx="12" cy="12" r="12" fill="#A4A3EA"/>
<g clip-path="url(#clip0_816_6016)">
<path d="M15.7228 9.42953L13.3791 7.08584C13.3244 7.03111 13.2497 7 13.1719 7H9.07031C8.58568 7 8.19141 7.39428 8.19141 7.87891V16.1211C8.19141 16.6057 8.58568 17 9.07031 17H14.9297C15.4143 17 15.8086 16.6057 15.8086 16.1211V9.63672C15.8086 9.55684 15.7751 9.48182 15.7228 9.42953ZM13.4648 8.00025L14.8083 9.34375H13.7578C13.5963 9.34375 13.4648 9.21232 13.4648 9.05078V8.00025ZM14.9297 16.4141H9.07031C8.90877 16.4141 8.77734 16.2826 8.77734 16.1211V7.87891C8.77734 7.71736 8.90877 7.58594 9.07031 7.58594H12.8789V9.05078C12.8789 9.53541 13.2732 9.92969 13.7578 9.92969H15.2227V16.1211C15.2227 16.2826 15.0912 16.4141 14.9297 16.4141Z" fill="white"/>
<path d="M13.7578 11.1406H10.2422C10.0804 11.1406 9.94922 11.2718 9.94922 11.4336C9.94922 11.5954 10.0804 11.7266 10.2422 11.7266H13.7578C13.9196 11.7266 14.0508 11.5954 14.0508 11.4336C14.0508 11.2718 13.9196 11.1406 13.7578 11.1406Z" fill="white"/>
<path d="M13.7578 12.3125H10.2422C10.0804 12.3125 9.94922 12.4437 9.94922 12.6055C9.94922 12.7673 10.0804 12.8984 10.2422 12.8984H13.7578C13.9196 12.8984 14.0508 12.7673 14.0508 12.6055C14.0508 12.4437 13.9196 12.3125 13.7578 12.3125Z" fill="white"/>
<path d="M13.7578 13.4844H10.2422C10.0804 13.4844 9.94922 13.6155 9.94922 13.7773C9.94922 13.9391 10.0804 14.0703 10.2422 14.0703H13.7578C13.9196 14.0703 14.0508 13.9391 14.0508 13.7773C14.0508 13.6155 13.9196 13.4844 13.7578 13.4844Z" fill="white"/>
<path d="M12.5859 14.6562H10.2422C10.0804 14.6562 9.94922 14.7874 9.94922 14.9492C9.94922 15.111 10.0804 15.2422 10.2422 15.2422H12.5859C12.7477 15.2422 12.8789 15.111 12.8789 14.9492C12.8789 14.7874 12.7477 14.6562 12.5859 14.6562Z" fill="white"/>
</g>
<defs>
<clipPath id="clip0_816_6016">
<rect width="10" height="10" fill="white" transform="translate(7 7)"/>
</clipPath>
</defs>
</svg>
