<svg width="28" height="28" viewBox="0 0 28 28" fill="none" xmlns="http://www.w3.org/2000/svg">
<path fill-rule="evenodd" clip-rule="evenodd" d="M14.349 0.204094L15.534 2.30929C15.5962 2.41953 15.6956 2.4885 15.8205 2.50819C15.9454 2.52772 16.0613 2.49307 16.1542 2.4074L17.9315 0.771339C18.0409 0.670709 18.1852 0.639213 18.3265 0.685354C18.4676 0.731181 18.5658 0.841575 18.5951 0.987087L19.0717 3.35543C19.0967 3.47937 19.1698 3.57591 19.2825 3.63307C19.3951 3.69055 19.5159 3.69307 19.6309 3.64047L21.8269 2.63402C21.9622 2.57197 22.109 2.58646 22.2291 2.67417C22.3493 2.76142 22.4087 2.89669 22.3913 3.04394L22.1128 5.44362C22.0981 5.56945 22.1378 5.68362 22.2274 5.77307C22.3169 5.86236 22.431 5.9022 22.5567 5.8874L24.9562 5.60882C25.1038 5.59181 25.2391 5.65118 25.3263 5.77134C25.4135 5.8915 25.4282 6.03827 25.3665 6.17339L24.3598 8.36929C24.3071 8.48425 24.3098 8.60535 24.3671 8.71795C24.4246 8.83055 24.5209 8.90378 24.6447 8.92866L27.0132 9.4052C27.1589 9.43449 27.269 9.5326 27.315 9.67402C27.3608 9.81528 27.3293 9.95953 27.2288 10.0687L25.5929 11.8461C25.5072 11.9394 25.4723 12.055 25.4918 12.18C25.5117 12.3049 25.5808 12.4043 25.691 12.4661L27.7962 13.6512C27.9255 13.7241 28 13.8517 28 14.0003C28 14.1488 27.9255 14.2762 27.7962 14.349L25.691 15.534C25.5808 15.5962 25.5115 15.6953 25.4918 15.8205C25.4723 15.9454 25.5072 16.0613 25.5929 16.1542L27.2288 17.9315C27.3293 18.0408 27.3608 18.1852 27.3146 18.3265C27.2688 18.4676 27.1586 18.5658 27.0132 18.5951L24.6447 19.0717C24.5206 19.0967 24.4244 19.1694 24.3669 19.2824C24.3094 19.3951 24.3071 19.5159 24.3598 19.6309L25.3663 21.8269C25.4282 21.9619 25.4135 22.109 25.3261 22.2291C25.2389 22.349 25.1036 22.4083 24.9562 22.3913L22.5567 22.1128C22.431 22.0981 22.3167 22.1378 22.2272 22.2272C22.1378 22.3167 22.0981 22.431 22.1128 22.5567L22.3913 24.9562C22.4083 25.1036 22.349 25.2389 22.2288 25.3261C22.109 25.4134 21.9619 25.428 21.8269 25.3663L19.6309 24.3598C19.5159 24.3071 19.3948 24.3098 19.2824 24.3669C19.1694 24.4244 19.0964 24.5209 19.0717 24.645L18.5951 27.0132C18.5658 27.1586 18.4674 27.2688 18.3265 27.3146C18.1852 27.3608 18.0408 27.3293 17.9315 27.2288L16.1542 25.5929C16.0613 25.5072 15.9454 25.4723 15.8205 25.4918C15.6953 25.5117 15.5962 25.5808 15.534 25.6912L14.349 27.7962C14.2762 27.9255 14.1488 27.9997 14.0003 28C13.8517 28 13.7241 27.9255 13.6512 27.7962L12.4661 25.6912C12.4043 25.5809 12.3049 25.5117 12.18 25.4921C12.055 25.4723 11.9394 25.5072 11.8461 25.5931L10.069 27.2288C9.95969 27.3293 9.81543 27.3608 9.67433 27.315C9.53291 27.269 9.43449 27.1589 9.4052 27.0132L8.92866 24.6447C8.90378 24.5209 8.83055 24.4246 8.71795 24.3671C8.60535 24.3098 8.48425 24.3071 8.36929 24.3598L6.17339 25.3663C6.03827 25.4282 5.8915 25.4135 5.77134 25.3263C5.65118 25.2391 5.59181 25.1038 5.60882 24.9562L5.8874 22.5567C5.9022 22.431 5.86221 22.3169 5.77307 22.2274C5.68362 22.1378 5.56945 22.0981 5.44362 22.1128L3.04394 22.3913C2.89638 22.4087 2.76142 22.349 2.67386 22.2291C2.58661 22.1088 2.57197 21.9617 2.63402 21.8266L3.64047 19.6309C3.69307 19.5159 3.69024 19.3951 3.63307 19.2824C3.57559 19.1694 3.47937 19.0967 3.35528 19.0717L0.987087 18.5951C0.841417 18.5658 0.731181 18.4676 0.685354 18.3265C0.639213 18.185 0.670866 18.0405 0.771654 17.9313L2.4074 16.1542C2.49307 16.0613 2.52772 15.9454 2.50819 15.8205C2.4885 15.6953 2.41921 15.5962 2.30898 15.534L0.204094 14.349C0.0748032 14.2762 0.000314961 14.1488 0 14.0003C0 13.8517 0.0744882 13.7241 0.204094 13.6512L2.30898 12.4661C2.41921 12.4043 2.48835 12.3049 2.50819 12.1798C2.52772 12.055 2.49307 11.9394 2.4074 11.8461L0.771339 10.069C0.670709 9.95969 0.639213 9.81543 0.685039 9.67402C0.731024 9.5326 0.841417 9.43449 0.987087 9.4052L3.35543 8.92866C3.47937 8.90362 3.57559 8.83055 3.63307 8.71795C3.69024 8.6052 3.69307 8.48425 3.64047 8.36929L2.63402 6.17339C2.57197 6.03827 2.58646 5.89118 2.67386 5.77118C2.7611 5.65102 2.89638 5.59165 3.04394 5.60882L5.44362 5.8874C5.56913 5.9022 5.68331 5.86221 5.77276 5.77276C5.86221 5.68331 5.9022 5.56913 5.8874 5.44362L5.60882 3.04394C5.59165 2.89638 5.65102 2.7611 5.77118 2.67386C5.89118 2.58646 6.03827 2.57197 6.17339 2.63402L8.36929 3.64047C8.48425 3.69307 8.6052 3.69024 8.71764 3.63307C8.83055 3.57559 8.90362 3.47937 8.92866 3.35543L9.4052 0.987087C9.43449 0.841417 9.5326 0.731024 9.67386 0.685039C9.81528 0.639213 9.95953 0.670866 10.0687 0.771339L11.8461 2.4074C11.9394 2.49307 12.055 2.52772 12.1798 2.50819C12.3047 2.48835 12.4043 2.41953 12.4661 2.30929L13.6512 0.204094C13.7241 0.0744882 13.8515 0 14.0003 0C14.1488 0.000314961 14.2762 0.0748032 14.349 0.204094Z" fill="#8280FF"/>
<path fill-rule="evenodd" clip-rule="evenodd" d="M6.83477 17.7496L5.98438 12.9271L6.93209 12.7598L9.47414 15.6321L8.90626 12.4118L9.8113 12.2521L10.6615 17.075L9.68343 17.2474L7.18516 14.4449L7.73965 17.5901L6.83477 17.7496ZM11.9255 16.852L11.0751 12.0294L14.6502 11.3989L14.7943 12.2153L12.1924 12.674L12.3809 13.743L14.8019 13.3161L14.9452 14.1279L12.5242 14.5548L12.7556 15.8672L15.4493 15.3924L15.5926 16.2055L11.9255 16.852ZM17.3371 15.8978L15.3357 11.2781L16.3318 11.1024L17.6436 14.2866L17.9409 10.8189L19.0987 10.6145L20.5379 13.834L20.6839 10.335L21.6641 10.162L21.3436 15.1913L20.3104 15.3735L18.7146 11.9373L18.3926 15.7117L17.3371 15.8978Z" fill="white"/>
</svg>
