<svg width="28" height="28" viewBox="0 0 28 28" fill="none" xmlns="http://www.w3.org/2000/svg">
<path d="M11.4003 22.6794C10.6574 22.468 9.99629 22.0359 9.50447 21.4404C9.41615 21.3487 9.29143 21.2194 9.21863 21.1561C9.12349 21.1362 8.94348 21.1168 8.81818 21.1032C8.05705 21.0771 7.32172 20.8209 6.70931 20.3682C6.38581 20.1 6.12123 19.7679 5.93219 19.3927L3.65748 23.3334C3.54751 23.5236 3.49354 23.7411 3.5018 23.9608C3.51006 24.1804 3.58022 24.3932 3.70419 24.5747C3.82815 24.7562 4.00088 24.8989 4.20246 24.9865C4.40404 25.0741 4.62626 25.1029 4.84352 25.0697L6.87433 24.7609L7.62287 26.6756C7.70208 26.8806 7.83805 27.0589 8.01487 27.1896C8.19169 27.3202 8.40206 27.3978 8.62136 27.4132C8.65154 27.4155 8.68173 27.4167 8.71195 27.4167C8.91649 27.4172 9.1175 27.3635 9.29451 27.261C9.47153 27.1585 9.61823 27.011 9.71966 26.8334L12.0795 22.7456C12.062 22.7459 12.0457 22.7494 12.0279 22.7494C11.8167 22.7498 11.6062 22.7263 11.4003 22.6794Z" fill="#8280FF"/>
<path d="M22.0674 19.3922C21.8786 19.7678 21.6142 20.1002 21.2909 20.3688C20.6784 20.8214 19.9431 21.0776 19.182 21.1038C19.0556 21.1175 18.875 21.1368 18.7804 21.1568C18.7075 21.22 18.5816 21.3505 18.4946 21.4416C18.0038 22.0354 17.3446 22.4666 16.6039 22.6783C16.3959 22.7262 16.1831 22.7503 15.9697 22.75C15.9529 22.75 15.9376 22.7467 15.9209 22.7464L18.2802 26.8333C18.3817 27.0109 18.5284 27.1585 18.7054 27.261C18.8824 27.3634 19.0834 27.4172 19.288 27.4167C19.3181 27.4167 19.3483 27.4155 19.3785 27.4132C19.598 27.3977 19.8085 27.32 19.9854 27.1893C20.1624 27.0586 20.2984 26.8802 20.3777 26.675L21.1257 24.7609L23.1557 25.0697C23.373 25.1031 23.5953 25.0744 23.797 24.9869C23.9988 24.8994 24.1716 24.7566 24.2957 24.5751C24.4198 24.3936 24.49 24.1807 24.4983 23.961C24.5066 23.7413 24.4526 23.5237 24.3426 23.3333L22.0674 19.3922Z" fill="#8280FF"/>
<path d="M14.0003 5.25C12.8466 5.25 11.7188 5.59212 10.7595 6.23309C9.80021 6.87407 9.05254 7.78511 8.61103 8.85101C8.16952 9.91692 8.054 11.0898 8.27908 12.2214C8.50416 13.3529 9.05973 14.3923 9.87554 15.2081C10.6913 16.0239 11.7307 16.5795 12.8623 16.8046C13.9939 17.0297 15.1667 16.9141 16.2326 16.4726C17.2985 16.0311 18.2096 15.2834 18.8506 14.3242C19.4915 13.3649 19.8337 12.2371 19.8337 11.0833C19.8318 9.5368 19.2167 8.05412 18.1231 6.96056C17.0295 5.86699 15.5469 5.25182 14.0003 5.25ZM16.819 9.65691L14.4857 13.1569C14.4378 13.2287 14.3746 13.2889 14.3006 13.3333C14.2266 13.3777 14.1437 13.4051 14.0578 13.4136C14.0385 13.4155 14.0191 13.4167 14.0003 13.4167C13.8456 13.4166 13.6973 13.3552 13.5879 13.2458L11.8379 11.4958C11.7317 11.3857 11.6729 11.2384 11.6742 11.0854C11.6755 10.9325 11.7369 10.7862 11.845 10.678C11.9532 10.5699 12.0995 10.5085 12.2524 10.5072C12.4054 10.5059 12.5527 10.5647 12.6627 10.6709L13.9097 11.9179L15.8483 9.00976C15.9341 8.88118 16.0676 8.79195 16.2192 8.76169C16.3708 8.73143 16.5283 8.76261 16.6569 8.84838C16.7856 8.93415 16.8749 9.06749 16.9053 9.2191C16.9357 9.37071 16.9047 9.52818 16.819 9.65691Z" fill="#8280FF"/>
<path d="M16.3392 21.5418C16.857 21.3743 17.314 21.0581 17.6532 20.6325C17.8272 20.4269 18.0316 20.2492 18.2594 20.1056C18.5144 20.0104 18.7827 19.9559 19.0546 19.9438C19.59 19.9352 20.111 19.7688 20.5523 19.4655C20.9404 19.0889 21.2128 18.6093 21.3373 18.083C21.4089 17.8143 21.5207 17.5579 21.6688 17.3225C21.857 17.1261 22.0743 16.9599 22.3131 16.8298C22.7948 16.5841 23.1946 16.2037 23.4639 15.7349C23.6517 15.2311 23.6932 14.6844 23.5835 14.158C23.5333 13.8781 23.5258 13.5921 23.5613 13.3098C23.646 13.0529 23.7692 12.8104 23.9265 12.5903C24.2577 12.1531 24.4567 11.6302 24.5 11.0834C24.4565 10.5369 24.2576 10.0143 23.9269 9.57719C23.7693 9.35702 23.646 9.11424 23.5612 8.85712C23.5256 8.57508 23.5331 8.28927 23.5834 8.00948C23.693 7.48315 23.6517 6.93658 23.4643 6.43267C23.1949 5.96427 22.7954 5.58412 22.3142 5.33834C22.0751 5.20782 21.8576 5.04123 21.6693 4.84443C21.521 4.60906 21.4091 4.35268 21.3372 4.08394C21.2131 3.55783 20.9409 3.07827 20.5528 2.70196C20.1115 2.39866 19.5906 2.23227 19.0552 2.22363C18.7833 2.2116 18.5149 2.15702 18.2599 2.06187C18.0324 1.91787 17.828 1.74021 17.6538 1.53494C17.3145 1.10889 16.8573 0.792143 16.3392 0.624186C15.815 0.550024 15.2805 0.631443 14.8022 0.858336C14.5475 0.97015 14.2768 1.04133 14 1.06927C13.7234 1.04143 13.453 0.970308 13.1985 0.858511C12.7201 0.631247 12.1853 0.550086 11.661 0.625178C11.1432 0.792521 10.6861 1.10868 10.3468 1.53419C10.1728 1.73976 9.96839 1.91746 9.74062 2.06111C9.48561 2.15626 9.21727 2.21084 8.94536 2.22287C8.40996 2.23151 7.889 2.3979 7.44771 2.7012C7.05958 3.07777 6.78722 3.55745 6.66272 4.0837C6.59113 4.35245 6.47934 4.60884 6.33115 4.8442C6.14297 5.04056 5.92566 5.20676 5.68686 5.33694C5.20522 5.5826 4.80541 5.96301 4.53612 6.43185C4.34832 6.93565 4.30685 7.48229 4.41648 8.00866C4.46674 8.28865 4.47424 8.57465 4.4387 8.85689C4.35396 9.11376 4.23084 9.35633 4.07353 9.57637C3.74231 10.0136 3.54328 10.5365 3.5 11.0834C3.54353 11.6298 3.74236 12.1524 4.07307 12.5895C4.23067 12.8097 4.35398 13.0525 4.43882 13.3096C4.47438 13.5917 4.46689 13.8776 4.41659 14.1575C4.30705 14.6839 4.34832 15.2304 4.53565 15.7343C4.80506 16.2027 5.2046 16.5829 5.68581 16.8287C5.92487 16.9592 6.14239 17.1258 6.33068 17.3226C6.47896 17.5579 6.59092 17.8143 6.66277 18.0831C6.78692 18.6092 7.05912 19.0887 7.44718 19.465C7.88847 19.7683 8.40943 19.9347 8.94483 19.9434C9.21674 19.9554 9.48509 20.01 9.74009 20.1051C9.9676 20.2491 10.172 20.4268 10.3462 20.6321C10.6856 21.058 11.1428 21.3746 11.6608 21.5425C12.185 21.6165 12.7194 21.535 13.1978 21.3084C13.4525 21.1966 13.7232 21.1254 14 21.0974C14.2766 21.1253 14.547 21.1964 14.8015 21.3082C15.1717 21.4675 15.567 21.5607 15.9693 21.5834C16.0938 21.5838 16.2179 21.5698 16.3392 21.5418ZM14 18.0834C12.6155 18.0834 11.2622 17.6728 10.111 16.9036C8.95986 16.1345 8.06266 15.0412 7.53284 13.7621C7.00303 12.4831 6.86441 11.0756 7.1345 9.71772C7.4046 8.35985 8.07128 7.11257 9.05025 6.13361C10.0292 5.15464 11.2765 4.48795 12.6344 4.21786C13.9922 3.94776 15.3997 4.08638 16.6788 4.6162C17.9579 5.14601 19.0511 6.04322 19.8203 7.19436C20.5895 8.34551 21 9.69888 21 11.0834C20.998 12.9392 20.2598 14.7186 18.9475 16.0309C17.6352 17.3432 15.8559 18.0813 14 18.0834Z" fill="#8280FF"/>
</svg>
