<svg width="32" height="32" viewBox="0 0 32 32" fill="none" xmlns="http://www.w3.org/2000/svg">
<path d="M8.4495 22.1333L6.19083 21.7893C6.10442 21.7764 6.02254 21.7423 5.95248 21.6901C5.88241 21.6379 5.82633 21.5692 5.78923 21.4901L4.80043 19.3968L3.81163 21.4933C3.77453 21.5724 3.71846 21.6411 3.64839 21.6933C3.57833 21.7455 3.49645 21.7796 3.41003 21.7925L1.15137 22.1333L2.8015 23.8155C2.86025 23.8753 2.90406 23.9482 2.92936 24.0282C2.95466 24.1081 2.96074 24.193 2.9471 24.2757L2.5631 26.6192L4.5439 25.5301C4.62238 25.4866 4.71067 25.4637 4.80043 25.4637C4.8902 25.4637 4.97848 25.4866 5.05697 25.5301L7.04043 26.6208L6.65643 24.2773C6.6428 24.1946 6.64888 24.1097 6.67418 24.0298C6.69948 23.9498 6.74328 23.8769 6.80203 23.8171L8.4495 22.1333Z" fill="#8280FF"/>
<path d="M22.7451 16.7019L18.4966 16.079C18.4109 16.0664 18.3296 16.0332 18.2596 15.9822C18.1896 15.9312 18.1331 15.8639 18.095 15.7862L16.1947 11.9024C16.1779 11.8649 16.1506 11.833 16.116 11.8106C16.0815 11.7883 16.0412 11.7764 16.0001 11.7764C15.9589 11.7764 15.9186 11.7883 15.8841 11.8106C15.8496 11.833 15.8222 11.8649 15.8054 11.9024L13.9051 15.7867C13.867 15.8644 13.8105 15.9317 13.7405 15.9827C13.6706 16.0338 13.5892 16.067 13.5035 16.0795L9.25553 16.7024C9.21457 16.7077 9.17604 16.7248 9.14461 16.7516C9.11318 16.7784 9.0902 16.8138 9.07846 16.8534C9.06467 16.8937 9.06267 16.9372 9.07268 16.9787C9.08269 17.0201 9.10431 17.0579 9.135 17.0875L12.2097 20.1104C12.2709 20.1707 12.3167 20.245 12.343 20.3268C12.3694 20.4086 12.3756 20.4956 12.3611 20.5803L11.6347 24.847C11.6269 24.8889 11.6312 24.9321 11.6472 24.9716C11.6631 25.0111 11.6901 25.0452 11.7249 25.0699C11.7569 25.0941 11.7953 25.1084 11.8354 25.1112C11.8754 25.1139 11.9154 25.105 11.9505 25.0854L15.7499 23.0704C15.827 23.0298 15.9129 23.0086 16.0001 23.0086C16.0872 23.0086 16.1731 23.0298 16.2502 23.0704L20.0502 25.0854C20.0852 25.1048 20.1251 25.1136 20.165 25.1109C20.205 25.1082 20.2432 25.0939 20.2753 25.0699C20.31 25.0453 20.337 25.0111 20.3529 24.9716C20.3687 24.9321 20.3729 24.8888 20.3649 24.847L19.639 20.5803C19.6245 20.4956 19.6307 20.4086 19.6571 20.3268C19.6835 20.245 19.7292 20.1707 19.7905 20.1104L22.8651 17.0875C22.8958 17.0579 22.9174 17.0201 22.9274 16.9787C22.9375 16.9372 22.9355 16.8937 22.9217 16.8534C22.9101 16.8137 22.8872 16.7783 22.8559 16.7515C22.8245 16.7246 22.7861 16.7074 22.7451 16.7019Z" fill="#8280FF"/>
<path d="M29.1988 23.8171L30.8489 22.1333L28.5902 21.7893C28.5038 21.7764 28.422 21.7423 28.3519 21.6901C28.2818 21.6379 28.2257 21.5692 28.1886 21.4901L27.1998 19.3968L26.211 21.4933C26.1739 21.5724 26.1179 21.6411 26.0478 21.6933C25.9777 21.7455 25.8959 21.7796 25.8094 21.7925L23.5508 22.1365L25.2009 23.8187C25.2597 23.8785 25.3035 23.9514 25.3288 24.0314C25.3541 24.1113 25.3601 24.1962 25.3465 24.2789L24.9625 26.6224L26.9433 25.5333C27.0218 25.4898 27.1101 25.4669 27.1998 25.4669C27.2896 25.4669 27.3779 25.4898 27.4564 25.5333L29.4398 26.6208L29.0558 24.2773C29.0419 24.1948 29.0475 24.1101 29.0724 24.0301C29.0972 23.9502 29.1405 23.8772 29.1988 23.8171Z" fill="#8280FF"/>
<path d="M16.0001 9.64588C16.1416 9.64588 16.2772 9.58969 16.3773 9.48967C16.4773 9.38965 16.5335 9.25399 16.5335 9.11255V5.91254C16.5335 5.7711 16.4773 5.63544 16.3773 5.53542C16.2772 5.4354 16.1416 5.37921 16.0001 5.37921C15.8587 5.37921 15.723 5.4354 15.623 5.53542C15.523 5.63544 15.4668 5.7711 15.4668 5.91254V9.11255C15.4668 9.25399 15.523 9.38965 15.623 9.48967C15.723 9.58969 15.8587 9.64588 16.0001 9.64588Z" fill="#8280FF"/>
<path d="M10.7132 10.3573C10.7738 10.4819 10.8805 10.578 11.0108 10.6253C11.141 10.6726 11.2846 10.6673 11.411 10.6106C11.5374 10.5539 11.6368 10.4502 11.6882 10.3215C11.7395 10.1928 11.7387 10.0492 11.686 9.92105L10.3772 7.00105C10.3166 6.87645 10.2098 6.78034 10.0796 6.73306C9.94932 6.68578 9.80578 6.69105 9.67935 6.74775C9.55292 6.80445 9.45352 6.90813 9.40219 7.03684C9.35087 7.16555 9.35165 7.30918 9.40438 7.43732L10.7132 10.3573Z" fill="#8280FF"/>
<path d="M20.5819 10.6256C20.7107 10.6835 20.8572 10.6879 20.9893 10.6379C21.1213 10.5879 21.2282 10.4876 21.2864 10.3589L22.5952 7.43891C22.6479 7.31077 22.6487 7.16713 22.5974 7.03842C22.5461 6.90972 22.4466 6.80603 22.3202 6.74933C22.1938 6.69263 22.0502 6.68736 21.92 6.73464C21.7897 6.78192 21.683 6.87804 21.6224 7.00264L20.3136 9.91998C20.2848 9.98391 20.2689 10.0529 20.2668 10.123C20.2647 10.1931 20.2765 10.2629 20.3014 10.3284C20.3263 10.3939 20.3639 10.4539 20.412 10.5049C20.4602 10.5559 20.5179 10.5969 20.5819 10.6256Z" fill="#8280FF"/>
</svg>
