<svg width="28" height="28" viewBox="0 0 28 28" fill="none" xmlns="http://www.w3.org/2000/svg">
<path d="M24.6777 19.39C29.1075 14.9602 29.1074 7.75224 24.6777 3.32239C20.2479 -1.10746 13.04 -1.10746 8.61024 3.32239C4.85211 7.08052 4.28294 12.6698 6.9012 17.0344C6.9012 17.0344 7.08927 17.35 6.83527 17.6038C5.38619 19.0528 1.03869 23.4004 1.03869 23.4004C-0.115068 24.554 -0.389729 26.1673 0.633419 27.1906L0.809581 27.3666C1.83273 28.3899 3.44606 28.1153 4.59973 26.9616C4.59973 26.9616 8.93803 22.6232 10.3841 21.1772C10.6503 20.911 10.9657 21.0991 10.9657 21.0991C15.3303 23.7172 20.9196 23.1482 24.6777 19.39ZM10.7078 17.2924C7.43456 14.0192 7.43465 8.6934 10.7079 5.42019C13.9811 2.14707 19.3069 2.14698 22.58 5.42019C25.8532 8.69331 25.8532 14.0192 22.58 17.2924C19.3068 20.5655 13.9811 20.5655 10.7078 17.2924Z" fill="#8280FF"/>
<path d="M11.4332 10.682C11.2808 10.682 11.126 10.6521 10.9767 10.589C10.3804 10.3366 10.1014 9.64859 10.3537 9.05219C11.94 5.30353 16.2802 3.54434 20.0288 5.13062C20.6251 5.383 20.9041 6.07105 20.6517 6.66746C20.3992 7.26386 19.7114 7.54268 19.1148 7.29038C16.5572 6.20815 13.5957 7.40846 12.5136 9.96601C12.3243 10.4133 11.89 10.682 11.4332 10.682Z" fill="#8280FF"/>
</svg>
