<svg width="28" height="28" viewBox="0 0 28 28" fill="none" xmlns="http://www.w3.org/2000/svg">
<path d="M16 16H12C10.8954 16 10 16.8954 10 18V26C10 27.1046 10.8954 28 12 28H16C17.1046 28 18 27.1046 18 26V18C18 16.8954 17.1046 16 16 16Z" fill="#8280FF"/>
<path d="M6 19H2C0.89543 19 0 19.8954 0 21V26C0 27.1046 0.89543 28 2 28H6C7.10457 28 8 27.1046 8 26V21C8 19.8954 7.10457 19 6 19Z" fill="#8280FF"/>
<path d="M26 11H22C20.8954 11 20 11.8954 20 13V26C20 27.1046 20.8954 28 22 28H26C27.1046 28 28 27.1046 28 26V13C28 11.8954 27.1046 11 26 11Z" fill="#8280FF"/>
<path d="M3.99964 15C4.08294 14.9999 4.16591 14.9895 4.24664 14.969C7.82591 14.0572 11.2698 12.6787 14.4896 10.869C17.9949 8.88819 21.1976 6.41428 23.9996 3.523V6C23.9996 6.26522 24.105 6.51957 24.2925 6.70711C24.4801 6.89464 24.7344 7 24.9996 7C25.2649 7 25.5192 6.89464 25.7067 6.70711C25.8943 6.51957 25.9996 6.26522 25.9996 6V1C25.9996 0.734784 25.8943 0.48043 25.7067 0.292893C25.5192 0.105357 25.2649 0 24.9996 0H19.9996C19.7344 0 19.4801 0.105357 19.2925 0.292893C19.105 0.48043 18.9996 0.734784 18.9996 1C18.9996 1.26522 19.105 1.51957 19.2925 1.70711C19.4801 1.89464 19.7344 2 19.9996 2H22.6756C19.983 4.8089 16.8952 7.21016 13.5096 9.128C10.4424 10.8502 7.1619 12.1614 3.75264 13.028C3.51369 13.0857 3.30435 13.2294 3.16461 13.4316C3.02487 13.6338 2.96451 13.8804 2.99506 14.1244C3.02561 14.3683 3.14493 14.5924 3.33023 14.7539C3.51554 14.9154 3.75384 15.003 3.99964 15Z" fill="#8280FF"/>
</svg>
