<svg width="22" height="29" viewBox="0 0 22 29" fill="none" xmlns="http://www.w3.org/2000/svg">
<path d="M19.71 8.30557C19.5977 8.19312 19.4602 8.10906 19.3089 8.06037C19.1576 8.01167 18.9968 7.99975 18.84 8.02557C18.6843 8.05159 18.5371 8.11409 18.4102 8.20794C18.2833 8.30179 18.1804 8.42435 18.11 8.56557C17.8041 9.0948 17.431 9.58218 17 10.0156C16.8985 7.38659 15.9357 4.86383 14.26 2.83557C13.3225 1.87294 12.1891 1.12297 10.9365 0.636442C9.68397 0.149912 8.3415 -0.0618226 7 0.0155726C6.8191 0.0160553 6.64171 0.0656027 6.48674 0.158936C6.33177 0.25227 6.20502 0.385894 6.12 0.545573C6.03971 0.701945 6.00205 0.876719 6.01083 1.05228C6.01961 1.22784 6.07451 1.39799 6.17 1.54557C6.31 1.75557 9.35 6.43557 5.88 10.6456C5 9.95557 4 8.86557 4 8.01557C3.99867 7.79165 3.92223 7.57466 3.78291 7.39935C3.6436 7.22404 3.44947 7.10056 3.23164 7.04869C3.0138 6.99683 2.78486 7.01958 2.58149 7.11329C2.37812 7.20701 2.21209 7.36628 2.11 7.56557C0.744069 10.5302 0.024799 13.7515 0 17.0156C0 25.6356 6.41 27.8756 6.68 28.0156C6.8738 28.0814 7.08315 28.0862 7.27976 28.0293C7.47637 27.9724 7.65079 27.8565 7.77945 27.6973C7.90811 27.5381 7.98482 27.3433 7.99923 27.1391C8.01363 26.9349 7.96504 26.7313 7.86 26.5556C6.91135 24.8522 6.53618 22.8887 6.79 20.9556C7.40599 22.1502 8.32281 23.1635 9.45 23.8956C9.66206 24.0362 9.91973 24.0907 10.1705 24.0479C10.4214 24.0052 10.6465 23.8685 10.8 23.6656C12.1828 21.6423 12.8386 19.2098 12.66 16.7656C13.71 18.3756 14.51 21.3856 13.04 26.7656C13.002 26.9127 12.998 27.0665 13.0284 27.2154C13.0587 27.3642 13.1226 27.5042 13.2151 27.6247C13.3077 27.7452 13.4265 27.843 13.5624 27.9107C13.6984 27.9785 13.8481 28.0143 14 28.0156C14.0894 28.0301 14.1806 28.0301 14.27 28.0156C16.564 27.2475 18.552 25.7654 19.9429 23.786C21.3338 21.8067 22.0547 19.4341 22 17.0156C22 10.7856 19.94 8.54557 19.71 8.30557Z" fill="#8280FF"/>
</svg>
