<svg width="15" height="22" viewBox="0 0 15 22" fill="none" xmlns="http://www.w3.org/2000/svg">
<path d="M9.67209 9.60241L7.44412 12.974L4.14954 16.3333C2.92425 14.7375 1.58626 13.1916 0.770508 11.3219L2.54634 8.53408L5.27 5.84131C4.35969 6.99421 4.42766 8.68984 5.47395 9.76204C6.59332 10.9091 8.40772 10.9091 9.52705 9.76204C9.57749 9.71035 9.62622 9.65694 9.67209 9.60241Z" fill="#ECB72B"/>
<path d="M9.72237 9.53919C10.6406 8.38573 10.5755 6.68425 9.5258 5.60917C8.40643 4.46208 6.59202 4.46208 5.4727 5.60917C5.42569 5.65734 5.38091 5.70671 5.33789 5.7572L7.21683 2.62705L9.76598 0.35791C11.6699 0.975544 13.2447 2.35076 14.1539 4.13818L12.2942 7.21114L9.72237 9.53919Z" fill="#5085F7"/>
<path d="M5.26933 5.84141L0.769713 11.322C0.32345 10.3001 0.0333343 9.18146 0.00339608 7.90477C0.00113185 7.8322 0 7.75906 0 7.68593C0 5.80742 0.657676 4.08562 1.75042 2.75049L5.26933 5.84141Z" fill="#DA2F2A"/>
<path d="M5.26904 5.84157L1.75 2.75043C3.12598 1.06928 5.1908 0 7.49973 0C8.2899 0 9.05152 0.125297 9.76668 0.357501L5.26904 5.84157Z" fill="#4274EB"/>
<path d="M14.9996 7.6856C14.9996 6.40604 14.6944 5.19947 14.1547 4.13818L4.14844 16.3339C5.28529 17.8158 6.32407 19.341 6.75579 21.2088C6.76962 21.2687 6.78451 21.3386 6.80036 21.4172C6.95688 22.1943 8.04275 22.1943 8.19928 21.4172C8.21513 21.3386 8.23001 21.2687 8.24385 21.2088C9.39475 16.2291 14.8607 13.6842 14.9964 7.90492C14.9983 7.83204 14.9996 7.75895 14.9996 7.6856Z" fill="#60A850"/>
</svg>
