<svg width="46" height="46" viewBox="0 0 46 46" fill="none" xmlns="http://www.w3.org/2000/svg">
<g filter="url(#filter0_d_329_44288)">
<circle cx="23" cy="23" r="19" fill="white"/>
<circle cx="23" cy="23" r="18.5" stroke="#8280FF"/>
</g>
<g clip-path="url(#clip0_329_44288)">
<path d="M13.6121 29.1319H32.3878C33.7084 27.2616 34.4844 24.9794 34.4844 22.5157C34.4844 16.173 29.3427 11.0312 23 11.0312C16.6573 11.0312 11.5155 16.173 11.5155 22.5157C11.5155 24.9794 12.2916 27.2616 13.6121 29.1319Z" fill="#FFC839"/>
<path d="M32.17 28.6029C31.4558 27.1745 30.2022 26.7756 29.6311 26.6659C29.6311 26.6659 28.1703 26.3993 26.8797 25.8745C26.84 26.0014 26.7534 26.114 26.6265 26.1824C25.746 26.6572 24.5584 27.0467 23.0312 27.0467C22.7202 27.0467 22.424 27.0298 22.1409 27C22.1482 27.0165 22.1551 27.0328 22.1629 27.0494C21.8485 27.0892 20.8418 27.2422 19.8465 27.6692C18.2518 28.3532 17.4088 29.4248 17.4088 30.7683V32.549C19.0635 33.4732 20.9701 34.0002 23 34.0002C26.8791 34.0002 30.3086 32.0768 32.3879 29.1319C32.3222 28.9401 32.2499 28.7628 32.17 28.6029Z" fill="#72AAFC"/>
<path d="M19.1752 25.8521C17.8715 26.3917 16.3689 26.666 16.3689 26.666C15.7978 26.7757 14.5443 27.1745 13.8301 28.603C13.7501 28.7628 13.6779 28.9402 13.6122 29.1319C14.6188 30.5576 15.9418 31.7438 17.4791 32.5884C17.4791 32.1065 17.4791 31.5088 17.4791 30.7683C17.4791 27.5568 22.2693 27.1079 22.2693 27.1079C22.2524 27.0744 22.2368 27.0414 22.2218 27.0087C21.0768 26.9 20.1537 26.5695 19.4353 26.182C19.301 26.1095 19.2114 25.9879 19.1752 25.8521Z" fill="#548BED"/>
<path d="M26.9496 25.4742L26.0495 24.0285C25.9228 23.825 25.6793 23.7284 25.4469 23.7869C24.7444 23.9636 23.9199 24.0971 23.0312 24.0971C22.9386 24.0971 22.8468 24.0953 22.7556 24.0925V24.8616C22.6198 24.9289 22.206 25.1679 22.0241 25.6578C21.8741 26.0615 21.9208 26.5292 22.1628 27.0491C22.1144 27.0552 22.0496 27.0641 21.9711 27.0761C22.3054 27.117 22.6581 27.1401 23.0311 27.1401C24.6088 27.1401 25.8357 26.7378 26.7453 26.2474C27.0238 26.0973 27.1167 25.7427 26.9496 25.4742Z" fill="#548BED"/>
<path d="M20.6148 23.7864C20.3824 23.7279 20.1389 23.8245 20.0122 24.028L19.1122 25.4736C18.945 25.7421 19.0379 26.0966 19.3163 26.2468C20.0738 26.6554 21.0521 27.002 22.2689 27.1068C21.4505 25.4777 22.8259 24.9064 22.8259 24.9064V24.0945C22.0155 24.0759 21.2632 23.9498 20.6148 23.7864Z" fill="#3E7FDD"/>
<path d="M27.1561 23.2479C26.8397 22.1398 26.7086 21.2748 26.6801 20.6064C26.4399 21.4735 26.1259 22.2412 25.7434 22.8957C25.5227 23.2734 25.2487 23.6117 24.9306 23.9048C24.4553 26.6775 25.344 28.7662 26.0434 29.9076C26.1908 30.1481 26.5835 30.0473 26.5797 29.7695C26.5482 27.4709 28.0079 26.2314 27.1561 23.2479Z" fill="#828282"/>
<path d="M23.0306 11.8459C23.7678 11.8459 24.3931 11.9878 24.9195 12.2065C24.9344 12.1104 24.9422 12.0119 24.9422 11.9116C24.9422 10.8558 24.0863 10 23.0306 10C21.9749 10 21.119 10.8558 21.119 11.9116C21.119 12.0119 21.1268 12.1103 21.1417 12.2065C21.6681 11.9878 22.2935 11.8459 23.0306 11.8459Z" fill="#9A959C"/>
<path d="M23.0306 11.4409C22.2793 10.6896 23.0306 10 23.0306 10C21.9749 10 21.119 10.8558 21.119 11.9116C21.119 12.0119 21.1268 12.1103 21.1417 12.2065C21.6681 11.9878 22.2935 11.846 23.0306 11.846V11.4409Z" fill="#828282"/>
<path d="M20.8077 12.4842C21.3975 12.1799 22.131 11.9687 23.0307 11.9687C23.9303 11.9687 24.6638 12.1799 25.2536 12.4843C25.3584 12.5383 25.4595 12.5971 25.5576 12.6595C24.9655 11.9172 24.054 11.4409 23.0307 11.4409C22.0074 11.4409 21.0958 11.9171 20.5038 12.6594C20.6018 12.597 20.703 12.5383 20.8077 12.4842Z" fill="#D3DCFB"/>
<path d="M19.295 17.8202C19.3484 17.6452 19.4216 17.4937 19.5206 17.3822C19.6096 17.2818 19.6655 17.1577 19.6695 17.0248C19.6926 16.2488 19.9909 13.7346 22.8553 14.8327C22.9678 14.8758 23.0935 14.8758 23.206 14.8327C26.0704 13.7346 26.3687 16.2488 26.3918 17.0248C26.3958 17.1577 26.4517 17.2818 26.5407 17.3822C26.6397 17.4937 26.7129 17.6452 26.7664 17.8202V17.8202C26.9115 17.7234 27.1368 17.6567 27.3404 17.6615L27.3405 17.6609V15.7774C27.3405 14.3501 26.5448 13.0273 25.2536 12.3612C24.6638 12.0569 23.9303 11.8457 23.0307 11.8457C22.131 11.8457 21.3975 12.0569 20.8077 12.3612C19.5165 13.0273 18.7208 14.3501 18.7208 15.7774V17.6609L18.7209 17.6615C18.9245 17.6568 19.1498 17.7235 19.295 17.8202Z" fill="#9A959C"/>
<path d="M23.0307 11.8457C22.131 11.8457 21.3975 12.0569 20.8077 12.3612C19.5165 13.0273 18.7208 14.3501 18.7208 15.7774V17.6609L18.7209 17.6615C18.9245 17.6567 19.1498 17.7235 19.295 17.8202C19.3484 17.6452 19.4216 17.4937 19.5206 17.3822C19.6096 17.2818 19.6655 17.1576 19.6695 17.0248C19.6922 16.2637 19.9799 13.8309 22.6935 14.7738C22.6822 14.759 22.6713 14.7441 22.659 14.7295C21.3858 13.214 23.0307 11.8457 23.0307 11.8457Z" fill="#828282"/>
<path d="M19.2595 20.0581C19.2595 20.0581 19.0257 18.5787 19.295 17.6976C19.0507 17.5348 18.5787 17.4553 18.3664 17.6628C17.9318 18.0877 18.2503 18.7293 18.4027 19.1346C18.4495 19.259 18.4796 19.3849 18.4933 19.511C18.523 19.7849 18.6715 20.186 19.2874 20.1765C19.2781 20.1371 19.2686 20.0982 19.2595 20.0581Z" fill="#FC9460"/>
<path d="M27.6949 17.6628C27.4826 17.4553 27.0106 17.5348 26.7664 17.6976C27.0356 18.5787 26.8018 20.0581 26.8018 20.0581C26.7927 20.0982 26.7832 20.1371 26.7739 20.1765C27.3899 20.186 27.5384 19.785 27.5681 19.511C27.5817 19.3849 27.6119 19.259 27.6587 19.1346C27.8111 18.7293 28.1295 18.0877 27.6949 17.6628Z" fill="#FFAA7B"/>
<path d="M26.5637 17.239C26.475 17.139 26.4261 17.0221 26.4225 16.9011C26.4088 16.4404 26.2924 15.3129 25.511 14.7925C24.9567 14.4234 24.1775 14.4273 23.195 14.8041C23.089 14.8447 22.9722 14.8447 22.8663 14.8041C22.7471 14.7584 22.6311 14.7185 22.518 14.6837C21.7226 15.2171 21.604 16.367 21.5899 16.8373C21.5862 16.9611 21.5364 17.0805 21.4455 17.1828C20.9451 17.7467 21.0547 19.3942 21.1714 20.0724C21.43 21.2136 21.8045 22.2088 22.2844 23.0301C22.6814 23.7095 23.2454 24.2648 23.932 24.6602C24.6945 24.2699 25.3172 23.6862 25.7433 22.9568C26.2126 22.1538 26.5788 21.1807 26.8322 20.0626C26.9418 19.3655 27.0587 17.7968 26.5637 17.239Z" fill="#FFC7AB"/>
<path d="M22.3232 22.957C21.8539 22.1538 21.4877 21.1807 21.2349 20.0648C21.1207 19.4016 21.0136 17.7906 21.5028 17.2392C21.5917 17.1391 21.6405 17.0223 21.6441 16.9012C21.6578 16.4406 21.7742 15.3129 22.5556 14.7926C22.5892 14.7702 22.6237 14.7493 22.659 14.7297C21.7738 14.4294 21.0649 14.45 20.5503 14.7926C19.7688 15.313 19.6525 16.4406 19.6388 16.9012C19.6352 17.0223 19.5864 17.1391 19.4976 17.2392C19.0083 17.7906 19.1154 19.4016 19.2296 20.0648C19.4824 21.1807 19.8487 22.1538 20.3179 22.957C20.7944 23.7724 21.5159 24.4065 22.4045 24.791C22.8025 24.9631 23.2589 24.9631 23.6568 24.791C23.7861 24.735 23.9113 24.6732 24.0333 24.6069C23.3169 24.2175 22.7304 23.6537 22.3232 22.957Z" fill="#FFAA7B"/>
<path d="M30.7867 30.9564C30.5556 30.0313 29.9823 29.4948 29.5176 29.201C29.2246 29.0157 28.8425 29.2242 28.8425 29.5709V32.4045C29.5417 31.9905 30.1931 31.5043 30.7867 30.9564Z" fill="#548BED"/>
<path d="M25.8541 24.9202C25.8541 26.1747 26.0611 27.3982 26.9534 27.5498C27.3037 26.3405 27.6986 25.1478 27.1561 23.2479C27.143 23.2021 27.1308 23.1573 27.1183 23.1123C26.5384 23.4232 25.8541 23.9875 25.8541 24.9202Z" fill="#9A959C"/>
</g>
<defs>
<filter id="filter0_d_329_44288" x="0" y="0" width="46" height="46" filterUnits="userSpaceOnUse" color-interpolation-filters="sRGB">
<feFlood flood-opacity="0" result="BackgroundImageFix"/>
<feColorMatrix in="SourceAlpha" type="matrix" values="0 0 0 0 0 0 0 0 0 0 0 0 0 0 0 0 0 0 127 0" result="hardAlpha"/>
<feOffset/>
<feGaussianBlur stdDeviation="2"/>
<feComposite in2="hardAlpha" operator="out"/>
<feColorMatrix type="matrix" values="0 0 0 0 0 0 0 0 0 0 0 0 0 0 0 0 0 0 0.25 0"/>
<feBlend mode="normal" in2="BackgroundImageFix" result="effect1_dropShadow_329_44288"/>
<feBlend mode="normal" in="SourceGraphic" in2="effect1_dropShadow_329_44288" result="shape"/>
</filter>
<clipPath id="clip0_329_44288">
<rect width="24" height="24" fill="white" transform="translate(11 10)"/>
</clipPath>
</defs>
</svg>
