<svg width="24" height="24" viewBox="0 0 24 24" fill="none" xmlns="http://www.w3.org/2000/svg">
<path fill-rule="evenodd" clip-rule="evenodd" d="M24 12C24 5.3724 18.6276 0 12 0C5.3724 0 0 5.3724 0 12C0 18.6276 5.3724 24 12 24C18.6276 24 24 18.6276 24 12ZM12 6C12.3183 6 12.6235 6.12643 12.8485 6.35147C13.0736 6.57652 13.2 6.88174 13.2 7.2V13.2C13.2 13.5183 13.0736 13.8235 12.8485 14.0485C12.6235 14.2736 12.3183 14.4 12 14.4C11.6817 14.4 11.3765 14.2736 11.1515 14.0485C10.9264 13.8235 10.8 13.5183 10.8 13.2V7.2C10.8 6.88174 10.9264 6.57652 11.1515 6.35147C11.3765 6.12643 11.6817 6 12 6ZM10.8 16.8C10.8 16.4817 10.9264 16.1765 11.1515 15.9515C11.3765 15.7264 11.6817 15.6 12 15.6H12.0096C12.3279 15.6 12.6331 15.7264 12.8581 15.9515C13.0832 16.1765 13.2096 16.4817 13.2096 16.8C13.2096 17.1183 13.0832 17.4235 12.8581 17.6485C12.6331 17.8736 12.3279 18 12.0096 18H12C11.6817 18 11.3765 17.8736 11.1515 17.6485C10.9264 17.4235 10.8 17.1183 10.8 16.8Z" fill="#FFD311"/>
</svg>
