<svg width="32" height="32" viewBox="0 0 32 32" fill="none" xmlns="http://www.w3.org/2000/svg">
<g filter="url(#filter0_d_1_4018)">
<path fill-rule="evenodd" clip-rule="evenodd" d="M16 0C22.6263 0 28 5.37375 28 12C28 18.6263 22.6263 24 16 24C9.37375 24 4 18.6263 4 12C4 5.37375 9.37375 0 16 0ZM13.508 15.8977L10.5702 12.9574C10.0696 12.4566 10.0695 11.6399 10.5702 11.1392C11.0709 10.6385 11.8912 10.6417 12.3883 11.1392L14.4595 13.212L19.6119 8.05954C20.1126 7.55881 20.9294 7.55881 21.43 8.05954C21.9307 8.56015 21.93 9.37764 21.43 9.87765L15.3671 15.9406C14.8671 16.4406 14.0496 16.4413 13.5489 15.9406C13.5349 15.9266 13.5213 15.9123 13.508 15.8977Z" fill="white"/>
</g>
<defs>
<filter id="filter0_d_1_4018" x="0" y="0" width="32" height="32" filterUnits="userSpaceOnUse" color-interpolation-filters="sRGB">
<feFlood flood-opacity="0" result="BackgroundImageFix"/>
<feColorMatrix in="SourceAlpha" type="matrix" values="0 0 0 0 0 0 0 0 0 0 0 0 0 0 0 0 0 0 127 0" result="hardAlpha"/>
<feOffset dy="4"/>
<feGaussianBlur stdDeviation="2"/>
<feComposite in2="hardAlpha" operator="out"/>
<feColorMatrix type="matrix" values="0 0 0 0 0 0 0 0 0 0 0 0 0 0 0 0 0 0 0.25 0"/>
<feBlend mode="normal" in2="BackgroundImageFix" result="effect1_dropShadow_1_4018"/>
<feBlend mode="normal" in="SourceGraphic" in2="effect1_dropShadow_1_4018" result="shape"/>
</filter>
</defs>
</svg>
