<svg width="31" height="31" viewBox="0 0 31 31" fill="none" xmlns="http://www.w3.org/2000/svg">
<path d="M30.2717 10.0492C29.6295 9.24206 28.6674 8.77816 27.6333 8.77816H27.0133L27.3466 6.89933C27.3986 6.60926 27.3322 6.31143 27.1628 6.07008C26.9945 5.82872 26.7365 5.66486 26.4465 5.61504L22.9578 5.00611L22.2315 0.915191C22.1253 0.314009 21.5495 -0.0900998 20.9517 0.0172936L9.82594 1.96145C9.53698 2.01127 9.27901 2.17513 9.11073 2.41538C8.94244 2.65563 8.87601 2.95345 8.92583 3.24242L9.89569 8.77816H7.68693L6.73589 4.65514C6.61964 4.15249 6.17346 3.79599 5.65753 3.79599H1.10715C0.496003 3.79599 0 4.29199 0 4.90314C0 5.51429 0.496003 6.01029 1.10715 6.01029H4.77624L8.25047 21.0719C8.60365 22.6053 9.95327 23.676 11.5298 23.676H25.7445C27.3222 23.676 28.6707 22.6053 29.025 21.0719L30.9127 12.8857C31.1441 11.887 30.9105 10.853 30.2717 10.0492ZM11.2996 3.9521L20.2442 2.3877L20.6373 4.59867L18.1495 4.16357C17.5472 4.05728 16.9748 4.45917 16.8685 5.06036L16.2064 8.77705H12.1465L11.2996 3.9521ZM24.7647 8.77816H18.454L18.8536 6.53729L24.9728 7.60569L24.7647 8.77816ZM28.756 12.3886L26.8683 20.5748C26.7487 21.0974 26.287 21.4617 25.7456 21.4617H11.531C10.9907 21.4617 10.529 21.0974 10.4083 20.5748L8.19733 10.9925H27.6322C27.9876 10.9925 28.3175 11.1508 28.5368 11.4276C28.7549 11.6999 28.8346 12.0498 28.756 12.3886Z" fill="#8280FF"/>
<path d="M12.0071 25.4142C10.4627 25.4142 9.20605 26.6675 9.20605 28.2064C9.20605 29.7476 10.4627 30.9997 12.0071 30.9997C13.5516 30.9997 14.8082 29.7465 14.8082 28.2064C14.8082 26.6675 13.5516 25.4142 12.0071 25.4142Z" fill="#8280FF"/>
<path d="M25.2689 25.4141C23.7233 25.4141 22.4678 26.6674 22.4678 28.2063C22.4678 29.7474 23.7244 30.9996 25.2689 30.9996C26.8133 30.9996 28.0699 29.7463 28.0699 28.2063C28.0711 26.6674 26.8144 25.4141 25.2689 25.4141Z" fill="#8280FF"/>
<path d="M26.2598 12.7051H11.3376C10.7265 12.7051 10.2305 13.2011 10.2305 13.8122C10.2305 14.4234 10.7265 14.9194 11.3376 14.9194H26.2598C26.872 14.9194 27.3669 14.4234 27.3669 13.8122C27.3669 13.2011 26.8709 12.7051 26.2598 12.7051Z" fill="#8280FF"/>
<path d="M23.7727 17.2012H13.8249C13.2138 17.2012 12.7178 17.6961 12.7178 18.3083C12.7178 18.9206 13.2138 19.4155 13.8249 19.4155H23.7727C24.3849 19.4155 24.8798 18.9206 24.8798 18.3083C24.8798 17.6961 24.3838 17.2012 23.7727 17.2012Z" fill="#8280FF"/>
</svg>
