<svg width="46" height="46" viewBox="0 0 46 46" fill="none" xmlns="http://www.w3.org/2000/svg">
<g filter="url(#filter0_d_329_44428)">
<circle cx="23" cy="23" r="19" fill="white"/>
<circle cx="23" cy="23" r="18.5" stroke="#8280FF"/>
</g>
<g clip-path="url(#clip0_329_44428)">
<path d="M23 35C29.6274 35 35 29.6274 35 23C35 16.3726 29.6274 11 23 11C16.3726 11 11 16.3726 11 23C11 29.6274 16.3726 35 23 35Z" fill="#90DFAA"/>
<path d="M23.0567 28.1592C23.0378 28.1592 23.0189 28.1781 22.9811 28.1781C22.9622 28.1781 22.9433 28.1592 22.9055 28.1592H23.0567Z" fill="#E6E9EE"/>
<path d="M32.6566 30.0867C30.4834 33.0536 26.9495 35.0001 22.981 35.0001C19.0125 35.0001 15.4975 33.0725 13.3054 30.0867C15.0062 28.2725 17.3117 27.3087 19.2393 26.8174C19.0692 28.1969 19.7873 30.0489 19.8062 29.9922C20.5243 28.3292 22.9621 28.178 22.9621 28.178C22.9621 28.178 25.3999 28.3103 26.1369 29.9922C26.1558 30.03 26.8739 28.1969 26.7038 26.8174C28.6503 27.3087 30.9558 28.2725 32.6566 30.0867Z" fill="#E6E9EE"/>
<path d="M25.967 25.551C25.967 25.7966 25.8158 27.1006 23.0568 28.1588H22.9056C20.1465 27.1006 19.9954 25.7966 19.9954 25.551C20.0143 25.0596 20.1276 24.5683 20.3355 24.1147C21.0914 24.9651 21.9985 25.5321 22.9812 25.5321C23.945 25.5321 24.871 24.984 25.6269 24.1147C25.8347 24.5683 25.967 25.0596 25.967 25.551Z" fill="#FFD05B"/>
<path d="M24.6251 28.5935L24.0204 29.8029H21.9416L21.3369 28.5935C22.1684 28.2344 22.981 28.1777 22.981 28.1777C22.981 28.1777 23.8125 28.2344 24.6251 28.5935Z" fill="#F1543F"/>
<path d="M21.2993 34.8868C21.8473 34.9624 22.4143 35.0002 23.0001 35.0002C23.567 35.0002 24.134 34.9624 24.7009 34.8868L24.0395 29.8223H21.9607L21.2993 34.8868Z" fill="#FF7058"/>
<path d="M25.967 25.5132C25.967 25.5132 26.0993 27.025 22.9812 28.1778C22.9812 28.1778 25.419 28.31 26.156 29.9919C26.1749 30.0675 27.5922 26.4014 25.967 25.5132Z" fill="white"/>
<path d="M19.9954 25.5132C18.3891 26.4014 19.7875 30.0486 19.8253 29.9919C20.5434 28.3289 23.0001 28.1778 23.0001 28.1778C19.8631 27.025 19.9954 25.5132 19.9954 25.5132Z" fill="white"/>
<path d="M25.778 24.4927C24.9843 25.3431 24.0394 25.8911 22.9812 25.8911C21.9229 25.8911 20.978 25.3431 20.1843 24.4927C20.2221 24.3604 20.2788 24.2281 20.3355 24.1147C21.0914 24.9651 21.9985 25.5321 22.9812 25.5321C23.9639 25.5321 24.8709 24.984 25.6268 24.1147C25.6835 24.2281 25.7402 24.3604 25.778 24.4927Z" fill="#F9B54C"/>
<path d="M28.1401 21.6016C27.7433 22.263 27.1386 22.6599 26.685 22.5843C25.7779 24.2662 24.4551 25.5134 22.9811 25.5134C21.5071 25.5134 20.1842 24.2473 19.2772 22.5843C18.8236 22.641 18.2189 22.263 17.822 21.6016C17.3496 20.8268 17.3307 19.9764 17.7842 19.693C17.8976 19.6363 18.011 19.5985 18.1433 19.6174C18.4457 20.3922 18.8614 20.8646 18.8614 20.8646C18.4268 18.4646 20.2031 18.2 19.9008 15.8945C19.9008 15.8945 21.0157 18.3701 24.2094 16.6315L23.9638 17.104C28.4236 16.1024 26.9307 21.3559 26.8929 21.4882C27.4031 20.8457 27.7244 20.2032 27.9134 19.6174C27.989 19.6174 28.0835 19.6552 28.1401 19.693C28.6315 19.9575 28.6126 20.8268 28.1401 21.6016Z" fill="#FFD05B"/>
<path d="M25.5511 13.3999C25.9101 13.3621 26.496 13.6834 26.496 13.6834C24.8897 11.8503 22.2629 13.022 22.2629 13.022C23.1511 12.2661 23.9448 12.3416 23.9448 12.3416C20.1842 11.7747 19.5416 14.0235 19.5416 14.0235C19.3716 13.759 19.3716 13.381 19.3905 13.192C19.1259 13.6456 19.4094 14.5527 19.4094 14.5527C19.1448 13.8912 18.2188 14.0046 18.2188 14.0046C19.0125 14.1369 19.1448 14.6283 19.1448 14.6283C17.1605 15.3653 17.5007 17.4251 17.5007 17.4251L17.9731 16.8582C17.3873 19.107 18.8802 20.8456 18.8802 20.8456C18.4456 18.4456 20.2219 18.181 19.9196 15.8755C19.9196 15.8755 21.0345 18.3511 24.2282 16.6125L23.9826 17.0849C28.4991 16.0645 26.9117 21.4881 26.9117 21.4881C28.518 19.4472 28.2723 17.3495 28.2723 17.3495L28.4613 18.1054C28.9716 14.7038 25.5511 13.3999 25.5511 13.3999Z" fill="black"/>
</g>
<defs>
<filter id="filter0_d_329_44428" x="0" y="0" width="46" height="46" filterUnits="userSpaceOnUse" color-interpolation-filters="sRGB">
<feFlood flood-opacity="0" result="BackgroundImageFix"/>
<feColorMatrix in="SourceAlpha" type="matrix" values="0 0 0 0 0 0 0 0 0 0 0 0 0 0 0 0 0 0 127 0" result="hardAlpha"/>
<feOffset/>
<feGaussianBlur stdDeviation="2"/>
<feComposite in2="hardAlpha" operator="out"/>
<feColorMatrix type="matrix" values="0 0 0 0 0 0 0 0 0 0 0 0 0 0 0 0 0 0 0.25 0"/>
<feBlend mode="normal" in2="BackgroundImageFix" result="effect1_dropShadow_329_44428"/>
<feBlend mode="normal" in="SourceGraphic" in2="effect1_dropShadow_329_44428" result="shape"/>
</filter>
<clipPath id="clip0_329_44428">
<rect width="24" height="24" fill="white" transform="translate(11 11)"/>
</clipPath>
</defs>
</svg>
