<svg width="54" height="54" viewBox="0 0 54 54" fill="none" xmlns="http://www.w3.org/2000/svg">
<g filter="url(#filter0_d_329_44269)">
<circle cx="27" cy="27" r="19" fill="#8280FF"/>
<circle cx="27" cy="27" r="18.5" stroke="#8280FF"/>
</g>
<g clip-path="url(#clip0_329_44269)">
<path d="M27 39C33.6274 39 39 33.6274 39 27C39 20.3726 33.6274 15 27 15C20.3726 15 15 20.3726 15 27C15 33.6274 20.3726 39 27 39Z" fill="#90DFAA"/>
<path d="M27.0567 32.1592C27.0378 32.1592 27.0189 32.1781 26.9811 32.1781C26.9622 32.1781 26.9433 32.1592 26.9055 32.1592H27.0567Z" fill="#E6E9EE"/>
<path d="M36.6567 34.0867C34.4835 37.0536 30.9496 39.0001 26.9811 39.0001C23.0126 39.0001 19.4977 37.0725 17.3055 34.0867C19.0063 32.2725 21.3118 31.3087 23.2394 30.8174C23.0693 32.1969 23.7874 34.0489 23.8063 33.9922C24.5244 32.3292 26.9622 32.178 26.9622 32.178C26.9622 32.178 29.4 32.3103 30.137 33.9922C30.1559 34.03 30.874 32.1969 30.704 30.8174C32.6504 31.3087 34.9559 32.2725 36.6567 34.0867Z" fill="#E6E9EE"/>
<path d="M29.9669 29.551C29.9669 29.7966 29.8157 31.1006 27.0567 32.1588H26.9055C24.1464 31.1006 23.9952 29.7966 23.9952 29.551C24.0141 29.0596 24.1275 28.5683 24.3354 28.1147C25.0913 28.9651 25.9984 29.5321 26.9811 29.5321C27.9448 29.5321 28.8708 28.984 29.6267 28.1147C29.8346 28.5683 29.9669 29.0596 29.9669 29.551Z" fill="#FFD05B"/>
<path d="M28.6252 32.5935L28.0205 33.8029H25.9418L25.337 32.5935C26.1685 32.2344 26.9811 32.1777 26.9811 32.1777C26.9811 32.1777 27.8126 32.2344 28.6252 32.5935Z" fill="#F1543F"/>
<path d="M25.2992 38.8868C25.8472 38.9624 26.4142 39.0002 27 39.0002C27.5669 39.0002 28.1338 38.9624 28.7008 38.8868L28.0394 33.8223H25.9606L25.2992 38.8868Z" fill="#FF7058"/>
<path d="M29.9669 29.5132C29.9669 29.5132 30.0992 31.025 26.9811 32.1778C26.9811 32.1778 29.4189 32.31 30.1559 33.9919C30.1748 34.0675 31.5921 30.4014 29.9669 29.5132Z" fill="white"/>
<path d="M23.9953 29.5132C22.389 30.4014 23.7874 34.0486 23.8252 33.9919C24.5433 32.3289 27 32.1778 27 32.1778C23.863 31.025 23.9953 29.5132 23.9953 29.5132Z" fill="white"/>
<path d="M29.7779 28.4927C28.9842 29.3431 28.0393 29.8911 26.9811 29.8911C25.9228 29.8911 24.9779 29.3431 24.1842 28.4927C24.222 28.3604 24.2787 28.2281 24.3354 28.1147C25.0913 28.9651 25.9984 29.5321 26.9811 29.5321C27.9637 29.5321 28.8708 28.984 29.6267 28.1147C29.6834 28.2281 29.7401 28.3604 29.7779 28.4927Z" fill="#F9B54C"/>
<path d="M32.1401 25.6016C31.7433 26.263 31.1386 26.6599 30.685 26.5843C29.7779 28.2662 28.4551 29.5134 26.9811 29.5134C25.5071 29.5134 24.1842 28.2473 23.2772 26.5843C22.8236 26.641 22.2189 26.263 21.822 25.6016C21.3496 24.8268 21.3307 23.9764 21.7842 23.693C21.8976 23.6363 22.011 23.5985 22.1433 23.6174C22.4457 24.3922 22.8614 24.8646 22.8614 24.8646C22.4268 22.4646 24.2031 22.2 23.9008 19.8945C23.9008 19.8945 25.0157 22.3701 28.2094 20.6315L27.9638 21.104C32.4236 20.1024 30.9307 25.3559 30.8929 25.4882C31.4031 24.8457 31.7244 24.2032 31.9134 23.6174C31.989 23.6174 32.0835 23.6552 32.1401 23.693C32.6315 23.9575 32.6126 24.8268 32.1401 25.6016Z" fill="#FFD05B"/>
<path d="M29.5512 17.3999C29.9103 17.3621 30.4961 17.6834 30.4961 17.6834C28.8898 15.8503 26.263 17.022 26.263 17.022C27.1512 16.2661 27.9449 16.3416 27.9449 16.3416C24.1843 15.7747 23.5418 18.0235 23.5418 18.0235C23.3717 17.759 23.3717 17.381 23.3906 17.192C23.126 17.6456 23.4095 18.5527 23.4095 18.5527C23.1449 17.8912 22.2189 18.0046 22.2189 18.0046C23.0126 18.1369 23.1449 18.6283 23.1449 18.6283C21.1607 19.3653 21.5008 21.4251 21.5008 21.4251L21.9733 20.8582C21.3874 23.107 22.8803 24.8456 22.8803 24.8456C22.4457 22.4456 24.2221 22.181 23.9197 19.8755C23.9197 19.8755 25.0347 22.3511 28.2284 20.6125L27.9827 21.0849C32.4992 20.0645 30.9118 25.4881 30.9118 25.4881C32.5181 23.4472 32.2725 21.3495 32.2725 21.3495L32.4614 22.1054C32.9717 18.7038 29.5512 17.3999 29.5512 17.3999Z" fill="#324A5E"/>
</g>
<circle cx="35.0007" cy="16.0002" r="2.66667" fill="#0CA00C"/>
<path fill-rule="evenodd" clip-rule="evenodd" d="M35 12C37.2088 12 39 13.7912 39 16C39 18.2088 37.2088 20 35 20C32.7912 20 31 18.2088 31 16C31 13.7912 32.7912 12 35 12ZM34.1693 17.2992L33.1901 16.3191C33.0232 16.1522 33.0232 15.88 33.1901 15.7131C33.357 15.5462 33.6304 15.5472 33.7961 15.7131L34.4865 16.404L36.204 14.6865C36.3709 14.5196 36.6431 14.5196 36.81 14.6865C36.9769 14.8534 36.9767 15.1259 36.81 15.2926L34.789 17.3135C34.6224 17.4802 34.3499 17.4804 34.183 17.3135C34.1783 17.3089 34.1738 17.3041 34.1693 17.2992Z" fill="white"/>
<defs>
<filter id="filter0_d_329_44269" x="0" y="0" width="54" height="54" filterUnits="userSpaceOnUse" color-interpolation-filters="sRGB">
<feFlood flood-opacity="0" result="BackgroundImageFix"/>
<feColorMatrix in="SourceAlpha" type="matrix" values="0 0 0 0 0 0 0 0 0 0 0 0 0 0 0 0 0 0 127 0" result="hardAlpha"/>
<feMorphology radius="2" operator="dilate" in="SourceAlpha" result="effect1_dropShadow_329_44269"/>
<feOffset/>
<feGaussianBlur stdDeviation="3"/>
<feComposite in2="hardAlpha" operator="out"/>
<feColorMatrix type="matrix" values="0 0 0 0 0 0 0 0 0 0 0 0 0 0 0 0 0 0 0.25 0"/>
<feBlend mode="normal" in2="BackgroundImageFix" result="effect1_dropShadow_329_44269"/>
<feBlend mode="normal" in="SourceGraphic" in2="effect1_dropShadow_329_44269" result="shape"/>
</filter>
<clipPath id="clip0_329_44269">
<rect width="24" height="24" fill="white" transform="translate(15 15)"/>
</clipPath>
</defs>
</svg>
