<svg width="46" height="46" viewBox="0 0 46 46" fill="none" xmlns="http://www.w3.org/2000/svg">
<g filter="url(#filter0_d_329_44312)">
<circle cx="23" cy="23" r="19" fill="white"/>
<circle cx="23" cy="23" r="18.5" stroke="#8280FF"/>
</g>
<g clip-path="url(#clip0_329_44312)">
<path d="M13.6123 29.1319H32.3879C33.7085 27.2616 34.4846 24.9794 34.4846 22.5157C34.4846 16.173 29.3428 11.0312 23.0001 11.0312C16.6574 11.0312 11.5156 16.173 11.5156 22.5157C11.5156 24.9794 12.2917 27.2616 13.6123 29.1319Z" fill="#FFC839"/>
<path d="M32.1701 28.6029C31.4559 27.1745 30.2023 26.7756 29.6312 26.6659C29.6312 26.6659 28.1705 26.3993 26.8798 25.8745C26.8401 26.0014 26.7536 26.114 26.6266 26.1824C25.7461 26.6572 24.5585 27.0467 23.0314 27.0467C22.7203 27.0467 22.4241 27.0298 22.141 27C22.1483 27.0165 22.1553 27.0328 22.163 27.0494C21.8487 27.0892 20.8419 27.2422 19.8466 27.6692C18.2519 28.3532 17.4089 29.4248 17.4089 30.7683V32.549C19.0636 33.4732 20.9702 34.0002 23.0001 34.0002C26.8792 34.0002 30.3087 32.0768 32.388 29.1319C32.3224 28.9401 32.25 28.7628 32.1701 28.6029Z" fill="#72AAFC"/>
<path d="M19.1753 25.8521C17.8716 26.3917 16.3691 26.666 16.3691 26.666C15.7979 26.7757 14.5444 27.1745 13.8302 28.603C13.7503 28.7628 13.678 28.9402 13.6123 29.1319C14.6189 30.5576 15.9419 31.7438 17.4793 32.5884C17.4793 32.1065 17.4793 31.5088 17.4793 30.7683C17.4793 27.5568 22.2694 27.1079 22.2694 27.1079C22.2525 27.0744 22.2369 27.0414 22.2219 27.0087C21.077 26.9 20.1539 26.5695 19.4354 26.182C19.3011 26.1095 19.2115 25.9879 19.1753 25.8521Z" fill="#548BED"/>
<path d="M26.9498 25.4742L26.0497 24.0285C25.923 23.825 25.6796 23.7284 25.4472 23.7869C24.7447 23.9636 23.9201 24.0971 23.0314 24.0971C22.9388 24.0971 22.8471 24.0953 22.7559 24.0925V24.8616C22.62 24.9289 22.2063 25.1679 22.0243 25.6578C21.8744 26.0615 21.921 26.5292 22.163 27.0491C22.1147 27.0552 22.0499 27.0641 21.9714 27.0761C22.3057 27.117 22.6584 27.1401 23.0314 27.1401C24.6091 27.1401 25.836 26.7378 26.7456 26.2474C27.024 26.0973 27.117 25.7427 26.9498 25.4742Z" fill="#548BED"/>
<path d="M20.615 23.7864C20.3825 23.7279 20.139 23.8245 20.0123 24.028L19.1123 25.4736C18.9451 25.7421 19.038 26.0966 19.3164 26.2468C20.0739 26.6554 21.0523 27.002 22.269 27.1068C21.4506 25.4777 22.8261 24.9064 22.8261 24.9064V24.0945C22.0156 24.0759 21.2633 23.9498 20.615 23.7864Z" fill="#3E7FDD"/>
<path d="M27.1563 23.2479C26.84 22.1398 26.7088 21.2748 26.6804 20.6064C26.4401 21.4735 26.1261 22.2412 25.7436 22.8957C25.5229 23.2734 25.249 23.6117 24.9308 23.9048C24.4556 26.6775 25.3443 28.7662 26.0436 29.9076C26.191 30.1481 26.5837 30.0473 26.5799 29.7695C26.5485 27.4709 28.0082 26.2314 27.1563 23.2479Z" fill="#45304C"/>
<path d="M23.0308 11.8459C23.7679 11.8459 24.3933 11.9878 24.9197 12.2065C24.9345 12.1104 24.9424 12.0119 24.9424 11.9116C24.9423 10.8558 24.0865 10 23.0308 10C21.975 10 21.1191 10.8558 21.1191 11.9116C21.1191 12.0119 21.127 12.1103 21.1418 12.2065C21.6682 11.9878 22.2936 11.8459 23.0308 11.8459Z" fill="#56415E"/>
<path d="M23.0308 11.4409C22.2794 10.6896 23.0308 10 23.0308 10C21.975 10 21.1191 10.8558 21.1191 11.9116C21.1191 12.0119 21.127 12.1103 21.1418 12.2065C21.6682 11.9878 22.2936 11.846 23.0308 11.846V11.4409Z" fill="#45304C"/>
<path d="M20.8078 12.4842C21.3977 12.1799 22.1311 11.9687 23.0308 11.9687C23.9305 11.9687 24.6639 12.1799 25.2537 12.4843C25.3585 12.5383 25.4596 12.5971 25.5577 12.6595C24.9657 11.9172 24.0541 11.4409 23.0308 11.4409C22.0075 11.4409 21.0959 11.9171 20.5039 12.6594C20.6019 12.597 20.7031 12.5383 20.8078 12.4842Z" fill="#D3DCFB"/>
<path d="M19.2951 17.8202C19.3486 17.6452 19.4217 17.4937 19.5207 17.3822C19.6097 17.2818 19.6656 17.1577 19.6696 17.0248C19.6928 16.2488 19.991 13.7346 22.8554 14.8327C22.968 14.8758 23.0936 14.8758 23.2061 14.8327C26.0705 13.7346 26.3688 16.2488 26.3919 17.0248C26.3959 17.1577 26.4518 17.2818 26.5409 17.3822C26.6398 17.4937 26.713 17.6452 26.7665 17.8202V17.8202C26.9116 17.7234 27.1369 17.6567 27.3406 17.6615L27.3406 17.6609V15.7774C27.3406 14.3501 26.5449 13.0273 25.2537 12.3612C24.6639 12.0569 23.9304 11.8457 23.0308 11.8457C22.1311 11.8457 21.3976 12.0569 20.8078 12.3612C19.5166 13.0273 18.7209 14.3501 18.7209 15.7774V17.6609L18.721 17.6615C18.9246 17.6568 19.1499 17.7235 19.2951 17.8202Z" fill="#56415E"/>
<path d="M23.0308 11.8457C22.1311 11.8457 21.3976 12.0569 20.8078 12.3612C19.5166 13.0273 18.7209 14.3501 18.7209 15.7774V17.6609L18.721 17.6615C18.9247 17.6567 19.1499 17.7235 19.2951 17.8202C19.3486 17.6452 19.4217 17.4937 19.5207 17.3822C19.6097 17.2818 19.6656 17.1576 19.6696 17.0248C19.6923 16.2637 19.98 13.8309 22.6937 14.7738C22.6823 14.759 22.6714 14.7441 22.6592 14.7295C21.3859 13.214 23.0308 11.8457 23.0308 11.8457Z" fill="#45304C"/>
<path d="M19.2595 20.0581C19.2595 20.0581 19.0257 18.5787 19.295 17.6976C19.0507 17.5348 18.5787 17.4553 18.3664 17.6628C17.9318 18.0877 18.2503 18.7293 18.4027 19.1346C18.4495 19.259 18.4796 19.3849 18.4933 19.511C18.523 19.7849 18.6715 20.186 19.2874 20.1765C19.2781 20.1371 19.2686 20.0982 19.2595 20.0581Z" fill="#FC9460"/>
<path d="M27.6951 17.6628C27.4829 17.4553 27.0109 17.5348 26.7666 17.6976C27.0359 18.5787 26.8021 20.0581 26.8021 20.0581C26.793 20.0982 26.7835 20.1371 26.7741 20.1765C27.3901 20.186 27.5387 19.785 27.5684 19.511C27.582 19.3849 27.6122 19.259 27.659 19.1346C27.8113 18.7293 28.1298 18.0877 27.6951 17.6628Z" fill="#FFAA7B"/>
<path d="M26.5639 17.239C26.4752 17.139 26.4264 17.0221 26.4228 16.9011C26.409 16.4404 26.2927 15.3129 25.5113 14.7925C24.957 14.4234 24.1778 14.4273 23.1953 14.8041C23.0892 14.8447 22.9725 14.8447 22.8665 14.8041C22.7474 14.7584 22.6314 14.7185 22.5183 14.6837C21.7229 15.2171 21.6042 16.367 21.5902 16.8373C21.5865 16.9611 21.5366 17.0805 21.4458 17.1828C20.9454 17.7467 21.055 19.3942 21.1717 20.0724C21.4302 21.2136 21.8048 22.2088 22.2847 23.0301C22.6816 23.7095 23.2457 24.2648 23.9322 24.6602C24.6947 24.2699 25.3174 23.6862 25.7436 22.9568C26.2128 22.1538 26.579 21.1807 26.8324 20.0626C26.9421 19.3655 27.0589 17.7968 26.5639 17.239Z" fill="#FFC7AB"/>
<path d="M22.3232 22.957C21.8539 22.1538 21.4877 21.1807 21.2349 20.0648C21.1207 19.4016 21.0136 17.7906 21.5028 17.2392C21.5917 17.1391 21.6405 17.0223 21.6441 16.9012C21.6578 16.4406 21.7742 15.3129 22.5556 14.7926C22.5892 14.7702 22.6237 14.7493 22.659 14.7297C21.7738 14.4294 21.0649 14.45 20.5503 14.7926C19.7688 15.313 19.6525 16.4406 19.6388 16.9012C19.6352 17.0223 19.5864 17.1391 19.4976 17.2392C19.0083 17.7906 19.1154 19.4016 19.2296 20.0648C19.4824 21.1807 19.8487 22.1538 20.3179 22.957C20.7944 23.7724 21.5159 24.4065 22.4045 24.791C22.8025 24.9631 23.2589 24.9631 23.6568 24.791C23.7861 24.735 23.9113 24.6732 24.0333 24.6069C23.3169 24.2175 22.7304 23.6537 22.3232 22.957Z" fill="#FFAA7B"/>
<path d="M30.787 30.9564C30.5558 30.0313 29.9826 29.4948 29.5179 29.201C29.2249 29.0157 28.8428 29.2242 28.8428 29.5709V32.4045C29.542 31.9905 30.1934 31.5043 30.787 30.9564Z" fill="#548BED"/>
<path d="M25.8542 24.9202C25.8542 26.1747 26.0612 27.3982 26.9535 27.5498C27.3038 26.3405 27.6987 25.1478 27.1562 23.2479C27.1432 23.2021 27.1309 23.1573 27.1184 23.1123C26.5385 23.4232 25.8542 23.9875 25.8542 24.9202Z" fill="#56415E"/>
</g>
<defs>
<filter id="filter0_d_329_44312" x="0" y="0" width="46" height="46" filterUnits="userSpaceOnUse" color-interpolation-filters="sRGB">
<feFlood flood-opacity="0" result="BackgroundImageFix"/>
<feColorMatrix in="SourceAlpha" type="matrix" values="0 0 0 0 0 0 0 0 0 0 0 0 0 0 0 0 0 0 127 0" result="hardAlpha"/>
<feOffset/>
<feGaussianBlur stdDeviation="2"/>
<feComposite in2="hardAlpha" operator="out"/>
<feColorMatrix type="matrix" values="0 0 0 0 0 0 0 0 0 0 0 0 0 0 0 0 0 0 0.25 0"/>
<feBlend mode="normal" in2="BackgroundImageFix" result="effect1_dropShadow_329_44312"/>
<feBlend mode="normal" in="SourceGraphic" in2="effect1_dropShadow_329_44312" result="shape"/>
</filter>
<clipPath id="clip0_329_44312">
<rect width="24" height="24" fill="white" transform="translate(11 10)"/>
</clipPath>
</defs>
</svg>
