<svg width="18" height="18" viewBox="0 0 18 18" fill="none" xmlns="http://www.w3.org/2000/svg">
<path fill-rule="evenodd" clip-rule="evenodd" d="M9 0C13.9697 0 18 4.03031 18 9C18 13.9697 13.9697 18 9 18C4.03031 18 0 13.9697 0 9C0 4.03031 4.03031 0 9 0ZM7.13104 11.9233L4.92762 9.71802C4.55223 9.34241 4.55215 8.7299 4.92762 8.35437C5.30316 7.9789 5.91839 7.98126 6.2912 8.35437L7.8446 9.90898L11.7089 6.04465C12.0845 5.66911 12.6971 5.66911 13.0725 6.04465C13.4481 6.42012 13.4475 7.03323 13.0725 7.40824L8.5253 11.9555C8.15029 12.3305 7.53717 12.331 7.16171 11.9555C7.15116 11.9449 7.14098 11.9342 7.13104 11.9233Z" fill="#0CA00C"/>
</svg>
