<svg width="31" height="31" viewBox="0 0 31 31" fill="none" xmlns="http://www.w3.org/2000/svg">
<g clip-path="url(#clip0_298_68385)">
<path d="M13.3203 9.26366H23.7344C24.4032 9.26366 24.9453 8.72158 24.9453 8.05273C24.9453 7.38387 24.4032 6.84179 23.7344 6.84179H13.3203C12.6514 6.84179 12.1094 7.38387 12.1094 8.05273C12.1094 8.72158 12.6514 9.26366 13.3203 9.26366ZM8.47655 21.7969H7.26562C6.59676 21.7969 6.05468 22.3389 6.05468 23.0078C6.05468 23.6766 6.59676 24.2187 7.26562 24.2187H8.47655C9.14541 24.2187 9.68749 23.6766 9.68749 23.0078C9.68749 22.3389 9.14541 21.7969 8.47655 21.7969ZM8.47655 14.1074H7.26562C6.59676 14.1074 6.05468 14.6495 6.05468 15.3183C6.05468 15.9872 6.59676 16.5293 7.26562 16.5293H8.47655C9.14541 16.5293 9.68749 15.9872 9.68749 15.3183C9.68749 14.6495 9.14541 14.1074 8.47655 14.1074ZM8.47655 6.84179H7.26562C6.59676 6.84179 6.05468 7.38387 6.05468 8.05273C6.05468 8.72158 6.59676 9.26366 7.26562 9.26366H8.47655C9.14541 9.26366 9.68749 8.72158 9.68749 8.05273C9.68749 7.38387 9.14541 6.84179 8.47655 6.84179ZM26.1562 0H4.84374C2.17283 0 0 2.17283 0 4.84375V26.1562C0 28.8271 2.17283 31 4.84374 31H10.8984C11.5673 31 12.1094 30.4579 12.1094 29.789C12.1094 29.1202 11.5673 28.5781 10.8984 28.5781H4.84374C3.5084 28.5781 2.42187 27.4916 2.42187 26.1562V4.84375C2.42187 3.5084 3.5084 2.42187 4.84374 2.42187H26.1562C27.4916 2.42187 28.5781 3.5084 28.5781 4.84375V9.1224C28.5781 9.79125 29.1202 10.3333 29.789 10.3333C30.4579 10.3333 31 9.79125 31 9.1224V4.84375C31 2.17283 28.8271 0 26.1562 0Z" fill="#57B794"/>
<circle cx="21.9577" cy="21.9584" r="8.29167" stroke="#57B794" stroke-width="1.5"/>
<path d="M25.607 20.2191C25.9096 19.8783 25.9096 19.3257 25.607 18.9849C25.3044 18.644 24.8136 18.644 24.511 18.9849L20.8845 23.0688L19.4172 21.3531C19.1203 21.0059 18.6297 20.9954 18.3214 21.3298C18.0131 21.6641 18.0038 22.2166 18.3007 22.5638L20.3157 24.9202C20.4601 25.089 20.6586 25.1854 20.8667 25.1875C21.0747 25.1897 21.2749 25.0977 21.422 24.9319L25.607 20.2191Z" fill="#57B794"/>
</g>
<defs>
<clipPath id="clip0_298_68385">
<rect width="31" height="31" fill="white"/>
</clipPath>
</defs>
</svg>
