<svg width="17" height="17" viewBox="0 0 17 17" fill="none" xmlns="http://www.w3.org/2000/svg">
<g clip-path="url(#clip0_332_3100)">
<path d="M10.81 0H2.8093C2.43135 0 2.125 0.306351 2.125 0.684166V16.3157C2.125 16.6935 2.43135 16.9999 2.8093 16.9999H14.226C14.6038 16.9999 14.9102 16.6935 14.9102 16.3157V3.84443C14.9102 3.65377 14.8305 3.47167 14.6906 3.34223L11.2745 0.181969C11.1482 0.0649796 10.9822 0 10.81 0Z" fill="#D9E7EC"/>
<path d="M14.911 3.84416V16.3156C14.911 16.6933 14.6045 16.9997 14.2268 16.9997H13.2637C13.6417 16.9997 13.948 16.6933 13.948 16.3156V2.6543L14.6914 3.34196C14.8314 3.47153 14.911 3.65363 14.911 3.84416Z" fill="#C5D3DD"/>
<path d="M14.673 3.32714H11.8194C11.4768 3.32714 11.1992 3.04958 11.1992 2.70692V0.121094C11.2254 0.138992 11.2511 0.159225 11.275 0.181534L13.8778 2.58941L14.673 3.32714Z" fill="#8D9CA8"/>
<path d="M11.4092 6.9731C11.4092 8.57035 10.1143 9.86527 8.51704 9.86527C6.91979 9.86527 5.625 8.57035 5.625 6.9731C5.625 5.37585 6.91979 4.08105 8.51704 4.08105C10.1143 4.08105 11.4092 5.37585 11.4092 6.9731Z" fill="#EA4444"/>
<path d="M11.4095 6.97375C11.4095 8.57113 10.1147 9.86592 8.51736 9.86592C7.84473 9.86592 7.22542 9.63635 6.73438 9.25114C7.03645 9.35828 7.36147 9.41651 7.70025 9.41651C9.29724 9.41651 10.5923 8.12159 10.5923 6.52447C10.5923 5.59984 10.1584 4.7765 9.4831 4.24707C10.6058 4.64434 11.4095 5.71514 11.4095 6.97375Z" fill="#D93131"/>
<path d="M9.79037 6.71129L8.15577 5.76759C7.9537 5.65099 7.70117 5.79678 7.70117 6.03011V7.9175C7.70117 8.15083 7.9537 8.29661 8.15577 8.18001L9.79037 7.23631C9.99232 7.11971 9.99232 6.82802 9.79037 6.71129Z" fill="#D9E7EC"/>
<path d="M9.79012 7.23633L8.15577 8.18002C7.95383 8.29675 7.70117 8.15084 7.70117 7.91751V7.67212L9.5778 6.58887L9.78999 6.7113C9.99206 6.82803 9.99206 7.11973 9.79012 7.23633Z" fill="#C5D3DD"/>
<path d="M14.9103 11.6377V16.316C14.9103 16.694 14.6041 17.0003 14.226 17.0003H2.8093C2.43161 17.0003 2.125 16.694 2.125 16.316V11.6377H14.9103Z" fill="#EA4444"/>
<path d="M14.9107 11.6377V16.3158C14.9107 16.6939 14.6045 17.0001 14.2264 17.0001H13.2637C13.6417 17.0001 13.948 16.6939 13.948 16.3158V11.6377H14.9107Z" fill="#D93131"/>
<path d="M6.61451 14.6566C6.56976 14.7298 6.51283 14.7541 6.45602 14.7541C6.4031 14.7541 6.34616 14.7298 6.30959 14.6566L5.76485 13.6241V15.5998C5.76485 15.6933 5.65914 15.7421 5.54942 15.7421C5.44371 15.7421 5.33398 15.6933 5.33398 15.5998V12.9859C5.33398 12.8273 5.43969 12.7705 5.54942 12.7705C5.70389 12.7705 5.78936 12.8233 5.89091 13.0143L6.46004 14.0916L7.03733 13.0143C7.13889 12.8233 7.22021 12.7705 7.37468 12.7705C7.48856 12.7705 7.59011 12.8273 7.59011 12.9859V15.5998C7.59011 15.6933 7.48441 15.7421 7.37468 15.7421C7.26897 15.7421 7.15925 15.6933 7.15925 15.5998V13.6486L6.61451 14.6566Z" fill="#D9E7EC"/>
<path d="M8.12695 12.9086C8.12695 12.8355 8.19206 12.7705 8.29362 12.7705H9.08634C9.58633 12.7705 9.9766 13.0103 9.9766 13.6648V13.6973C9.9766 14.3477 9.57414 14.5956 9.06196 14.5956H8.55795V15.5998C8.55795 15.6933 8.45211 15.7421 8.34238 15.7421C8.23681 15.7421 8.12695 15.6933 8.12695 15.5998V12.9086ZM8.55795 13.1526V14.2541H9.06196C9.36286 14.2541 9.54574 14.0835 9.54574 13.7257V13.677C9.54574 13.3193 9.36286 13.1526 9.06196 13.1526H8.55795Z" fill="#D9E7EC"/>
<path d="M11.1718 15.0754H10.1718C10.0865 15.0754 10.0215 15.0143 10.0215 14.9168C10.0215 14.8884 10.0295 14.8558 10.0459 14.8274L11.0295 12.8884C11.0743 12.8031 11.1474 12.7705 11.2165 12.7705C11.2979 12.7705 11.432 12.8355 11.432 12.9372C11.432 12.9575 11.4238 12.9778 11.4117 13.0023L10.5743 14.6729H11.1718V14.112C11.1718 14.0103 11.2775 13.9697 11.3872 13.9697C11.4929 13.9697 11.6027 14.0103 11.6027 14.112V14.6729H11.8019C11.8994 14.6729 11.9482 14.7746 11.9482 14.8762C11.9482 14.9737 11.879 15.0754 11.8019 15.0754H11.6027V15.5998C11.6027 15.6933 11.4929 15.7421 11.3872 15.7421C11.2775 15.7421 11.1718 15.6933 11.1718 15.5998V15.0754Z" fill="#D9E7EC"/>
</g>
<defs>
<clipPath id="clip0_332_3100">
<rect width="17" height="17" fill="white"/>
</clipPath>
</defs>
</svg>
