<svg width="17" height="17" viewBox="0 0 17 17" fill="none" xmlns="http://www.w3.org/2000/svg">
<path d="M4.25 0C3.66562 0 3.1875 0.478125 3.1875 1.0625V15.9375C3.1875 16.5219 3.66562 17 4.25 17H14.875C15.4594 17 15.9375 16.5219 15.9375 15.9375V4.25L11.6875 0H4.25Z" fill="#E2E5E7"/>
<path d="M12.75 4.25H15.9375L11.6875 0V3.1875C11.6875 3.77187 12.1656 4.25 12.75 4.25Z" fill="#B0B7BD"/>
<path d="M15.9375 7.4375L12.75 4.25H15.9375V7.4375Z" fill="#CAD1D8"/>
<path d="M13.8125 13.8125C13.8125 14.1047 13.5734 14.3438 13.2812 14.3438H1.59375C1.30156 14.3438 1.0625 14.1047 1.0625 13.8125V8.5C1.0625 8.20781 1.30156 7.96875 1.59375 7.96875H13.2812C13.5734 7.96875 13.8125 8.20781 13.8125 8.5V13.8125Z" fill="#F15642"/>
<path d="M3.37891 10.0657C3.37891 9.92546 3.48941 9.77246 3.66737 9.77246H4.64859C5.20109 9.77246 5.69834 10.1422 5.69834 10.8509C5.69834 11.5224 5.20109 11.8964 4.64859 11.8964H3.93937V12.4574C3.93937 12.6444 3.82037 12.7501 3.66737 12.7501C3.52712 12.7501 3.37891 12.6444 3.37891 12.4574V10.0657ZM3.93937 10.3074V11.3657H4.64859C4.93334 11.3657 5.15859 11.1144 5.15859 10.8509C5.15859 10.5539 4.93334 10.3074 4.64859 10.3074H3.93937Z" fill="white"/>
<path d="M6.52958 12.75C6.38933 12.75 6.23633 12.6735 6.23633 12.487V10.074C6.23633 9.92158 6.38933 9.81055 6.52958 9.81055H7.5023C9.44348 9.81055 9.40098 12.75 7.54055 12.75H6.52958ZM6.79733 10.329V12.232H7.5023C8.64927 12.232 8.70027 10.329 7.5023 10.329H6.79733Z" fill="white"/>
<path d="M10.0908 10.3636V11.0388H11.1741C11.3271 11.0388 11.4801 11.1918 11.4801 11.34C11.4801 11.4803 11.3271 11.595 11.1741 11.595H10.0908V12.487C10.0908 12.6357 9.98513 12.75 9.83638 12.75C9.64938 12.75 9.53516 12.6357 9.53516 12.487V10.074C9.53516 9.92158 9.64991 9.81055 9.83638 9.81055H11.3276C11.5146 9.81055 11.6251 9.92158 11.6251 10.074C11.6251 10.21 11.5146 10.363 11.3276 10.363H10.0908V10.3636Z" fill="white"/>
<path d="M13.2812 14.3438H3.1875V14.875H13.2812C13.5734 14.875 13.8125 14.6359 13.8125 14.3438V13.8125C13.8125 14.1047 13.5734 14.3438 13.2812 14.3438Z" fill="#CAD1D8"/>
</svg>
