<svg width="31" height="31" viewBox="0 0 31 31" fill="none" xmlns="http://www.w3.org/2000/svg">
<g clip-path="url(#clip0_298_68389)">
<path d="M27.7549 23.049C27.2183 22.6498 26.4598 22.7613 26.0606 23.2978C25.841 23.5929 25.6061 23.8824 25.3623 24.1581C24.9194 24.6592 24.9664 25.4245 25.4674 25.8674C25.6979 26.0711 25.984 26.1711 26.269 26.1711C26.604 26.1711 26.9375 26.0329 27.1767 25.7622C27.4655 25.4356 27.7437 25.0928 28.0037 24.7433C28.4029 24.2068 28.2915 23.4481 27.7549 23.049Z" fill="#FCB747"/>
<path d="M29.7803 17.37C29.1272 17.2278 28.4817 17.6422 28.3395 18.2956C28.2612 18.6551 28.1666 19.0152 28.0582 19.3662C27.8608 20.0052 28.2187 20.6832 28.8577 20.8806C28.9768 20.9174 29.0971 20.9349 29.2156 20.9349C29.7326 20.9349 30.2114 20.601 30.3721 20.081C30.5008 19.6646 30.6131 19.2372 30.706 18.8108C30.8482 18.1573 30.4338 17.5123 29.7803 17.37Z" fill="#FCB747"/>
<path d="M21.9268 26.9273C21.6053 27.1067 21.2724 27.2744 20.9375 27.4257C20.3279 27.701 20.057 28.4182 20.3322 29.0278C20.5345 29.4756 20.9752 29.7406 21.4365 29.7406C21.6032 29.7406 21.7725 29.706 21.9342 29.633C22.3316 29.4535 22.7262 29.2546 23.1075 29.0418C23.6914 28.7158 23.9005 27.9781 23.5744 27.3942C23.2485 26.8104 22.5108 26.6013 21.9268 26.9273Z" fill="#FCB747"/>
<path d="M14.2892 5.8125V14.9984L9.84879 19.4388C9.37592 19.9117 9.37592 20.6785 9.84879 21.1513C10.0853 21.3878 10.3951 21.506 10.7051 21.506C11.015 21.506 11.3249 21.3878 11.5614 21.1513L16.3565 16.3563C16.5835 16.1292 16.7111 15.8211 16.7111 15.5V5.8125C16.7111 5.1437 16.169 4.60156 15.5002 4.60156C14.8314 4.60156 14.2892 5.1437 14.2892 5.8125Z" fill="#FCB747"/>
<path d="M29.7891 2.60352C29.1203 2.60352 28.5781 3.14565 28.5781 3.81445V7.17698C25.7595 2.75658 20.8373 0 15.5 0C11.3598 0 7.46743 1.6123 4.5398 4.5398C1.6123 7.46743 0 11.3598 0 15.5C0 19.6402 1.6123 23.5326 4.5398 26.4602C7.46743 29.3877 11.3598 31 15.5 31C15.5102 31 15.5201 30.9987 15.5303 30.9985C15.5404 30.9987 15.5503 31 15.5605 31C15.997 31 16.4377 30.9816 16.8706 30.9454C17.537 30.8896 18.0321 30.3041 17.9763 29.6376C17.9204 28.9712 17.3357 28.4759 16.6685 28.532C16.3025 28.5626 15.9298 28.5781 15.5605 28.5781C15.5503 28.5781 15.5404 28.5794 15.5303 28.5796C15.5201 28.5794 15.5102 28.5781 15.5 28.5781C8.28869 28.5781 2.42188 22.7113 2.42188 15.5C2.42188 8.28869 8.28869 2.42188 15.5 2.42188C20.1475 2.42188 24.422 4.89903 26.7578 8.83984H23.4282C22.7594 8.83984 22.2173 9.38198 22.2173 10.0508C22.2173 10.7196 22.7594 11.2617 23.4282 11.2617H27.125C27.8625 11.2617 28.5524 11.0545 29.1398 10.6954C29.1776 10.6739 29.2139 10.6507 29.2486 10.6257C30.3024 9.93235 31 8.73976 31 7.38672V3.81445C31 3.14565 30.4579 2.60352 29.7891 2.60352Z" fill="#FCB747"/>
</g>
<defs>
<clipPath id="clip0_298_68389">
<rect width="31" height="31" fill="white"/>
</clipPath>
</defs>
</svg>
