<svg width="31" height="31" viewBox="0 0 31 31" fill="none" xmlns="http://www.w3.org/2000/svg">
<g clip-path="url(#clip0_298_68425)">
<path d="M29.5165 8.87013C28.251 6.18791 26.2469 3.93556 23.7221 2.35529C20.2104 0.163493 16.0569 -0.532796 12.0184 0.399626C7.986 1.32599 4.553 3.77209 2.3612 7.28381C0.163346 10.7955 -0.532943 14.949 0.399479 18.9875C1.3319 23.0199 3.77799 26.4529 7.28366 28.6447C9.75397 30.1887 12.5876 31.0061 15.4878 31.0061H15.6755C18.5635 30.9697 21.3729 30.1342 23.8069 28.5963C24.5153 28.1483 24.7212 27.2158 24.2731 26.5074C23.8251 25.799 22.8926 25.5932 22.1842 26.0412C20.2286 27.2824 17.9641 27.9545 15.6391 27.9848C13.2536 28.0151 10.9225 27.3551 8.88815 26.0897C6.06061 24.3217 4.09284 21.5608 3.34811 18.3154C2.60339 15.058 3.16042 11.7158 4.92839 8.8883C8.57331 3.05763 16.287 1.27756 22.1176 4.92248C24.152 6.19396 25.7626 8.00431 26.7798 10.1598C27.7727 12.2608 28.1602 14.5918 27.8999 16.8926C27.8091 17.7221 28.4024 18.4729 29.238 18.5637C30.0674 18.6545 30.8182 18.0611 30.9091 17.2256C31.2299 14.3738 30.7456 11.4797 29.5165 8.87013Z" fill="#E14239"/>
<path d="M20.7548 10.2446C20.1614 9.65122 19.2048 9.65122 18.6114 10.2446L15.4993 13.3627L12.3872 10.2506C11.7938 9.65728 10.8372 9.65728 10.2438 10.2506C9.65049 10.844 9.65049 11.8006 10.2438 12.394L13.356 15.5061L10.2438 18.6182C9.65049 19.2116 9.65049 20.1682 10.2438 20.7616C10.5405 21.0583 10.928 21.2036 11.3155 21.2036C11.703 21.2036 12.0905 21.0583 12.3872 20.7616L15.4993 17.6495L18.6114 20.7616C18.9081 21.0583 19.2956 21.2036 19.6831 21.2036C20.0706 21.2036 20.4581 21.0583 20.7548 20.7616C21.3481 20.1682 21.3481 19.2116 20.7548 18.6182L17.6427 15.5L20.7548 12.3879C21.3481 11.7946 21.3481 10.8379 20.7548 10.2446Z" fill="#E14239"/>
</g>
<defs>
<clipPath id="clip0_298_68425">
<rect width="31" height="31" fill="white"/>
</clipPath>
</defs>
</svg>
