<svg width="32" height="32" viewBox="0 0 32 32" fill="none" xmlns="http://www.w3.org/2000/svg">
<path d="M14.2988 27.7993C15.5641 27.7993 16.5898 26.7736 16.5898 25.5083C16.5898 24.243 15.5641 23.2173 14.2988 23.2173C13.0335 23.2173 12.0078 24.243 12.0078 25.5083C12.0078 26.7736 13.0335 27.7993 14.2988 27.7993Z" fill="#3361FF"/>
<path d="M22.9785 27.8293C24.2438 27.8293 25.2695 26.8036 25.2695 25.5383C25.2695 24.273 24.2438 23.2473 22.9785 23.2473C21.7132 23.2473 20.6875 24.273 20.6875 25.5383C20.6875 26.8036 21.7132 27.8293 22.9785 27.8293Z" fill="#3361FF"/>
<path d="M10.3865 9.7269L8.46897 4.1709H4.66797C3.97747 4.1709 3.41797 4.7304 3.41797 5.4209C3.41797 6.1114 3.97747 6.6709 4.66797 6.6709H6.68747L8.52497 11.9949H6.90797C6.35547 11.9949 5.90797 12.4429 5.90797 12.9949C5.90797 13.5469 6.35547 13.9949 6.90797 13.9949H6.96247H9.21547H12.7125C13.2645 13.9949 13.7125 14.4429 13.7125 14.9949C13.7125 15.5469 13.2645 15.9949 12.7125 15.9949H9.90547H8.21947C7.66747 15.9949 7.21947 16.4429 7.21947 16.9949C7.21947 17.5369 7.65197 17.9759 8.18997 17.9919H12.712C13.264 17.9919 13.712 18.4399 13.712 18.9919C13.712 19.5444 13.264 19.9919 12.712 19.9919H11.285L12.051 22.2109H23.503C24.625 22.2109 25.6765 21.3894 25.9475 20.3009L28.5825 9.7274L10.3865 9.7269Z" fill="#3361FF"/>
</svg>
